<svg width="20" height="20" viewBox="0 0 20 20" fill="none" xmlns="http://www.w3.org/2000/svg">
<g clip-path="url(#clip0_621_148)">
<path d="M9.25781 0.0273323C8.35156 0.11327 7.66016 0.246082 6.95312 0.476551C5.40234 0.980457 4.14453 1.74608 2.97266 2.90233C1.36328 4.49218 0.390625 6.45311 0.0742188 8.74999C0.00390625 9.23827 0.00390625 10.7617 0.0742188 11.25C0.484375 14.2266 2.07031 16.7539 4.55078 18.3828C7.83203 20.5391 12.1914 20.5312 15.4766 18.3672C16.9023 17.4258 18.1367 16.0508 18.8984 14.5625C20.0312 12.3555 20.3047 9.70702 19.6445 7.35155C19.5117 6.87889 19.4531 6.78124 19.2539 6.67577C19.0586 6.57811 18.8945 6.58202 18.707 6.68749C18.5586 6.76952 18.3984 7.01561 18.3984 7.16014C18.3984 7.19921 18.457 7.46093 18.5312 7.74608C18.7539 8.59764 18.8086 9.04686 18.8047 9.99999C18.8047 10.8984 18.7578 11.3242 18.5664 12.1055C18.2617 13.375 17.6055 14.6562 16.7266 15.7031C15.5703 17.0859 13.8672 18.1406 12.1055 18.5664C11.3203 18.7578 10.8984 18.8047 10 18.8047C9.09766 18.8047 8.67969 18.7578 7.89062 18.5664C6.13672 18.1406 4.42969 17.082 3.27344 15.7031C1.00781 13 0.535156 9.27733 2.06641 6.15233C2.95312 4.34374 4.34766 2.94921 6.15234 2.06639C8.26953 1.03514 10.6992 0.898426 12.9492 1.67968C13.4609 1.85936 14.4141 2.33593 14.8711 2.64061C15.3203 2.94139 16.0391 3.52733 15.9844 3.54686C15.9648 3.55077 15.6641 3.48827 15.3164 3.39843C14.9062 3.29686 14.6484 3.24999 14.5781 3.26561C14.2617 3.34374 14.1016 3.53514 14.1016 3.83983C14.1016 4.05077 14.1719 4.19921 14.3242 4.31249C14.3867 4.35936 15.1055 4.55858 16.2148 4.83593C18.2188 5.33593 18.1914 5.33202 18.4414 5.08202C18.6914 4.83202 18.6953 4.85155 18.1875 2.94139C17.9375 1.99999 17.6992 1.15624 17.6562 1.06249C17.5234 0.781239 17.1562 0.664051 16.875 0.816395C16.7188 0.898426 16.5625 1.14061 16.5625 1.30077C16.5625 1.36327 16.6406 1.70702 16.7383 2.06639C16.8359 2.42577 16.9141 2.73436 16.9141 2.74999C16.9141 2.76561 16.7969 2.67186 16.6523 2.53905C15.3555 1.34764 13.4727 0.445301 11.6602 0.140614C10.9297 0.0195198 9.85938 -0.0312614 9.25781 0.0273323Z" fill="currentColor"/>
<path d="M5.16797 6.93359C4.45703 7.08984 3.71094 7.80469 3.71094 8.33203C3.71094 8.67969 3.94141 8.91797 4.28125 8.91797C4.51172 8.91797 4.67578 8.80469 4.83985 8.53516C5.13282 8.05469 5.6211 7.91797 6.0625 8.19922C6.25782 8.32422 6.44532 8.64062 6.44532 8.84766C6.44532 9.05859 6.22657 9.32812 5.29688 10.2734C4.35157 11.2344 4.05078 11.5938 3.78516 12.0898C3.64453 12.3516 3.625 12.4102 3.64063 12.5742C3.66407 12.8008 3.77735 12.9766 3.96094 13.0625C4.07813 13.1172 4.29297 13.125 5.63282 13.125C7.14844 13.125 7.16797 13.1211 7.32032 13.0352C7.6875 12.8281 7.71485 12.3047 7.3711 12.0547C7.26953 11.9766 7.19141 11.9727 6.27735 11.9531L5.29688 11.9336L6.13672 11.0938C7.05469 10.1758 7.28516 9.90234 7.47266 9.50391C7.86328 8.66797 7.39844 7.53516 6.48438 7.09766C6.02344 6.87891 5.64063 6.83203 5.16797 6.93359Z" fill="currentColor"/>
<path d="M13.2109 6.95331C13.1406 6.99628 13.0508 7.08612 13.0078 7.15643C12.9336 7.28143 12.9297 7.35956 12.9297 10.0002C12.9297 12.6408 12.9336 12.7189 13.0078 12.8439C13.2344 13.2111 13.7852 13.215 14.0039 12.8478C14.0742 12.7267 14.082 12.6252 14.1016 11.6408C14.1211 10.6486 14.1289 10.5549 14.2031 10.4103C14.4336 9.96503 14.9062 9.98456 15.1211 10.4494C15.1875 10.59 15.1953 10.7189 15.1953 11.6213C15.1953 12.6017 15.1992 12.6447 15.2852 12.8127C15.4922 13.215 16.0508 13.2346 16.2891 12.8439C16.3633 12.7228 16.3672 12.6447 16.3672 11.6213C16.3672 10.4064 16.3477 10.2502 16.1211 9.82831C15.7461 9.12518 14.9297 8.7619 14.1914 8.96893L14.1016 8.99237V8.17596C14.1016 7.40643 14.0977 7.35175 14.0156 7.18768C13.8633 6.89471 13.4883 6.78534 13.2109 6.95331Z" fill="currentColor"/>
<path d="M10.4102 6.98849C10.3398 7.03146 9.75 7.79318 8.94532 8.88693C8.20313 9.89474 7.57813 10.7541 7.55079 10.7971C7.46875 10.9338 7.48829 11.2229 7.58985 11.3713C7.76172 11.6291 7.82032 11.6408 9.03516 11.6408H10.1172V12.1526C10.1172 12.7268 10.1602 12.8713 10.3633 13.0158C10.4258 13.0627 10.5586 13.1057 10.6602 13.1135C10.8984 13.1369 11.082 13.0315 11.1992 12.8127C11.2773 12.6643 11.2891 12.5901 11.2891 12.1486V11.6526L11.4375 11.6252C11.9844 11.5393 12.082 10.7893 11.582 10.5471C11.4922 10.5041 11.3906 10.469 11.3555 10.469C11.293 10.469 11.2891 10.3479 11.2891 8.9338C11.2891 7.41818 11.2891 7.39865 11.2031 7.22677C11.0508 6.93771 10.6758 6.82443 10.4102 6.98849ZM10.1055 10.4572C10.0938 10.4651 9.90235 10.4651 9.67188 10.4611L9.25391 10.4494L9.67579 9.8713L10.0977 9.29318L10.1094 9.8674C10.1133 10.1838 10.1133 10.4494 10.1055 10.4572Z" fill="currentColor"/>
</g>
<defs>
<clipPath id="clip0_621_148">
<rect width="20" height="20" fill="currentColor"/>
</clipPath>
</defs>
</svg>
