<svg width="20" height="20" viewBox="0 0 20 20" fill="none" xmlns="http://www.w3.org/2000/svg">
<path d="M12.7813 1.29272C12.082 1.41381 11.5313 1.71068 10.9961 2.24584C10.2774 2.96459 9.95313 3.79272 10.0117 4.76537C10.0391 5.22631 10.1211 5.55053 10.3164 5.9685C10.7578 6.92553 11.5703 7.58959 12.6055 7.83568C12.9961 7.93334 13.6797 7.92553 14.1094 7.82006C15.625 7.44897 16.6524 6.13647 16.6524 4.57006C16.6524 3.69506 16.3594 2.95678 15.7617 2.31225C15.3555 1.87475 14.7344 1.50365 14.1406 1.3474C13.8399 1.26928 13.0742 1.23803 12.7813 1.29272ZM13.6719 2.10912C14.2734 2.20678 14.8125 2.49193 15.1953 2.92162C15.4258 3.17943 15.6758 3.6599 15.7656 4.01928C15.8516 4.36303 15.8242 5.00365 15.7109 5.35131C15.4688 6.08568 14.8359 6.7185 14.1016 6.96068C13.7539 7.07397 13.1133 7.10131 12.7695 7.01537C11.7461 6.75756 11.0234 5.96459 10.8594 4.90209C10.7852 4.44115 10.8633 3.97631 11.1016 3.48022C11.2227 3.22631 11.3242 3.08959 11.5547 2.85131C12.1524 2.24975 12.8984 1.98803 13.6719 2.10912Z" fill="currentColor"/>
<path d="M5.56641 4.23828C4.48047 4.47656 3.54688 5.26562 3.16016 6.26953C2.99219 6.70312 2.92969 7.02344 2.92969 7.48438C2.92969 7.95703 2.97656 8.23047 3.13281 8.66406C3.50781 9.70312 4.47266 10.5312 5.58594 10.7656C5.91406 10.8359 6.58594 10.8359 6.91406 10.7656C7.77734 10.582 8.52344 10.0742 9.01953 9.33594C9.39453 8.77344 9.57031 8.1875 9.57031 7.5C9.57031 6.8125 9.39453 6.22656 9.01953 5.66406C8.52344 4.92578 7.77734 4.41797 6.91406 4.23438C6.59766 4.16797 5.87891 4.16797 5.56641 4.23828ZM6.77734 5.05859C7.62109 5.23438 8.375 5.92969 8.64453 6.77734C8.71484 7 8.73047 7.14062 8.73047 7.51953C8.72656 7.92578 8.71094 8.02734 8.625 8.27344C8.48047 8.67969 8.30078 8.96094 8.00781 9.25781C7.71094 9.55469 7.35547 9.77344 6.97266 9.89453C6.75 9.96484 6.60938 9.98047 6.23047 9.98047C5.82422 9.97656 5.72266 9.96094 5.47656 9.875C5.06641 9.72656 4.78906 9.55078 4.47266 9.23828C3.71875 8.48828 3.53906 7.34766 4.02344 6.38281C4.53906 5.36328 5.65625 4.82422 6.77734 5.05859Z" fill="currentColor"/>
<path d="M11.4336 8.81234C10.8789 8.91 10.3047 9.15609 9.87109 9.4764C9.53515 9.7225 9.49609 10.0623 9.78125 10.2381C9.95703 10.3475 10.082 10.3319 10.3164 10.1717C10.8242 9.83187 11.2383 9.66781 11.7695 9.60531C12 9.57796 12.8047 9.57015 14.0039 9.57796C15.8086 9.59359 15.8906 9.5975 16.1719 9.68343C17.0273 9.93734 17.6562 10.4608 18.0273 11.2303C18.2812 11.7577 18.3203 11.992 18.3203 13.0155C18.3203 14.203 18.3398 14.1795 17.3047 14.1795H16.6797V12.91C16.6797 11.5077 16.668 11.4217 16.4492 11.3123C16.3008 11.2342 16.1992 11.2342 16.0508 11.3123C15.832 11.4217 15.8203 11.5077 15.8203 12.91V14.1795H13.6406H11.457L11.3516 13.9334C10.9922 13.0858 10.1953 12.3006 9.34375 11.953C8.70703 11.6952 8.76562 11.6991 6.25 11.6991C3.98437 11.6991 3.96093 11.6991 3.63671 11.7889C2.11718 12.203 1.04296 13.4608 0.859371 15.0272C0.832027 15.2498 0.820308 15.7537 0.828121 16.1795L0.839839 16.9334L0.968746 17.1952C1.11328 17.492 1.28906 17.6639 1.60156 17.8084L1.8164 17.91L6.14843 17.9217C9.88671 17.9295 10.5117 17.9217 10.707 17.8709C11.1172 17.7694 11.3672 17.5545 11.5586 17.1483C11.6602 16.9334 11.6602 16.9256 11.6602 15.9686V14.9998L14.9414 14.992L18.2227 14.9803L18.4297 14.8866C18.6953 14.7655 18.9922 14.4452 19.0898 14.1717C19.1523 13.992 19.1602 13.8397 19.1562 12.9686C19.1523 12.0233 19.1484 11.953 19.0508 11.5858C18.6719 10.1678 17.5703 9.11703 16.1445 8.83187C15.7734 8.75375 15.6211 8.74984 13.7422 8.75375C12.207 8.75765 11.668 8.76937 11.4336 8.81234ZM8.73046 12.6131C9.71484 12.9373 10.4102 13.6366 10.7266 14.6092C10.7812 14.785 10.7969 15.0037 10.8125 15.828L10.8281 16.8358L10.7109 16.953L10.5937 17.0702H9.88671H9.17968V15.8202C9.17968 14.4764 9.16796 14.3748 8.98046 14.242C8.86328 14.16 8.63671 14.16 8.51953 14.242C8.33203 14.3748 8.32031 14.4764 8.32031 15.8202V17.0702H6.25H4.17968V15.8202C4.17968 14.4764 4.16796 14.3748 3.98046 14.242C3.92968 14.2069 3.82812 14.1795 3.75 14.1795C3.67187 14.1795 3.57031 14.2069 3.51953 14.242C3.33203 14.3748 3.32031 14.4764 3.32031 15.8202V17.0702H2.61328H1.90625L1.78906 16.953L1.67578 16.8358L1.6875 15.8319C1.69921 14.8475 1.70312 14.8162 1.80859 14.5116C2.16796 13.4803 3.04687 12.7225 4.09375 12.5389C4.19531 12.5233 5.21875 12.5116 6.36718 12.5155C8.4375 12.5233 8.46093 12.5233 8.73046 12.6131Z" fill="currentColor"/>
</svg>
