<svg width="20" height="20" viewBox="0 0 20 20" fill="none" xmlns="http://www.w3.org/2000/svg">
<g clip-path="url(#clip0_621_142)">
<path d="M9.47266 2.93359C8.30859 3.10547 7.37891 3.90234 7.02344 5.03906C6.89453 5.46094 6.89453 6.25391 7.02344 6.67969C7.42188 7.95703 8.55078 8.78906 9.89062 8.79297C10.4062 8.79297 10.7227 8.72266 11.1914 8.49609C11.8164 8.19531 12.2383 7.77344 12.5586 7.14063C12.7969 6.66797 12.8633 6.32422 12.8438 5.73047C12.8281 5.34766 12.8047 5.19141 12.7188 4.94141C12.5664 4.49609 12.3359 4.125 11.9961 3.78516C11.5156 3.30469 10.9492 3.02734 10.2617 2.93359C9.91797 2.88672 9.80859 2.88672 9.47266 2.93359ZM10.625 3.67188C11.3281 3.91016 11.8867 4.46875 12.1133 5.16406C12.2344 5.53516 12.2461 6.15625 12.1328 6.48438C11.8477 7.32813 11.2695 7.875 10.4375 8.08984C9.68359 8.28125 8.88672 8.07422 8.29688 7.52344C7.98828 7.23828 7.8125 6.96484 7.66797 6.55469C7.53516 6.17578 7.52734 5.58203 7.65234 5.19531C7.89844 4.42188 8.62891 3.75391 9.39453 3.59766C9.71094 3.53516 10.332 3.57031 10.625 3.67188Z" fill="curretColor"/>
<path d="M15.5469 4.98035C14.7578 5.16004 14.0703 5.78894 13.8242 6.56238C13.7266 6.85925 13.707 7.49207 13.7851 7.77332C13.8906 8.15613 14.1016 8.5155 14.3867 8.80847C14.707 9.12879 14.9219 9.2655 15.3164 9.39832C15.9062 9.59754 16.5 9.55066 17.0937 9.2616C18.6484 8.49207 18.793 6.32019 17.3555 5.33582C16.8398 4.98425 16.1367 4.84754 15.5469 4.98035ZM16.5273 5.64832C16.8242 5.73816 17.0273 5.86707 17.2617 6.11316C18.0391 6.93347 17.7734 8.23425 16.7305 8.71863C16.0508 9.03894 15.1719 8.82019 14.7187 8.22254C14.4726 7.90222 14.3984 7.66004 14.3945 7.20691C14.3945 6.84754 14.4062 6.79675 14.5195 6.55066C14.7226 6.12097 15.1094 5.78504 15.5664 5.6405C15.7891 5.57019 16.2773 5.5741 16.5273 5.64832Z" fill="curretColor"/>
<path d="M3.48046 5.14062C2.89452 5.26562 2.36327 5.625 2.03515 6.11328C1.41796 7.03516 1.54296 8.23047 2.33202 9.00781C2.73827 9.41016 3.40234 9.6875 3.96484 9.6875C4.93749 9.6875 5.87499 8.99219 6.17577 8.04688C6.30077 7.66406 6.29296 7.07031 6.16015 6.6875C6.01952 6.28516 5.84374 6.00781 5.53905 5.72266C4.98437 5.19531 4.21874 4.98047 3.48046 5.14062ZM4.64843 5.88672C5.11718 6.10938 5.40624 6.44141 5.55468 6.92969C5.78905 7.69531 5.40624 8.52734 4.66015 8.87891C4.15624 9.11328 3.48046 9.0625 3.03124 8.75C2.79296 8.58984 2.54296 8.30469 2.4414 8.07422C2.03515 7.18359 2.48046 6.15234 3.42187 5.82031C3.60546 5.75781 3.72655 5.74219 4.02343 5.75391C4.34374 5.76172 4.42968 5.78125 4.64843 5.88672Z" fill="curretColor"/>
<path d="M9.53125 9.20709C8.33594 9.32428 7.19141 9.82037 6.35547 10.586L6.08984 10.8321L5.71094 10.6524C5.25 10.4337 4.93359 10.336 4.47266 10.2735C2.64062 10.0157 0.808594 11.1485 0.207031 12.9102C0.046875 13.379 0 13.7735 0 14.6094C0 15.379 0 15.3829 0.109375 15.5899C0.1875 15.7422 0.269531 15.8321 0.410156 15.918L0.597656 16.0352L2.57812 16.0469L4.5625 16.0587L4.58594 16.2149C4.62109 16.4415 4.73438 16.6446 4.92188 16.8126C5.25391 17.1133 4.83594 17.0899 10 17.0899C15.1641 17.0899 14.7461 17.1133 15.0781 16.8126C15.3008 16.6133 15.3984 16.4024 15.4219 16.086L15.4414 15.8243L17.3984 15.8126C18.7891 15.8047 19.3867 15.7852 19.457 15.754C19.6289 15.6797 19.8516 15.461 19.9258 15.293C19.9883 15.1602 20 15.0274 20 14.3712C20 13.5391 19.9531 13.1446 19.793 12.6758C19.3867 11.4844 18.4414 10.5626 17.2461 10.1837C16.1641 9.84381 14.9023 9.99615 13.9688 10.5743L13.7773 10.6954L13.5352 10.4883C12.4297 9.55084 10.9258 9.06647 9.53125 9.20709ZM10.8047 9.9024C12.7578 10.2383 14.2891 11.711 14.6914 13.6407C14.7578 13.9688 14.7773 14.2188 14.7891 15.0118C14.8086 16.0626 14.7891 16.2344 14.6211 16.3633C14.5195 16.4454 14.5 16.4454 10 16.4454C5.52734 16.4454 5.47656 16.4454 5.37891 16.3672C5.21094 16.2344 5.19531 16.1094 5.21094 15.0391C5.22266 14.2032 5.23828 13.9766 5.30859 13.6407C5.71094 11.7266 7.23047 10.2501 9.16016 9.90631C9.58203 9.83209 10.3789 9.82819 10.8047 9.9024ZM16.8711 10.7462C18.0352 11.043 18.957 11.9688 19.2578 13.1407C19.3242 13.4024 19.3359 13.5743 19.3359 14.2579C19.3359 14.8321 19.3242 15.0743 19.2891 15.1094C19.2539 15.1446 18.7695 15.1563 17.3398 15.1563H15.4414L15.418 14.4805C15.3828 13.504 15.2344 12.9063 14.8203 12.1055C14.7188 11.9063 14.543 11.6172 14.4297 11.461L14.2227 11.1758L14.3516 11.0938C15.0391 10.6719 16.0352 10.5352 16.8711 10.7462ZM4.77344 10.9922C5.10547 11.0743 5.625 11.2969 5.625 11.3516C5.625 11.3633 5.55078 11.4766 5.46484 11.6094C5.23438 11.9454 4.90234 12.6563 4.78516 13.0665C4.63281 13.5899 4.57031 14.0899 4.57031 14.7735V15.3907H2.66016C1.03125 15.3907 0.746094 15.3829 0.703125 15.3321C0.667969 15.2891 0.660156 15.0469 0.671875 14.3868C0.6875 13.5899 0.699219 13.4649 0.777344 13.2227C1.16016 12.0587 2.08203 11.2149 3.26172 10.9571C3.66406 10.8672 4.34766 10.8829 4.77344 10.9922Z" fill="curretColor"/>
</g>
<defs>
<clipPath id="clip0_621_142">
<rect width="20" height="20" fill="curretColor"/>
</clipPath>
</defs>
</svg>
