<svg width="20" height="20" viewBox="0 0 20 20" fill="none" xmlns="http://www.w3.org/2000/svg">
<path d="M18.3337 9.16667V3C18.3337 2.86739 18.281 2.74021 18.1872 2.64645C18.0934 2.55268 17.9663 2.5 17.8337 2.5H2.16699C2.03438 2.5 1.90721 2.55268 1.81344 2.64645C1.71967 2.74021 1.66699 2.86739 1.66699 3V9.16667M18.3337 9.16667H1.66699M18.3337 9.16667L17.6753 11.32C17.5711 11.6614 17.36 11.9603 17.0732 12.1727C16.7864 12.3851 16.4389 12.4999 16.082 12.5H15.0003M1.66699 9.16667L2.32533 11.32C2.42955 11.6614 2.64061 11.9603 2.92744 12.1727C3.21428 12.3851 3.56173 12.4999 3.91866 12.5H5.00033M15.0003 5.83333H15.8337M7.91699 12.0833C7.91699 12.0833 7.91699 17.9167 5.00033 17.9167M12.0837 12.0833C12.0837 12.0833 12.0837 17.9167 15.0003 17.9167M10.0003 12.0833V17.9167" stroke="currentColor" stroke-width="1.25" stroke-linecap="round" stroke-linejoin="round"/>
</svg>
