<svg width="20" height="20" viewBox="0 0 20 20" fill="none" xmlns="http://www.w3.org/2000/svg">
<g clip-path="url(#clip0_588_4)">
<path d="M6 1.3335C5.23156 1.33334 4.48668 1.59869 3.8914 2.08463C3.29612 2.57057 2.88702 3.24725 2.73333 4.00016H0V5.3335H2.73333C2.88634 6.08702 3.29515 6.76448 3.89049 7.25108C4.48584 7.73768 5.2311 8.0035 6 8.0035C6.7689 8.0035 7.51416 7.73768 8.10951 7.25108C8.70485 6.76448 9.11366 6.08702 9.26667 5.3335H20V4.00016H9.26667C9.11298 3.24725 8.70388 2.57057 8.1086 2.08463C7.51333 1.59869 6.76844 1.33334 6 1.3335ZM14 12.0002C13.2316 12 12.4867 12.2654 11.8914 12.7513C11.2961 13.2372 10.887 13.9139 10.7333 14.6668H0V16.0002H10.7333C10.8863 16.7537 11.2952 17.4311 11.8905 17.9177C12.4858 18.4044 13.2311 18.6702 14 18.6702C14.7689 18.6702 15.5142 18.4044 16.1095 17.9177C16.7048 17.4311 17.1137 16.7537 17.2667 16.0002H20V14.6668H17.2667C17.113 13.9139 16.7039 13.2372 16.1086 12.7513C15.5133 12.2654 14.7684 12 14 12.0002Z" fill="currentColor"/>
</g>
<defs>
<clipPath id="clip0_588_4">
<rect width="20" height="20" fill="white"/>
</clipPath>
</defs>
</svg>
