<svg width="20" height="20" viewBox="0 0 20 20" fill="none" xmlns="http://www.w3.org/2000/svg">
<path d="M15.417 4.58317L4.58366 15.4165M5.50533 3.13067C6.22783 2.40817 6.58866 2.04734 7.04866 1.8565C7.50866 1.6665 8.01949 1.6665 9.04032 1.6665H10.9595C11.9812 1.6665 12.4928 1.6665 12.9512 1.8565C13.4112 2.04734 13.7728 2.40817 14.4953 3.1315L16.8695 5.50484C17.592 6.22734 17.9528 6.58817 18.1437 7.04817C18.3337 7.50817 18.3337 8.019 18.3337 9.03984V10.959C18.3337 11.9807 18.3337 12.4923 18.1437 12.9507C17.9528 13.4107 17.592 13.7723 16.8687 14.4948L14.4953 16.869C13.7728 17.5915 13.412 17.9523 12.952 18.1432C12.4928 18.3332 11.9812 18.3332 10.9603 18.3332H9.04116C8.01949 18.3332 7.50783 18.3332 7.04949 18.1432C6.58949 17.9523 6.22783 17.5915 5.50533 16.8682L3.13116 14.4948C2.40866 13.7723 2.04783 13.4115 1.85699 12.9515C1.66699 12.4915 1.66699 11.9807 1.66699 10.9598V9.04067C1.66699 8.019 1.66699 7.50734 1.85699 7.049C2.04783 6.589 2.40866 6.22734 3.13199 5.50484" stroke="currentColor" stroke-width="1.25" stroke-linecap="round"/>
<g clip-path="url(#clip0_212_71)">
<path d="M7.34852 14.2142H12.0047C12.2728 14.2141 12.5299 14.1075 12.7194 13.9179C12.909 13.7283 13.0155 13.4711 13.0155 13.203V8.71814C13.9634 8.68043 14.5319 7.62797 14.0251 6.81004L13.7289 6.33232C13.6169 6.15145 13.4606 6.00218 13.2748 5.89864C13.0889 5.7951 12.8797 5.74073 12.667 5.74068H11.8216V5.36707C11.8216 5.21294 11.7604 5.06511 11.6514 4.95608C11.5425 4.84705 11.3947 4.78575 11.2406 4.78564C10.8584 4.78596 10.4921 4.93794 10.222 5.20821C9.95183 5.47848 9.80005 5.84492 9.79994 6.22704V8.264C9.04684 8.33747 8.47837 8.69418 8.06077 9.19547C7.59955 9.74939 7.32809 10.4715 7.16623 11.1649C7.00398 11.8622 6.94623 12.5548 6.92934 13.0702C6.92313 13.2551 6.92143 13.44 6.92423 13.6249H6.53609C6.30977 13.6248 6.0884 13.5586 5.8992 13.4344C5.70999 13.3102 5.56118 13.1335 5.47105 12.9259C5.38091 12.7183 5.35338 12.4889 5.39184 12.2659C5.4303 12.0428 5.53306 11.8359 5.68752 11.6705L6.22966 11.089C6.60342 10.6882 6.80698 10.158 6.79745 9.61003C6.78793 9.06207 6.56605 8.53922 6.17859 8.15164L5.64705 7.61932C5.62008 7.59037 5.58755 7.56716 5.55141 7.55105C5.51526 7.53495 5.47625 7.52629 5.43668 7.52559C5.39712 7.52489 5.35783 7.53217 5.32114 7.54699C5.28445 7.56181 5.25112 7.58387 5.22314 7.61184C5.19516 7.63982 5.17311 7.67315 5.15829 7.70984C5.14347 7.74653 5.13619 7.78582 5.13689 7.82539C5.13759 7.86495 5.14625 7.90396 5.16235 7.94011C5.17846 7.97625 5.20167 8.00878 5.23062 8.03575L5.76294 8.56847C6.0425 8.84791 6.20257 9.22502 6.20938 9.62022C6.2162 10.0154 6.06923 10.3978 5.79948 10.6868L5.25734 11.2682C5.02489 11.5176 4.87029 11.8294 4.81248 12.1654C4.75467 12.5014 4.79616 12.847 4.93188 13.1598C5.0676 13.4725 5.29163 13.7389 5.57652 13.9262C5.8614 14.1135 6.19475 14.2136 6.53569 14.2142H7.34852ZM11.2327 5.37493V6.03572C11.2327 6.19875 11.3643 6.33036 11.5273 6.33036H12.6666C12.8957 6.33036 13.1078 6.44861 13.2284 6.64307L13.5242 7.12118C13.7973 7.56118 13.481 8.13043 12.9628 8.13043H12.7208C12.6427 8.13043 12.5677 8.16147 12.5125 8.21673C12.4572 8.27199 12.4262 8.34693 12.4262 8.42507V13.203C12.4262 13.436 12.2376 13.6249 12.0047 13.6249H11.5827V13.203C11.5828 12.9761 11.5382 12.7514 11.4515 12.5418C11.3648 12.3322 11.2376 12.1417 11.0772 11.9812C10.9168 11.8207 10.7264 11.6934 10.5168 11.6065C10.3073 11.5196 10.0826 11.4749 9.85573 11.4748H9.25859C9.18044 11.4748 9.1055 11.5059 9.05024 11.5611C8.99499 11.6164 8.96394 11.6913 8.96394 11.7695C8.96394 11.8476 8.99499 11.9226 9.05024 11.9778C9.1055 12.0331 9.18044 12.0641 9.25859 12.0641H9.85573C10.4843 12.0641 10.9938 12.574 10.9938 13.203V13.6249H7.51312C7.51019 13.4464 7.51176 13.2679 7.51784 13.0895C7.53434 12.5968 7.58894 11.9455 7.7398 11.2988C7.89144 10.6486 8.13502 10.0268 8.51334 9.573C8.88262 9.12947 9.3843 8.83914 10.0946 8.83914C10.1333 8.83914 10.1716 8.83152 10.2073 8.81672C10.2431 8.80191 10.2756 8.78021 10.3029 8.75285C10.3303 8.72549 10.352 8.693 10.3668 8.65726C10.3816 8.62151 10.3892 8.58319 10.3892 8.5445V6.22664C10.3892 5.75914 10.766 5.37925 11.2327 5.37493Z" fill="currentColor"/>
</g>
<defs>
<clipPath id="clip0_212_71">
<rect width="11" height="11" fill="currentcolor" transform="translate(4 4)"/>
</clipPath>
</defs>
</svg>
