<svg width="20" height="20" viewBox="0 0 20 20" fill="none" xmlns="http://www.w3.org/2000/svg">
<path d="M15.833 9.16657H5.94967L8.97467 5.53324C9.11612 5.36306 9.18417 5.14366 9.16386 4.9233C9.14354 4.70295 9.03652 4.49969 8.86634 4.35824C8.69616 4.21679 8.47676 4.14874 8.2564 4.16905C8.03605 4.18937 7.83279 4.29639 7.69134 4.46657L3.52467 9.46657C3.49664 9.50634 3.47157 9.54812 3.44967 9.59157C3.44967 9.63324 3.44967 9.65824 3.39134 9.6999C3.35357 9.79545 3.33379 9.89716 3.33301 9.9999C3.33379 10.1026 3.35357 10.2044 3.39134 10.2999C3.39134 10.3416 3.39134 10.3666 3.44967 10.4082C3.47157 10.4517 3.49664 10.4935 3.52467 10.5332L7.69134 15.5332C7.76969 15.6273 7.86781 15.703 7.97871 15.7548C8.08962 15.8067 8.21058 15.8334 8.33301 15.8332C8.52772 15.8336 8.71641 15.7658 8.86634 15.6416C8.95072 15.5716 9.02047 15.4857 9.0716 15.3887C9.12273 15.2918 9.15423 15.1857 9.16429 15.0765C9.17435 14.9674 9.16278 14.8573 9.13025 14.7527C9.09771 14.648 9.04484 14.5508 8.97467 14.4666L5.94967 10.8332H15.833C16.054 10.8332 16.266 10.7454 16.4223 10.5892C16.5785 10.4329 16.6663 10.2209 16.6663 9.9999C16.6663 9.77889 16.5785 9.56693 16.4223 9.41065C16.266 9.25437 16.054 9.16657 15.833 9.16657Z" fill="currentColor"/>
</svg>
