<svg width="20" height="20" viewBox="0 0 20 20" fill="none" xmlns="http://www.w3.org/2000/svg">
<g clip-path="url(#clip0_620_103)">
<path d="M1.54688 0.0624962C0.796879 0.242184 0.175785 0.910152 0.0390665 1.67578C4.02628e-06 1.89062 4.02628e-06 2.10937 0.0351603 2.72265C0.375004 8.375 1.83203 12.3984 4.56641 15.207C7.36719 18.0859 11.4922 19.6328 17.2617 19.9648C18.1914 20.0195 18.4336 19.9922 18.8711 19.7812C19.2109 19.6172 19.5781 19.2656 19.7539 18.9219C20.0156 18.4297 20 19.0195 20 10C20 0.980464 20.0156 1.57031 19.7539 1.07812C19.5977 0.773434 19.2266 0.40234 18.9219 0.24609C18.4297 -0.0156288 18.9297 -3.8147e-06 10.8672 -3.8147e-06H3.55078L3.45703 0.0976524C3.40235 0.148434 3.35938 0.238277 3.35938 0.292965C3.35938 0.347652 3.40235 0.437496 3.45703 0.488277L3.55078 0.585934H10.8516C18.0547 0.585934 18.1602 0.585934 18.4023 0.664059C18.8672 0.80859 19.1953 1.14453 19.3438 1.60937C19.4102 1.83203 19.4141 2.17578 19.4141 10C19.4141 18.0547 19.4141 18.1602 19.3359 18.4023C19.1875 18.875 18.8281 19.2187 18.3398 19.3594C18.1289 19.418 18.0313 19.4219 17.3047 19.3789C8.81641 18.8906 3.91016 15.7266 1.80079 9.38281C1.13672 7.38671 0.738285 5.05859 0.601566 2.40234C0.570316 1.80468 0.621098 1.55859 0.843754 1.22265C1.1211 0.792965 1.57032 0.585934 2.21485 0.585934C2.55079 0.585934 2.58985 0.578121 2.67578 0.488277C2.73047 0.437496 2.77344 0.347652 2.77344 0.292965C2.77344 0.238277 2.73047 0.148434 2.67578 0.0976524C2.58594 0.00780869 2.55469 -3.8147e-06 2.17969 0.00390244C1.95704 0.00390244 1.67579 0.0312462 1.54688 0.0624962Z" fill="currentColor"/>
<path d="M2.16797 1.21082C1.83204 1.29676 1.54688 1.52723 1.40235 1.82801C1.27735 2.08973 1.27735 2.48817 1.40626 2.74988C1.6836 3.3241 2.35157 3.55457 2.91407 3.26942C3.13282 3.16004 3.27735 3.0116 3.41016 2.7577C3.47657 2.6327 3.4961 2.53113 3.4961 2.28504C3.4961 2.0116 3.48047 1.9452 3.37891 1.7616C3.14063 1.32801 2.6211 1.09363 2.16797 1.21082ZM2.58985 1.81238C2.78126 1.89442 2.89844 2.04285 2.91797 2.23426C2.96094 2.66395 2.4961 2.96082 2.14454 2.72254C1.78516 2.48426 1.81641 1.98035 2.20313 1.81238C2.35938 1.74598 2.4336 1.74598 2.58985 1.81238Z" fill="currentColor"/>
<path d="M16.2188 1.42188C16.043 1.58984 16.0039 1.65234 16.0039 1.75781C16.0039 1.91406 16.1289 2.03125 16.293 2.03125C16.4258 2.03125 16.707 1.79688 16.7773 1.625C16.8398 1.47656 16.7891 1.31641 16.6562 1.25391C16.4961 1.18359 16.4492 1.19922 16.2188 1.42188Z" fill="currentColor"/>
<path d="M14.1016 2.03501C13.9609 2.05454 13.5391 2.17954 13.1641 2.30845C12.043 2.69126 11.3242 2.84751 10.293 2.93345C9.625 2.98813 9.19141 2.9686 7.33203 2.79282C5.73047 2.64048 5.5 2.64438 4.92188 2.83579C3.92578 3.16782 3.14453 4.00767 2.86719 5.03892C2.77344 5.39048 2.77344 6.12095 2.86719 6.56235C3.54688 9.76548 4.6875 12.0584 6.44922 13.7694C7.99609 15.2694 9.89453 16.2616 12.4766 16.9139C13.5078 17.1717 13.9531 17.242 14.3906 17.2147C15.9219 17.1092 17.1211 15.9608 17.3047 14.4256C17.3477 14.0467 17.2734 13.0116 17.1875 12.8553C17.125 12.7303 16.9688 12.6834 16.8438 12.742C16.6602 12.8319 16.6445 12.9295 16.7031 13.535C16.7813 14.3319 16.7188 14.7381 16.4336 15.2889C16.043 16.0428 15.2305 16.5663 14.3633 16.6288C13.4922 16.6874 10.9883 15.9647 9.51563 15.2264C6.67969 13.8084 4.82031 11.4491 3.83203 8.02329C3.51563 6.92954 3.38672 6.2772 3.38281 5.7811C3.38281 5.39048 3.39844 5.29282 3.49219 5.01938C3.83594 4.0272 4.63281 3.39438 5.69141 3.26548C5.8125 3.24985 6.45313 3.29282 7.32422 3.37876C9.14844 3.55454 9.60938 3.57407 10.332 3.51938C11.3945 3.43345 12.1406 3.27329 13.2656 2.89048C13.6367 2.76548 14.0742 2.64048 14.2422 2.61704C14.8906 2.51938 15.625 2.69516 16.1953 3.08579L16.375 3.21079L15.9609 3.63266C15.5039 4.0936 15.4688 4.17954 15.6445 4.35532C15.8203 4.5311 15.9063 4.49595 16.3672 4.03892L16.7891 3.62485L16.9141 3.80454C17.3008 4.37485 17.4805 5.10923 17.3828 5.75376C17.3594 5.91782 17.2344 6.36313 17.1055 6.73813C16.625 8.14829 16.4727 9.0311 16.4727 10.3709C16.4727 11.367 16.5234 11.9217 16.625 12.035C16.7109 12.1288 16.918 12.1288 17.0352 12.035L17.125 11.9647L17.0703 11.1795C16.9688 9.63267 17.1211 8.53501 17.6523 6.95298C17.8203 6.45688 17.9414 6.0272 17.9688 5.82017C18.0781 5.02329 17.8711 4.1561 17.4023 3.49204C17.3047 3.35141 17.2266 3.22641 17.2266 3.2147C17.2266 3.19907 17.4023 3.00766 17.6172 2.79282C18.0469 2.35532 18.0859 2.26157 17.9102 2.0897C17.7383 1.91391 17.6445 1.95298 17.207 2.38266C16.9922 2.59751 16.8008 2.77329 16.7852 2.77329C16.7734 2.77329 16.6484 2.69516 16.5078 2.59751C15.8398 2.12876 14.9102 1.91391 14.1016 2.03501Z" fill="currentColor"/>
<path d="M18.1758 3.21495C17.9375 3.45714 17.9062 3.59776 18.0586 3.7423C18.2187 3.89073 18.3594 3.85558 18.5898 3.6173C18.8164 3.37511 18.8437 3.25401 18.6914 3.10558C18.5391 2.94933 18.418 2.97667 18.1758 3.21495Z" fill="currentColor"/>
<path d="M10.3633 4.29667C10.2383 4.34745 10.1953 4.45683 10.1953 4.74589C10.1953 4.96855 10.207 5.01542 10.293 5.09745C10.3984 5.20683 10.457 5.21464 10.5977 5.15214C10.7266 5.09355 10.7812 4.96074 10.7812 4.70683C10.7812 4.54277 10.7617 4.47636 10.6953 4.39824C10.5898 4.28495 10.4805 4.2498 10.3633 4.29667Z" fill="currentColor"/>
<path d="M4.52734 5.97263C4.44531 6.03903 4.43359 6.0781 4.43359 6.34763C4.43359 6.61716 4.44531 6.65622 4.52734 6.72263C4.64453 6.82028 4.82422 6.81638 4.92188 6.71872C4.98438 6.65622 5 6.58981 5 6.34763C5 6.10153 4.98828 6.04685 4.91406 5.97653C4.80859 5.87888 4.64453 5.87497 4.52734 5.97263Z" fill="currentColor"/>
<path d="M6.86719 6.14842C6.78516 6.17576 6.67578 6.23045 6.6211 6.26561C6.57032 6.30076 6.5 6.32811 6.46875 6.32811C6.35938 6.32811 6.21875 6.41405 6.17578 6.5117C6.11328 6.65233 6.1211 6.71092 6.23047 6.81639C6.36328 6.95311 6.57422 6.9453 6.85547 6.79686C6.97657 6.73045 7.09766 6.67967 7.125 6.67967C7.14844 6.67967 7.27344 6.73436 7.39844 6.79686C7.71485 6.95701 7.94532 6.95701 8.26953 6.78905L8.51172 6.66405L8.75391 6.78905C9.05469 6.9453 9.28125 6.95701 9.40625 6.8242C9.45313 6.77342 9.49219 6.68358 9.49219 6.62498C9.49219 6.49998 9.33594 6.32811 9.21875 6.32811C9.17578 6.32811 9.04688 6.28123 8.9336 6.21873C8.64844 6.0703 8.33594 6.0703 8.07813 6.22264C7.85547 6.35155 7.78907 6.35545 7.56641 6.23045C7.34766 6.10545 7.0625 6.0742 6.86719 6.14842Z" fill="currentColor"/>
<path d="M15.1328 9.03125C15.0469 9.07031 14.9609 9.21484 14.9609 9.32031C14.9609 9.35156 15.0039 9.42188 15.0586 9.47266C15.1406 9.55859 15.1875 9.57031 15.4219 9.57031C15.7266 9.57031 15.8359 9.51172 15.8828 9.32812C15.9023 9.24219 15.8828 9.19922 15.7891 9.10156C15.6836 8.99609 15.6445 8.98438 15.4414 8.98828C15.3164 8.98828 15.1758 9.00781 15.1328 9.03125Z" fill="currentColor"/>
<path d="M11.0937 9.33593C10.9766 9.39843 10.8398 9.44921 10.793 9.45312C10.6992 9.45312 10.5469 9.62499 10.5469 9.73046C10.5469 9.76953 10.5898 9.84765 10.6406 9.91015C10.7187 10.0039 10.7578 10.0156 10.918 10.0078C11.0352 10.0039 11.168 9.96484 11.2734 9.90234C11.4844 9.77734 11.6016 9.77734 11.8203 9.90624C12.0625 10.0508 12.3672 10.0508 12.6445 9.91015C12.8906 9.78515 12.9844 9.78124 13.1562 9.88281C13.5781 10.1406 14.0117 9.98046 13.8828 9.61328C13.8555 9.53906 13.7969 9.49609 13.6719 9.45312C13.5742 9.42187 13.4219 9.35546 13.332 9.30468C13.082 9.17187 12.7578 9.18359 12.4609 9.33984L12.2305 9.45703L12.0039 9.33984C11.6953 9.17578 11.3984 9.17578 11.0937 9.33593Z" fill="currentColor"/>
<path d="M13.4453 14.8555C13.3398 14.9688 13.3359 15.1172 13.4336 15.2383C13.5 15.3203 13.5391 15.332 13.8086 15.332C14.0781 15.332 14.1172 15.3203 14.1836 15.2383C14.2813 15.1211 14.2773 14.9414 14.1797 14.8438C14.1172 14.7812 14.0508 14.7656 13.8164 14.7656C13.5664 14.7656 13.5195 14.7773 13.4453 14.8555Z" fill="currentColor"/>
<path d="M17.3711 16.6951C17.0117 16.824 16.7305 17.1209 16.6367 17.4803C16.5781 17.6912 16.6133 18.035 16.7149 18.2342C16.8281 18.4529 17.043 18.6639 17.2617 18.7654C17.4844 18.8631 17.9141 18.8709 18.1328 18.7772C18.3399 18.6912 18.6133 18.4217 18.7188 18.2108C18.8359 17.9647 18.8399 17.5584 18.7227 17.2967C18.4961 16.8006 17.8672 16.5193 17.3711 16.6951ZM17.9727 17.3162C18.25 17.4998 18.3086 17.8397 18.1016 18.0818C17.8125 18.4256 17.2461 18.2498 17.1992 17.8045C17.1563 17.3748 17.6211 17.0779 17.9727 17.3162Z" fill="currentColor"/>
</g>
<defs>
<clipPath id="clip0_620_103">
<rect width="20" height="20" fill="white"/>
</clipPath>
</defs>
</svg>
