<svg width="20" height="20" viewBox="0 0 20 20" fill="none" xmlns="http://www.w3.org/2000/svg">
<g clip-path="url(#clip0_246_7)">
<path d="M17.9167 7.49984V15.8332M4.58333 7.49984V15.8332M2.08333 7.49984V15.8332M15.4167 7.49984V15.8332M1.66667 17.4998H18.3333M0 19.5832H20M10 9.1665H9.16667C8.94565 9.1665 8.73369 9.2543 8.57741 9.41058C8.42113 9.56686 8.33333 9.77882 8.33333 9.99984V10.3123C8.33333 10.4926 8.39181 10.6681 8.5 10.8123C8.60818 10.9566 8.76024 11.0619 8.93333 11.1123L11.0667 11.7348C11.2398 11.7853 11.3918 11.8906 11.5 12.0348C11.6082 12.1791 11.6667 12.3545 11.6667 12.5348V13.3332C11.6667 13.5542 11.5789 13.7661 11.4226 13.9224C11.2663 14.0787 11.0543 14.1665 10.8333 14.1665H10M10 9.1665H10.8333C11.0543 9.1665 11.2663 9.2543 11.4226 9.41058C11.5789 9.56686 11.6667 9.77882 11.6667 9.99984V10.4165M10 9.1665V7.49984M10 14.1665H9.16667C8.94565 14.1665 8.73369 14.0787 8.57741 13.9224C8.42113 13.7661 8.33333 13.5542 8.33333 13.3332V12.9165M10 14.1665V15.8332M19.5833 5.20817V5.83317H0.416667V5.20817C4.58333 3.74984 7.08333 2.49984 9.79167 0.416504H10.2083C12.9167 2.49984 15.4167 3.74984 19.5833 5.20817Z" stroke="currentColor" stroke-width="0.833333"/>
</g>
<defs>
<clipPath id="clip0_246_7">
<rect width="20" height="20" fill="currentColor"/>
</clipPath>
</defs>
</svg>
