<svg width="20" height="20" viewBox="0 0 20 20" fill="none" xmlns="http://www.w3.org/2000/svg">
<g clip-path="url(#clip0_616_79)">
<path d="M4.39453 0.0390587C3.44141 0.191402 2.57813 0.660152 1.84766 1.41796C1.16406 2.1289 0.695313 3.04687 0.449219 4.14062C0.347656 4.59765 0.324219 5.82421 0.410156 6.33593C0.640625 7.71875 1.41406 9.00781 2.49219 9.8164L2.74219 10H1.48438H0.226563L0.109375 10.1211L-0.0117188 10.2383L0.0117188 10.7344C0.0390625 11.3086 0.125 11.6602 0.351563 12.1289C0.679688 12.8047 1.17969 13.3008 1.85547 13.6328C2.28906 13.8437 2.61328 13.9414 3.01563 13.9727C3.23047 13.9922 3.28125 14.0078 3.28125 14.0625C3.28125 14.0977 3.14063 15.3789 2.97266 16.9102C2.76563 18.7617 2.67188 19.7266 2.69531 19.7852C2.77734 20.0039 2.72656 20 5 20C7.27344 20 7.22266 20.0039 7.30469 19.7852C7.32813 19.7266 7.23438 18.7617 7.02734 16.9102C6.85938 15.3789 6.71875 14.0977 6.71875 14.0625C6.71875 14.0078 6.77344 13.9922 7.00391 13.9727C7.41016 13.9375 7.70313 13.8555 8.14453 13.6367C9.26953 13.082 9.93359 12.043 9.98828 10.7344L10.0117 10.2383L9.89063 10.1211L9.77344 10H8.51563H7.25781L7.49219 9.82812C8.375 9.17578 9.09375 8.13671 9.43359 7.01953C9.61719 6.41015 9.66016 6.03125 9.63672 5.19531C9.61328 4.36328 9.57031 4.10156 9.35156 3.4375C9.07422 2.60546 8.68359 1.96875 8.06641 1.34375C7.44922 0.718746 6.78125 0.328121 5.97266 0.12109C5.59766 0.0234337 4.77344 -0.0195351 4.39453 0.0390587ZM5.875 0.781246C6.94141 1.0625 7.85938 1.84375 8.42578 2.95312C8.80859 3.69921 8.98438 4.44921 8.98438 5.33203C8.98438 6.20312 8.83984 6.84765 8.48047 7.59765C7.90234 8.79687 6.9375 9.6289 5.79297 9.91015C5.51172 9.98046 4.64063 10.0039 4.44531 9.94921L4.33594 9.92187V9.05859V8.19921L4.43359 8.10546C4.51563 8.01953 4.5625 8.00781 4.81641 8.00781C5.16406 8.00781 5.28906 8.08203 5.33203 8.30859C5.36719 8.51171 5.44531 8.62109 5.57813 8.65234C5.86328 8.71484 6.05078 8.47265 5.97656 8.14062C5.91797 7.88281 5.84766 7.76562 5.64844 7.58984C5.42578 7.39453 5.25391 7.34375 4.80859 7.34375C4.28906 7.34375 4.01172 7.48046 3.80078 7.84375C3.69141 8.02734 3.69141 8.03515 3.67188 8.8789L3.65234 9.73437L3.38281 9.59375C2.25391 9.0039 1.41406 7.82421 1.10547 6.39453C1.00781 5.9414 1.00781 4.72265 1.10547 4.26953C1.41797 2.80859 2.28516 1.61718 3.46094 1.02343C3.68359 0.910152 4.19922 0.74609 4.47656 0.703121C4.82422 0.648434 5.51953 0.687496 5.875 0.781246ZM9.32031 10.9219C9.20703 12.0391 8.40625 12.9648 7.3125 13.2461C7.03906 13.3164 6.86719 13.3203 5 13.3203C3.11719 13.3203 2.96094 13.3164 2.67969 13.2422C2.11719 13.0977 1.5625 12.7383 1.23438 12.3008C1.13672 12.168 1.05469 12.0469 1.05469 12.0273C1.05469 12.0078 1.36719 11.9922 1.75781 11.9922C2.45703 11.9922 2.46484 11.9922 2.55859 11.8945C2.66406 11.7891 2.6875 11.5859 2.60547 11.4805C2.5 11.3437 2.39844 11.3281 1.57031 11.3281C0.632813 11.3281 0.734375 11.375 0.679688 10.9062L0.652344 10.6641H5H9.34766L9.32031 10.9219ZM6.3125 16.4844C6.46484 17.8477 6.59766 19.0469 6.60938 19.1484L6.63281 19.3359H4.99609H3.36328L3.37891 19.2266C3.39063 19.168 3.52344 17.9883 3.67578 16.6016C3.82422 15.2148 3.95703 14.0586 3.96484 14.0312C3.98047 13.9922 4.20703 13.9844 5.00781 13.9922L6.03516 14.0039L6.3125 16.4844Z" fill="currentColor"/>
<path d="M3.09766 2.43351C2.40234 3.12492 2.34375 3.19523 2.34375 3.32414C2.34375 3.54289 2.5625 3.71867 2.76172 3.65617C2.80078 3.64445 3.17188 3.29289 3.58594 2.87883C4.25 2.21086 4.33594 2.10929 4.33594 1.99601C4.33594 1.82023 4.1875 1.67961 3.99609 1.67961C3.85938 1.67961 3.80859 1.72258 3.09766 2.43351Z" fill="currentColor"/>
<path d="M3.97266 3.54297C2.94531 4.57031 2.07813 5.45703 2.04688 5.51562C1.96875 5.66406 1.97656 5.76172 2.08594 5.88281C2.15625 5.96484 2.21094 5.99219 2.32031 5.99219C2.46094 5.99219 2.54688 5.91016 4.39844 4.05859C6.50391 1.95312 6.44141 2.02734 6.24609 1.78125C6.18359 1.69922 6.13281 1.67969 6.00391 1.67969C5.84375 1.67969 5.83984 1.68359 3.97266 3.54297Z" fill="currentColor"/>
<path d="M3.51562 11.3789C3.30469 11.4844 3.27734 11.7656 3.46484 11.9141C3.54297 11.9766 3.625 11.9922 3.84375 11.9922C4.1289 11.9883 4.21094 11.957 4.28906 11.8086C4.36328 11.6719 4.34375 11.5625 4.22265 11.4414C4.12109 11.3398 4.08203 11.3281 3.85937 11.3281C3.72265 11.3281 3.57031 11.3516 3.51562 11.3789Z" fill="currentColor"/>
<path d="M11.7383 0.0546875C11.5781 0.128906 11.4141 0.3125 11.3672 0.472656C11.3125 0.652344 11.3164 8.67969 11.3672 8.86719C11.4102 9.02734 11.6055 9.23438 11.7695 9.29297C11.8437 9.32422 13.0937 9.33594 15.668 9.33594C18.7969 9.33594 19.4766 9.32812 19.582 9.28125C19.7344 9.21875 19.9023 9.04297 19.957 8.89453C19.9883 8.82031 20 7.48047 20 4.66406C20 1.25391 19.9922 0.523438 19.9453 0.417969C19.8828 0.265625 19.707 0.0976562 19.5586 0.0429688C19.4844 0.0117188 18.2422 0 15.6523 0C12.5664 0.00390625 11.832 0.0117188 11.7383 0.0546875ZM15.332 3.67188V6.66016L13.6641 6.67188L11.9922 6.67969V3.67188V0.664062L13.6641 0.671875L15.332 0.683594V3.67188ZM19.3359 3.67188V6.67969H17.6758H16.0156V3.67188V0.664062H17.6758H19.3359V3.67188ZM19.3359 8.00781V8.67188H15.6641H11.9922V8.00781V7.34375H15.6641H19.3359V8.00781Z" fill="currentColor"/>
<path d="M14.1758 3.37891C14.0625 3.44141 13.9727 3.63672 14.0117 3.74219C14.0234 3.77734 14.0703 3.84766 14.1133 3.89453C14.1836 3.97266 14.2305 3.98438 14.5 3.98438C14.7734 3.98438 14.8203 3.97266 14.9023 3.88672C15.0273 3.76562 15.0273 3.59375 14.9062 3.44922C14.8242 3.35547 14.7812 3.33984 14.5469 3.33203C14.3594 3.32422 14.2461 3.33594 14.1758 3.37891Z" fill="currentColor"/>
<path d="M16.5234 3.37109C16.3125 3.47656 16.2773 3.73828 16.4453 3.90625C16.5117 3.97266 16.5781 3.98438 16.8281 3.98438C17.1523 3.98438 17.2656 3.92969 17.3242 3.75C17.3633 3.62891 17.2734 3.44141 17.1445 3.37891C17.0117 3.30859 16.6562 3.30469 16.5234 3.37109Z" fill="currentColor"/>
<path d="M13.2109 10.4531C12.8711 10.6211 12.6992 10.9141 12.668 11.375L12.6445 11.6797H12.3203H11.9922V11.4453C11.9922 11.2461 11.9766 11.1914 11.8945 11.1133C11.8008 11.0156 11.6406 10.9883 11.5039 11.0391C11.4062 11.0781 11.3281 11.2695 11.3281 11.4844V11.6797H11.0937C10.8359 11.6797 10.7266 11.7461 10.6797 11.9414C10.6211 12.168 10.8242 12.3437 11.1445 12.3437H11.3281V12.5547C11.3281 12.8047 11.4297 12.9531 11.625 12.9922C11.7187 13.0078 11.7695 12.9922 11.8672 12.9101C11.9805 12.8125 11.9922 12.7851 11.9922 12.5742V12.3437H12.3242H12.6562V14.6992C12.6562 16.1172 12.6719 17.1055 12.6953 17.1836C12.7383 17.3359 12.8945 17.5195 13.0547 17.6016C13.2148 17.6836 16.125 17.6836 16.2852 17.5976C16.5312 17.4726 16.6797 17.1914 16.6797 16.8437V16.6797H17.043C17.582 16.6758 17.793 16.5781 17.9336 16.2695C18 16.125 18.0078 15.9726 18.0078 14.2266V12.3437H18.3398H18.6719V12.5625C18.6719 12.7539 18.6875 12.793 18.7891 12.8984C18.8906 12.9961 18.9297 13.0117 19.0352 12.9922C19.2344 12.9531 19.3359 12.8086 19.3359 12.5625V12.3516L19.5781 12.3359C19.7773 12.3203 19.832 12.3008 19.9102 12.2109C20.0273 12.0703 20.0273 11.8984 19.9023 11.7773C19.8242 11.6953 19.7695 11.6797 19.5781 11.6797H19.3437L19.3281 11.4219C19.3164 11.207 19.2969 11.1484 19.2227 11.0898C19.0937 10.9844 18.8867 10.9961 18.7695 11.1133C18.6875 11.1914 18.6719 11.2461 18.6719 11.4453V11.6797H18.3398H18.0078V11.4531C18.0078 10.9961 17.8125 10.6406 17.4648 10.4609L17.2578 10.3516H15.3359H13.4141L13.2109 10.4531ZM16.0391 11.0781C16.0273 11.1133 16.0156 12.457 16.0156 14.0664V16.9922H14.668H13.3203L13.3281 14.1055L13.3398 11.2187L13.4336 11.1172L13.5273 11.0156H14.7969C15.9336 11.0156 16.0625 11.0234 16.0391 11.0781ZM17.2266 11.0937C17.3203 11.1875 17.3516 11.3086 17.3359 11.5078L17.3242 11.6601L17.0039 11.6719L16.6797 11.6836V11.4531C16.6797 11.1445 16.7734 11.0156 16.9961 11.0156C17.0937 11.0156 17.1758 11.043 17.2266 11.0937ZM17.3359 14.168L17.3242 15.9961L17.0039 16.0078L16.6797 16.0195V14.1797V12.3437H17.0117H17.3437L17.3359 14.168Z" fill="currentColor"/>
</g>
<defs>
<clipPath id="clip0_616_79">
<rect width="20" height="20" fill="currentColor"/>
</clipPath>
</defs>
</svg>
