<svg width="20" height="20" viewBox="0 0 20 20" fill="none" xmlns="http://www.w3.org/2000/svg">
<path d="M17.1833 5.88329C16.975 5.39031 16.6721 4.94298 16.2916 4.56663C15.9125 4.17961 15.4589 3.87344 14.9583 3.66663C14.653 3.54109 14.3342 3.4516 14.0083 3.39996V2.29163C14.0083 2.12587 13.9424 1.96689 13.8252 1.84968C13.708 1.73247 13.549 1.66663 13.3833 1.66663C13.2175 1.66663 13.0585 1.73247 12.9413 1.84968C12.8241 1.96689 12.7583 2.12587 12.7583 2.29163V3.34996H7.24992V2.29163C7.24992 2.12587 7.18407 1.96689 7.06686 1.84968C6.94965 1.73247 6.79068 1.66663 6.62492 1.66663C6.45916 1.66663 6.30019 1.73247 6.18298 1.84968C6.06577 1.96689 5.99992 2.12587 5.99992 2.29163V3.39996C5.13721 3.52727 4.33899 3.93076 3.72492 4.54996C3.34314 4.93003 3.04051 5.38202 2.83453 5.8798C2.62856 6.37758 2.52332 6.91125 2.52492 7.44996V14.2C2.52358 14.7428 2.62832 15.2806 2.83325 15.7833C3.03411 16.2831 3.33467 16.7368 3.71659 17.1166C4.09492 17.5033 4.54825 17.81 5.04992 18.0166C5.54825 18.2258 6.08325 18.3333 6.62492 18.3333H13.3833C14.4685 18.3289 15.508 17.8953 16.2746 17.1271C17.0412 16.3589 17.4727 15.3186 17.4749 14.2333V7.47496C17.4885 6.92996 17.3892 6.38805 17.1833 5.88329ZM13.8499 13.875H6.20825C6.04249 13.875 5.88352 13.8091 5.76631 13.6919C5.6491 13.5747 5.58325 13.4157 5.58325 13.25C5.58325 13.0842 5.6491 12.9252 5.76631 12.808C5.88352 12.6908 6.04249 12.625 6.20825 12.625H13.7916C13.9573 12.625 14.1163 12.6908 14.2335 12.808C14.3507 12.9252 14.4166 13.0842 14.4166 13.25C14.4166 13.4157 14.3507 13.5747 14.2335 13.6919C14.1163 13.8091 13.9573 13.875 13.7916 13.875H13.8499ZM13.8499 9.64996H6.20825C6.04249 9.64996 5.88352 9.58411 5.76631 9.4669C5.6491 9.34969 5.58325 9.19072 5.58325 9.02496C5.58325 8.8592 5.6491 8.70023 5.76631 8.58302C5.88352 8.46581 6.04249 8.39996 6.20825 8.39996H13.7916C13.9573 8.39996 14.1163 8.46581 14.2335 8.58302C14.3507 8.70023 14.4166 8.8592 14.4166 9.02496C14.4166 9.19072 14.3507 9.34969 14.2335 9.4669C14.1163 9.58411 13.9573 9.64996 13.7916 9.64996H13.8499Z" fill="#333333"/>
</svg>
