<svg width="20" height="20" viewBox="0 0 20 20" fill="none" xmlns="http://www.w3.org/2000/svg">
<g clip-path="url(#clip0_620_117)">
<path d="M8.51562 1.19515C3.99609 1.40218 1.21875 1.96468 0.316406 2.85921C0.0078125 3.1639 0 3.18734 0 4.46859C0 5.24984 0.015625 5.64437 0.046875 5.75765C0.09375 5.9139 0.375 6.23812 0.582031 6.37874C0.65625 6.42952 0.675781 6.48812 0.707031 6.76156C0.753906 7.1639 0.84375 7.56234 0.960938 7.89046C1.02734 8.08187 1.21875 9.28499 1.69922 12.5545L2.34766 16.9647L2.50781 17.1717C2.86719 17.6483 3.59375 18.0076 4.77344 18.2967C7.75391 19.0233 12.5312 19.0076 15.3828 18.2616C16.4805 17.9725 17.1523 17.6248 17.5 17.1639L17.6523 16.9608L18.3008 12.5545C18.7812 9.27718 18.9727 8.08187 19.0391 7.89046C19.1602 7.55843 19.2461 7.1639 19.293 6.75765C19.3203 6.50765 19.3438 6.42562 19.4023 6.39437C19.5664 6.30843 19.9062 5.9139 19.9531 5.75765C19.9844 5.64437 20 5.24593 20 4.46859C20 3.46078 19.9922 3.32406 19.9258 3.18343C19.4883 2.22249 17.0234 1.55453 12.8711 1.26546C12.0703 1.21078 9.17969 1.1639 8.51562 1.19515ZM11.7969 1.87484C15.3125 2.02328 18.2734 2.58187 19.168 3.26546C19.4609 3.48812 19.3359 3.70296 18.7461 3.98421L18.3945 4.15218L17.957 4.03109C15.9336 3.46078 13.3164 3.18734 9.98047 3.18734C6.66406 3.18734 4.07031 3.46468 2.04297 4.03109L1.60547 4.15218L1.25391 3.98421C0.507812 3.62874 0.492188 3.39828 1.19141 3.05453C2.91406 2.20296 7.49609 1.69124 11.7969 1.87484ZM11.875 3.86703C12.8711 3.9139 13.8477 3.99593 14.707 4.10531C15.3945 4.19124 16.918 4.44124 17.0391 4.48812C17.1914 4.54281 15.0391 4.88656 13.75 5.01546C12.6016 5.12874 11.8516 5.15999 10 5.15999C7.74219 5.15999 6.69531 5.09749 5.07812 4.87874C4.59766 4.81234 3.48828 4.62874 3.00781 4.53109L2.87109 4.50765L3.08594 4.46078C4.34375 4.19515 6.41016 3.94515 7.98828 3.87093C8.97266 3.82406 10.918 3.82406 11.875 3.86703ZM0.988281 4.59359C2.98438 5.6014 8.70312 6.08968 13.6523 5.68343C16.1094 5.48031 18.0117 5.09359 19.0352 4.58578C19.1836 4.51156 19.3125 4.45296 19.3203 4.45296C19.3281 4.45296 19.3359 4.70296 19.3359 5.00765V5.55843L19.1797 5.70687C18.6484 6.21077 16.7539 6.70296 14.3633 6.95296C10.7227 7.33187 6.25391 7.19515 3.37109 6.61702C2.08594 6.35921 1.15625 6.02718 0.820312 5.70687L0.664062 5.55843V5.00765C0.664062 4.70296 0.671875 4.45296 0.683594 4.45296C0.695312 4.45296 0.832031 4.51546 0.988281 4.59359ZM1.94922 6.95296C2.67969 7.18343 3.96094 7.42562 5.25391 7.57796C9.64453 8.08968 15.3711 7.80452 18.1172 6.93343C18.2969 6.87484 18.4492 6.83577 18.457 6.84359C18.4609 6.8514 18.4297 7.10921 18.3828 7.42171C18.293 8.00765 18.25 8.12874 17.9766 8.55452C17.7695 8.88265 17.3555 9.35531 17.0508 9.61702C16.375 10.1951 15.2812 10.8006 14.3203 11.1287L13.8555 11.2889L13.6836 11.1287C13.3477 10.8201 13.6094 10.8397 10 10.8397C6.39062 10.8397 6.65234 10.8201 6.31641 11.1287L6.14062 11.2889L5.75781 11.1561C5.21484 10.9725 5.00391 10.8826 4.53125 10.6483C3.41406 10.0897 2.63672 9.45687 2.11328 8.66781C1.74609 8.12484 1.70312 8.01156 1.625 7.46077C1.58594 7.19124 1.54688 6.94124 1.53906 6.90218C1.51172 6.81624 1.51562 6.81624 1.94922 6.95296ZM2.58984 10.1795C3.39062 10.8553 4.42188 11.4139 5.56641 11.7967L5.99219 11.9412L6.05469 12.1287C6.13672 12.3748 6.375 12.6444 6.59766 12.7498C6.77734 12.8319 6.80469 12.8319 10 12.8319C13.1953 12.8319 13.2227 12.8319 13.4023 12.7498C13.625 12.6444 13.8633 12.3748 13.9453 12.1287L14.0078 11.9412L14.5312 11.7616C15.8359 11.3084 16.8945 10.6951 17.6953 9.92562C17.8906 9.74202 18.0469 9.61312 18.0469 9.64046C18.0469 9.8514 17.0195 16.6483 16.9727 16.7459C16.7227 17.2967 14.8398 17.8397 12.3516 18.0741C11.4766 18.16 8.69922 18.1717 7.87109 18.0936C5.1875 17.8475 3.28906 17.3201 3.02734 16.7459C2.97656 16.6405 1.95312 9.83968 1.95312 9.62484C1.95312 9.57796 1.99219 9.6014 2.08984 9.71859C2.16797 9.80452 2.39062 10.0155 2.58984 10.1795ZM13.2305 11.6092C13.3594 11.7303 13.3516 11.9491 13.2188 12.0741L13.1172 12.1678H10H6.88281L6.78125 12.0741C6.65234 11.953 6.64453 11.742 6.76562 11.6131L6.84766 11.5233H9.99609H13.1406L13.2305 11.6092Z" fill="currentColor"/>
<path d="M3.21485 11.625C3.1211 11.7188 3.11719 11.7383 3.14453 12.0039C3.1836 12.4336 3.26172 12.5391 3.53125 12.5391C3.71485 12.5391 3.82813 12.4023 3.82813 12.1836C3.82422 11.8945 3.76563 11.668 3.67188 11.5938C3.54297 11.4883 3.33594 11.5039 3.21485 11.625Z" fill="currentColor"/>
<path d="M3.55468 13.3707C3.5039 13.3981 3.43359 13.4645 3.40234 13.5231C3.35156 13.6129 3.35937 13.7496 3.50781 14.9449C3.68359 16.3551 3.70312 16.4293 3.91406 16.4879C4.03906 16.5192 4.23828 16.4371 4.29687 16.3278C4.33593 16.2574 4.3125 15.9762 4.17578 14.8903C4.03125 13.7262 3.99609 13.527 3.92968 13.4528C3.82421 13.3395 3.67968 13.3043 3.55468 13.3707Z" fill="currentColor"/>
</g>
<defs>
<clipPath id="clip0_620_117">
<rect width="20" height="20" fill="white"/>
</clipPath>
</defs>
</svg>
