<svg width="20" height="20" viewBox="0 0 20 20" fill="none" xmlns="http://www.w3.org/2000/svg">
<path d="M3.75 3.75C2.72188 3.75 1.875 4.59688 1.875 5.625V9.8625C1.49375 10.2075 1.25 10.7012 1.25 11.25V16.875H4.375V15.625H15.625V16.875H18.75V11.25C18.75 10.7012 18.5063 10.2075 18.125 9.8625V5.625C18.125 4.59688 17.2781 3.75 16.25 3.75H3.75ZM3.75 5H16.25C16.5969 5 16.875 5.27812 16.875 5.625V9.375H15.625V8.75C15.625 7.72188 14.7781 6.875 13.75 6.875H11.25C10.7706 6.875 10.3331 7.0625 10 7.3625C9.6582 7.05061 9.2127 6.87687 8.75 6.875H6.25C5.22188 6.875 4.375 7.72188 4.375 8.75V9.375H3.125V5.625C3.125 5.27812 3.40312 5 3.75 5ZM6.25 8.125H8.75C9.09688 8.125 9.375 8.40312 9.375 8.75V9.375H5.625V8.75C5.625 8.40312 5.90312 8.125 6.25 8.125ZM11.25 8.125H13.75C14.0969 8.125 14.375 8.40312 14.375 8.75V9.375H10.625V8.75C10.625 8.40312 10.9031 8.125 11.25 8.125ZM3.125 10.625H16.875C17.2219 10.625 17.5 10.9031 17.5 11.25V15.625H16.875V14.375H3.125V15.625H2.5V11.25C2.5 10.9031 2.77812 10.625 3.125 10.625Z" fill="currentColor"/>
</svg>
