<svg width="20" height="20" viewBox="0 0 20 20" fill="none" xmlns="http://www.w3.org/2000/svg">
<path d="M15.522 5.02183C15.3896 4.53662 15.1012 4.10845 14.7014 3.80334C14.3015 3.49823 13.8124 3.33313 13.3095 3.3335H9.28449C8.886 3.33352 8.49441 3.43745 8.14835 3.63503C7.80229 3.83261 7.51374 4.11701 7.31116 4.46016L5.22116 7.9985L3.40283 8.4535C2.907 8.57746 2.46684 8.86361 2.15232 9.26646C1.8378 9.66931 1.66697 10.1657 1.66699 10.6768V12.0835C1.66684 12.5194 1.79103 12.9464 2.02498 13.3142C2.25893 13.682 2.59295 13.9755 2.98783 14.1602C3.12307 14.7362 3.44321 15.2522 3.89933 15.6292C4.35544 16.0062 4.92245 16.2235 5.51369 16.2478C6.10493 16.2722 6.68789 16.1023 7.17349 15.7642C7.65909 15.426 8.02062 14.9382 8.20283 14.3752H12.2145C12.4054 14.9616 12.7906 15.4653 13.3064 15.8032C13.8223 16.1411 14.4379 16.293 15.0517 16.2338C15.6656 16.1745 16.2408 15.9077 16.6825 15.4774C17.1242 15.047 17.4059 14.4789 17.4812 13.8668C17.7473 13.652 17.962 13.3804 18.1096 13.0718C18.2571 12.7632 18.3336 12.4255 18.3337 12.0835V10.2085C18.3336 9.6481 18.1282 9.10715 17.7563 8.68794C17.3843 8.26874 16.8717 8.00034 16.3153 7.9335L15.522 5.02183ZM8.30199 13.1252C8.20972 12.5295 7.92137 11.9816 7.48259 11.5683C7.04382 11.155 6.4797 10.8999 5.87957 10.8433C5.27945 10.7868 4.67761 10.9321 4.16937 11.2562C3.66113 11.5803 3.27554 12.0647 3.07366 12.6327C2.97089 12.468 2.91659 12.2776 2.91699 12.0835V10.6768C2.91699 10.1985 3.24199 9.78183 3.70616 9.666L5.70366 9.16683H16.042C16.617 9.16683 17.0837 9.6335 17.0837 10.2085V12.0977C16.7897 11.6307 16.3602 11.2647 15.8526 11.0486C15.345 10.8325 14.7834 10.7765 14.2431 10.8883C13.7028 11 13.2095 11.2741 12.8293 11.6738C12.449 12.0736 12.1999 12.58 12.1153 13.1252H8.30199ZM10.8337 7.91683H6.72199L8.38866 5.09516C8.48077 4.93931 8.61191 4.81016 8.76915 4.72043C8.92638 4.63071 9.10429 4.58351 9.28533 4.5835H10.8337V7.91683ZM12.0837 4.5835H13.3103C13.5388 4.58348 13.761 4.65861 13.9426 4.7973C14.1242 4.93599 14.2552 5.13055 14.3153 5.351L15.0153 7.91683H12.0837V4.5835ZM14.792 12.0835C15.1788 12.0835 15.5497 12.2371 15.8232 12.5106C16.0967 12.7841 16.2503 13.1551 16.2503 13.5418C16.2503 13.9286 16.0967 14.2995 15.8232 14.573C15.5497 14.8465 15.1788 15.0002 14.792 15.0002C14.4052 15.0002 14.0343 14.8465 13.7608 14.573C13.4873 14.2995 13.3337 13.9286 13.3337 13.5418C13.3337 13.1551 13.4873 12.7841 13.7608 12.5106C14.0343 12.2371 14.4052 12.0835 14.792 12.0835ZM7.08366 13.5418C7.08366 13.9286 6.93001 14.2995 6.65652 14.573C6.38303 14.8465 6.0121 15.0002 5.62533 15.0002C5.23855 15.0002 4.86762 14.8465 4.59413 14.573C4.32064 14.2995 4.16699 13.9286 4.16699 13.5418C4.16699 13.1551 4.32064 12.7841 4.59413 12.5106C4.86762 12.2371 5.23855 12.0835 5.62533 12.0835C6.0121 12.0835 6.38303 12.2371 6.65652 12.5106C6.93001 12.7841 7.08366 13.1551 7.08366 13.5418Z" fill="#333333"/>
</svg>
