<svg width="20" height="20" viewBox="0 0 20 20" fill="none" xmlns="http://www.w3.org/2000/svg">
<path d="M7.11168 2.02189C6.78574 2.09919 6.55127 2.31691 6.44692 2.63899C6.42115 2.71886 6.41729 2.76267 6.41213 3.01389L6.40698 3.29989L6.35931 3.30762C6.2176 3.32952 6.05399 3.46479 5.98055 3.62068L5.93933 3.70828L5.93546 3.98269C5.9316 4.23133 5.93288 4.26483 5.95736 4.34471C6.01018 4.51734 6.15576 4.66163 6.33097 4.71445L6.40956 4.73764L6.40698 5.14217L6.40312 5.54669L6.33226 5.5686C6.17509 5.61755 6.05141 5.72577 5.98055 5.8765L5.93933 5.96282L5.93546 6.23723C5.9316 6.48587 5.93417 6.52065 5.95736 6.60053C6.01018 6.77187 6.16349 6.92261 6.33355 6.97027L6.40827 6.99089L6.41213 8.02926L6.416 9.06764L6.45207 9.16812C6.49845 9.29953 6.52293 9.3472 6.59636 9.44382C6.65434 9.52241 6.77028 9.6229 6.86304 9.677C6.8901 9.69118 7.28947 9.86639 7.75197 10.0648C8.21447 10.2619 8.6087 10.432 8.62931 10.441L8.66409 10.4564V10.8996V11.3415H8.11656C7.50591 11.3415 7.51364 11.3402 7.4402 11.4278C7.40542 11.469 7.37192 11.5554 7.26113 11.8903L7.12457 12.3013L6.64145 12.309C6.22533 12.3142 6.14803 12.3193 6.08748 12.3386C5.84399 12.4185 5.6443 12.586 5.54253 12.7986C5.43689 13.0163 5.44333 12.872 5.44333 15.0763V17.0332L5.02205 17.0397C4.56599 17.0461 4.53765 17.0487 4.39078 17.1208C4.28901 17.1711 4.13183 17.3283 4.0803 17.43C3.86644 17.8552 4.09834 18.3641 4.55569 18.4723C4.62912 18.489 5.23462 18.4916 9.8751 18.4916C15.6532 18.4916 15.1842 18.498 15.362 18.4104C15.5346 18.3267 15.697 18.1167 15.7356 17.9273C15.7691 17.7663 15.7446 17.5769 15.6712 17.4313C15.6184 17.3283 15.4625 17.1724 15.3594 17.1208C15.2126 17.0487 15.1842 17.0461 14.7294 17.0397L14.3069 17.0332V15.0763C14.3069 12.872 14.3133 13.0163 14.2077 12.7986C14.1059 12.586 13.9062 12.4185 13.6627 12.3386C13.6022 12.3193 13.5249 12.3142 13.1087 12.309L12.6256 12.3013L12.4891 11.8903C12.3783 11.5554 12.3448 11.469 12.31 11.4278C12.2366 11.3402 12.2443 11.3415 11.6336 11.3415H11.0861V10.8996V10.4564L11.1222 10.441C11.1415 10.432 11.5357 10.2619 11.9969 10.0648C12.4594 9.86639 12.8601 9.69246 12.8859 9.677C12.9799 9.6229 13.0946 9.5237 13.1538 9.44382C13.2273 9.3472 13.2517 9.29953 13.2981 9.16812L13.3342 9.06764L13.3381 8.02926L13.3419 6.99089L13.4167 6.97027C13.5867 6.92261 13.74 6.77187 13.7928 6.60053C13.816 6.52065 13.8186 6.48587 13.8147 6.23723L13.8109 5.96282L13.7696 5.8765C13.6988 5.72577 13.5751 5.61755 13.4179 5.5686L13.3471 5.54669L13.3432 5.14217L13.3406 4.73764L13.4192 4.71445C13.5944 4.66163 13.74 4.51734 13.7928 4.34471C13.8173 4.26483 13.8186 4.23133 13.8147 3.98269L13.8109 3.70828L13.7696 3.62068C13.6962 3.46479 13.5326 3.32952 13.3909 3.30762L13.3432 3.29989L13.3381 3.01389C13.3329 2.76267 13.329 2.71886 13.3033 2.63899C13.1976 2.31305 12.9632 2.0979 12.6321 2.0206C12.5097 1.99226 7.2315 1.99355 7.11168 2.02189ZM12.6269 2.52562C12.6978 2.56298 12.7789 2.64801 12.815 2.72015C12.8421 2.77555 12.8446 2.80003 12.8485 3.0345L12.8537 3.28958H9.8751H6.89654L6.90169 3.0345C6.90556 2.80003 6.90813 2.77555 6.93519 2.72015C6.98414 2.62095 7.08463 2.53335 7.18254 2.50243C7.20058 2.49728 8.4206 2.49341 9.89442 2.4947L12.5741 2.49728L12.6269 2.52562ZM13.3149 3.80491C13.3381 3.8281 13.3406 3.84742 13.3406 4.00975C13.3406 4.17078 13.3381 4.1914 13.3136 4.22232L13.2878 4.25581H9.8751H6.46238L6.43661 4.22232C6.41213 4.1914 6.40956 4.17078 6.40956 4.00975C6.40956 3.84742 6.41213 3.8281 6.43532 3.80491C6.46109 3.77914 6.47784 3.77914 9.8751 3.77914C13.2724 3.77914 13.2891 3.77914 13.3149 3.80491ZM12.8511 5.14474V5.54412H9.8751H6.89911V5.14474V4.74537H9.8751H12.8511V5.14474ZM13.3097 6.05171C13.3316 6.06846 13.3342 6.08907 13.3381 6.25784C13.3419 6.44336 13.3419 6.44593 13.3097 6.47814L13.2775 6.51035H9.8751H6.47268L6.44048 6.47814C6.40827 6.44593 6.40827 6.44336 6.41213 6.25784C6.416 6.08907 6.41858 6.06846 6.44048 6.05171C6.47913 6.02466 13.2711 6.02466 13.3097 6.05171ZM12.8485 8.00736L12.8446 9.0161L12.806 9.08567C12.7313 9.22094 12.739 9.21708 11.7225 9.65253L10.7872 10.0532H9.8751H8.96298L8.02767 9.65253C7.0112 9.21708 7.01893 9.22094 6.9442 9.08567L6.90556 9.0161L6.90169 8.00736L6.89783 6.9999H9.8751H12.8524L12.8485 8.00736ZM10.5966 10.9421V11.3415H9.8751H9.15365V10.9421V10.5427H9.8751H10.5966V10.9421ZM12.0356 12.0694L12.1142 12.3077H9.8751H7.63602L7.71461 12.0694L7.79449 11.8311H9.8751H11.9557L12.0356 12.0694ZM13.5957 12.8334C13.6704 12.8733 13.7426 12.9467 13.78 13.024L13.8109 13.0872L13.8147 15.0608L13.8173 17.0358H13.4179H13.0186V15.419C13.0186 13.6347 13.0237 13.7519 12.9374 13.663C12.9155 13.6398 12.8769 13.6154 12.8511 13.6089C12.7892 13.5909 6.96095 13.5909 6.89911 13.6089C6.87335 13.6154 6.8347 13.6398 6.8128 13.663C6.72648 13.7519 6.73163 13.6347 6.73163 15.419V17.0358H6.33226H5.93288V15.0866C5.93288 13.4775 5.93546 13.1258 5.95092 13.0781C5.98571 12.9596 6.08362 12.8578 6.19956 12.8153C6.24079 12.8011 6.84887 12.7986 9.89442 12.8011L13.5403 12.8037L13.5957 12.8334ZM8.88311 14.0907C8.88311 14.1126 9.16653 15.2219 9.17813 15.2412C9.20132 15.285 9.27861 15.3456 9.33015 15.3597C9.39585 15.379 10.3544 15.379 10.4201 15.3597C10.4716 15.3456 10.5489 15.285 10.5721 15.2412C10.5837 15.2219 10.8671 14.1126 10.8671 14.0907C10.8671 14.0882 11.2407 14.0856 11.6981 14.0856H12.529V15.5607V17.0358H12.1296H11.7303V16.6648C11.7303 16.4355 11.7251 16.2757 11.7161 16.2435C11.6955 16.1688 11.6195 16.1018 11.537 16.0837C11.4443 16.0644 8.30594 16.0644 8.21319 16.0837C8.13073 16.1018 8.05472 16.1688 8.03411 16.2435C8.02509 16.2757 8.01994 16.4355 8.01994 16.6648V17.0358H7.62057H7.22119V15.5607V14.0856H8.05215C8.5095 14.0856 8.88311 14.0882 8.88311 14.0907ZM10.3647 14.092C10.3647 14.0959 10.3209 14.275 10.2667 14.4914L10.1688 14.8843H9.8751H9.58137L9.48346 14.4914C9.42935 14.275 9.38554 14.0959 9.38554 14.092C9.38554 14.0882 9.60584 14.0856 9.8751 14.0856C10.1444 14.0856 10.3647 14.0882 10.3647 14.092ZM11.2407 16.7975V17.0358H9.8751H8.5095V16.7975V16.5591H9.8751H11.2407V16.7975ZM15.0966 17.5395C15.21 17.5705 15.2898 17.7109 15.2602 17.823C15.2435 17.8848 15.1791 17.9608 15.1224 17.984C15.0605 18.0111 4.68967 18.0111 4.62783 17.984C4.57115 17.9608 4.50673 17.8848 4.48998 17.823C4.46035 17.7135 4.54023 17.5705 4.64716 17.5395C4.70899 17.5215 15.0322 17.5215 15.0966 17.5395Z" fill="currentColor"/>
<path d="M8.74397 7.81763C8.2776 7.92972 8.0457 8.44761 8.27373 8.8676C8.36005 9.02864 8.5198 9.16134 8.69501 9.21416C8.78133 9.24121 8.80194 9.24121 9.8751 9.24121C10.9483 9.24121 10.9689 9.24121 11.0552 9.21416C11.2884 9.1433 11.4829 8.93975 11.5422 8.70528C11.5679 8.60608 11.5679 8.43215 11.5435 8.3394C11.4739 8.07529 11.2549 7.86917 10.9856 7.81248C10.8813 7.79058 8.83544 7.79444 8.74397 7.81763ZM10.8967 8.29302C11.0268 8.3278 11.1029 8.45406 11.0706 8.58289C11.0526 8.65503 10.9805 8.73104 10.9122 8.75037C10.8761 8.75938 10.5553 8.76454 9.8751 8.76454C9.19487 8.76454 8.87409 8.75938 8.83801 8.75037C8.76973 8.73104 8.69759 8.65503 8.67955 8.58289C8.64734 8.45406 8.72335 8.3278 8.85347 8.29302C8.94365 8.26983 10.8065 8.26983 10.8967 8.29302Z" fill="currentColor"/>
</svg>
