<svg width="20" height="20" viewBox="0 0 20 20" fill="none" xmlns="http://www.w3.org/2000/svg">
<path d="M9.45312 0.652344C8.34766 0.769531 7.30078 1.28125 6.48047 2.10547C5.77344 2.8125 5.35547 3.5625 5.10547 4.57031C5.03125 4.88672 5.02344 5.02734 5.01172 7.44922L4.99609 10H4.46484C4.16406 10 3.86719 10.0195 3.77344 10.0469C3.55859 10.1094 3.23438 10.4336 3.17188 10.6484C3.10938 10.8633 3.10938 12.2578 3.17188 12.4688C3.22656 12.6562 3.46875 12.9414 3.63281 13.0078L3.75 13.0547V16.1211V19.1836L3.84766 19.2773C3.94141 19.375 3.94922 19.375 4.6875 19.375C5.42578 19.375 5.43359 19.375 5.52734 19.2773L5.625 19.1836V16.1523V13.125H10H14.375V16.1523V19.1836L14.4727 19.2773C14.5664 19.375 14.5742 19.375 15.3125 19.375C16.0508 19.375 16.0586 19.375 16.1523 19.2773L16.25 19.1836V16.1211V13.0547L16.3672 13.0078C16.5312 12.9414 16.7734 12.6562 16.8281 12.4688C16.8906 12.2617 16.8906 10.8633 16.8281 10.6562C16.8047 10.5703 16.707 10.4141 16.6133 10.3125C16.375 10.0469 16.2148 10 15.5391 10H15V7.65234C15 5.03125 14.9844 4.80469 14.7461 4.08203C14.4922 3.30078 14.1211 2.70703 13.5195 2.10547C12.7344 1.31641 11.8008 0.84375 10.7383 0.6875C10.3594 0.628906 9.79688 0.617188 9.45312 0.652344ZM10.8867 1.34375C12.3945 1.67188 13.6328 2.76172 14.1289 4.19922C14.3516 4.85156 14.3477 4.78516 14.3633 7.48828L14.3789 10H14.0664H13.7539L13.7422 7.50781C13.7266 5.10156 13.7266 5.00781 13.6445 4.72266C13.1445 2.94141 11.6016 1.79688 9.82422 1.88672C8.0625 1.97656 6.60938 3.25781 6.30859 4.98828C6.26172 5.25781 6.25 5.76172 6.25 7.66016V10H5.9375H5.625V7.66406C5.625 6.33203 5.64453 5.21484 5.66406 5.05859C5.80469 4.08984 6.22656 3.22656 6.89844 2.55469C7.57031 1.87891 8.43359 1.44141 9.39453 1.28906C9.71484 1.24219 10.5469 1.26953 10.8867 1.34375ZM10.7422 2.58984C11.5586 2.8125 12.1797 3.25781 12.6172 3.93359C12.8047 4.21875 12.9141 4.46094 13.0391 4.88281C13.0938 5.07031 13.1055 5.41406 13.1172 7.54688L13.1289 10H10H6.875V7.67969C6.875 5.83984 6.88672 5.30078 6.92969 5.07031C7.17969 3.77734 8.11328 2.83203 9.41406 2.55469C9.72656 2.48828 10.4375 2.50781 10.7422 2.58984ZM9.6875 11.5625V12.5H6.81641H3.94141L3.84766 12.4023C3.75 12.3086 3.75 12.3008 3.75 11.5625C3.75 10.8242 3.75 10.8164 3.84766 10.7227L3.94141 10.625H6.81641H9.6875V11.5625ZM16.1523 10.7227C16.25 10.8164 16.25 10.8242 16.25 11.5625C16.25 12.3008 16.25 12.3086 16.1523 12.4023L16.0586 12.5H13.1836H10.3125V11.5625V10.625H13.1836H16.0586L16.1523 10.7227ZM5 15.9375V18.75H4.6875H4.375V15.9375V13.125H4.6875H5V15.9375ZM15.625 15.9375V18.75H15.3125H15V15.9375V13.125H15.3125H15.625V15.9375Z" fill="currentColor"/>
<path d="M8.83984 5.08984C8.20312 5.72266 8.125 5.81641 8.125 5.92969C8.125 6.10156 8.27344 6.25 8.44141 6.25C8.55469 6.25 8.65234 6.16797 9.26562 5.55469C9.64844 5.17578 9.97266 4.82422 9.98828 4.77344C10.0352 4.57812 9.85937 4.375 9.63672 4.375C9.57812 4.375 9.32812 4.60156 8.83984 5.08984Z" fill="currentColor"/>
<path d="M9.77734 6.02734C8.5625 7.24219 8.4375 7.375 8.4375 7.49219C8.4375 7.66406 8.58594 7.8125 8.75781 7.8125C8.875 7.8125 9.00781 7.6875 10.2227 6.47266C11.4375 5.25781 11.5625 5.125 11.5625 5.00781C11.5625 4.92188 11.5312 4.84766 11.4648 4.78516C11.4023 4.71875 11.3281 4.6875 11.2422 4.6875C11.125 4.6875 10.9922 4.8125 9.77734 6.02734Z" fill="currentColor"/>
<path d="M10.7148 6.96484C10.0781 7.59766 10 7.69141 10 7.80469C10 7.89062 10.0352 7.96484 10.0977 8.02734C10.1602 8.08984 10.2344 8.125 10.3203 8.125C10.4336 8.125 10.5273 8.04688 11.1602 7.41016C11.7969 6.77734 11.875 6.68359 11.875 6.57031C11.875 6.48438 11.8398 6.41016 11.7773 6.34766C11.7148 6.28516 11.6406 6.25 11.5547 6.25C11.4414 6.25 11.3477 6.32812 10.7148 6.96484Z" fill="currentColor"/>
<path d="M5.72266 11.3477C5.66016 11.4062 5.625 11.4883 5.625 11.5625C5.625 11.6367 5.66016 11.7188 5.72266 11.7773L5.81641 11.875H6.71875H7.62109L7.71484 11.7773C7.77734 11.7188 7.8125 11.6367 7.8125 11.5625C7.8125 11.4883 7.77734 11.4062 7.71484 11.3477L7.62109 11.25H6.71875H5.81641L5.72266 11.3477Z" fill="currentColor"/>
<path d="M12.2852 11.3477C12.2227 11.4062 12.1875 11.4883 12.1875 11.5625C12.1875 11.6367 12.2227 11.7188 12.2852 11.7773L12.3789 11.875H13.2812H14.1836L14.2773 11.7773C14.3398 11.7188 14.375 11.6367 14.375 11.5625C14.375 11.4883 14.3398 11.4062 14.2773 11.3477L14.1836 11.25H13.2812H12.3789L12.2852 11.3477Z" fill="currentColor"/>
<path d="M7.82813 14.4102C7.64063 14.457 7.3086 14.6523 7.20313 14.7773C7.14844 14.8438 7.0586 14.9844 7 15.0938C6.90625 15.2773 6.89453 15.3398 6.88282 15.8281C6.86719 16.3594 6.86719 16.3633 6.96875 16.4648C7.05078 16.5469 7.10157 16.5625 7.28516 16.5625H7.5V17.8711V19.1836L7.59766 19.2773C7.69141 19.375 7.69922 19.375 8.4375 19.375C9.17578 19.375 9.1836 19.375 9.27735 19.2773L9.375 19.1836V17.8711V16.5625H10H10.625V17.8711V19.1836L10.7227 19.2773C10.8164 19.375 10.8242 19.375 11.5625 19.375C12.3008 19.375 12.3086 19.375 12.4023 19.2773L12.5 19.1836V17.8711V16.5625H12.7148C12.8984 16.5625 12.9492 16.5469 13.0352 16.4609C13.1328 16.3633 13.1328 16.3594 13.1172 15.8281C13.1016 15.3438 13.0898 15.2734 13 15.0938C12.8477 14.8008 12.7266 14.6758 12.4531 14.5273L12.207 14.3945L10.0781 14.3867C8.90625 14.3828 7.89453 14.3945 7.82813 14.4102ZM12.125 15.0547C12.1953 15.0859 12.3047 15.1758 12.3672 15.2539C12.457 15.375 12.4805 15.4492 12.4922 15.668L12.5078 15.9375H10.0039H7.5V15.7266C7.5 15.3828 7.6211 15.168 7.8711 15.0547C8.04688 14.9766 11.9375 14.9766 12.125 15.0547ZM8.75 17.6562V18.75H8.4375H8.125V17.6562V16.5625H8.4375H8.75V17.6562ZM11.875 17.6562V18.75H11.5625H11.25V17.6562V16.5625H11.5625H11.875V17.6562Z" fill="currentColor"/>
</svg>
