<svg width="20" height="20" viewBox="0 0 20 20" fill="none" xmlns="http://www.w3.org/2000/svg">
<path d="M4.70703 2.36719C3.33203 2.74609 2.93359 2.86719 2.88281 2.93359C2.81641 3.01172 2.8125 3.4375 2.8125 10.6328V18.2461L2.91016 18.3398C3.03516 18.4688 3.21484 18.4688 3.33984 18.3398C3.42188 18.2578 3.4375 18.2109 3.4375 17.9922V17.7383L3.60547 17.6914C3.69531 17.668 4.3125 17.5 4.97266 17.3203C5.63281 17.1406 6.19141 16.9922 6.21094 16.9922C6.23438 16.9922 6.25 17.0625 6.25 17.1484C6.25 17.4609 6.57031 17.6133 6.77734 17.4023C6.84766 17.332 6.875 17.2656 6.875 17.1484C6.875 17.0625 6.89453 16.9922 6.91797 16.9922C6.95312 16.9922 9.33984 17.6328 9.61719 17.7188C9.67578 17.7344 9.6875 17.7852 9.6875 17.9922C9.6875 18.2109 9.70312 18.2578 9.78516 18.3398C9.91016 18.4688 10.0898 18.4688 10.2148 18.3398C10.2969 18.2578 10.3125 18.2109 10.3125 17.9922V17.7383L10.4805 17.6914C10.5703 17.668 11.1875 17.5 11.8477 17.3203C12.5078 17.1406 13.0664 16.9922 13.0859 16.9922C13.1094 16.9922 13.125 17.0625 13.125 17.1484C13.125 17.2656 13.1523 17.332 13.2227 17.4023C13.4297 17.6133 13.75 17.4609 13.75 17.1484C13.75 17.0625 13.7695 16.9922 13.793 16.9922C13.8281 16.9922 16.2148 17.6328 16.4961 17.7188C16.5508 17.7344 16.5625 17.7852 16.5625 17.9922C16.5625 18.2109 16.5781 18.2578 16.6602 18.3398C16.7852 18.4688 16.9648 18.4688 17.0898 18.3398L17.1875 18.2461V10.625V3.00391L17.1016 2.91797C17.0312 2.85156 16.5859 2.71484 15.2266 2.34766L13.4414 1.86328L11.7227 2.33203L10.0078 2.80078L8.3125 2.33984C7.38281 2.08594 6.58594 1.87891 6.54297 1.87891C6.5 1.88281 5.67578 2.10156 4.70703 2.36719ZM6.25 9.46875V16.3242L6.04688 16.3828C5.4375 16.5547 3.51953 17.0703 3.48047 17.0703C3.44922 17.0703 3.4375 15.2383 3.4375 10.2188V3.36719L3.74219 3.28516C3.90625 3.23828 4.51953 3.07422 5.09766 2.91406C5.67969 2.75391 6.17578 2.62109 6.20312 2.62109C6.23828 2.61719 6.25 4.01172 6.25 9.46875ZM8.15234 2.94531C8.8125 3.125 9.42969 3.29297 9.52344 3.31641L9.6875 3.36328V10.2148C9.6875 14.5586 9.67188 17.0703 9.64844 17.0703C9.62891 17.0703 9.07031 16.9219 8.41016 16.7422C7.75 16.5625 7.13281 16.3945 7.04297 16.3711L6.875 16.3242V9.47266C6.875 5.39062 6.89062 2.61719 6.91016 2.61719C6.92969 2.61719 7.48828 2.76562 8.15234 2.94531ZM13.125 9.46875V16.3242L12.9219 16.3828C12.3125 16.5547 10.3945 17.0703 10.3555 17.0703C10.3242 17.0703 10.3125 15.2383 10.3125 10.2188V3.36719L10.6172 3.28516C10.7812 3.23828 11.3945 3.07422 11.9727 2.91406C12.5547 2.75391 13.0508 2.62109 13.0781 2.62109C13.1133 2.61719 13.125 4.01172 13.125 9.46875ZM15.0273 2.94531C15.6875 3.125 16.3047 3.29297 16.3984 3.31641L16.5625 3.36328V10.2148C16.5625 14.5586 16.5469 17.0703 16.5234 17.0703C16.5039 17.0703 15.9453 16.9219 15.2852 16.7422C14.625 16.5625 14.0078 16.3945 13.918 16.3711L13.75 16.3242V9.47266C13.75 5.39062 13.7656 2.61719 13.7852 2.61719C13.8047 2.61719 14.3633 2.76562 15.0273 2.94531Z" fill="currentColor"/>
</svg>
