<svg width="20" height="20" viewBox="0 0 20 20" fill="none" xmlns="http://www.w3.org/2000/svg">
<path d="M9.16406 0.0429688C7.625 0.203125 6.14063 0.800781 4.96094 1.73438C3.92578 2.55078 3.17969 3.48047 2.59766 4.66797C2.01953 5.85938 1.77734 6.91016 1.78125 8.26172C1.78516 10.4844 2.65625 12.5508 4.24609 14.1055C5.51563 15.3477 6.95703 16.0625 8.83984 16.3867L8.98438 16.4102V17.1875V17.9648L7.70703 17.9766C6.58203 17.9883 6.40625 17.9961 6.27344 18.0586C6.02734 18.168 5.88672 18.2969 5.76172 18.5195C5.64844 18.7266 5.64453 18.7461 5.63281 19.3672L5.61719 20H10H14.3828L14.3672 19.3633C14.3555 18.7461 14.3516 18.7266 14.2383 18.5195C14.1133 18.2969 13.9727 18.168 13.7266 18.0586C13.5938 17.9961 13.418 17.9883 12.2969 17.9766L11.0156 17.9648V17.1875V16.4102L11.1641 16.3867C13.6523 15.9844 15.6641 14.6719 16.9805 12.5859C17.8867 11.1484 18.3398 9.33203 18.207 7.66797C17.9844 4.86719 16.4922 2.48438 14.0859 1.09375C12.625 0.253906 10.8281 -0.132812 9.16406 0.0429688ZM11.1094 0.765625C12.7891 1.02734 14.2773 1.79297 15.4297 2.99219C17.2578 4.89453 17.9609 7.53125 17.3203 10.0859C16.6523 12.7656 14.5195 14.8945 11.8359 15.5664C10.6719 15.8555 9.32813 15.8555 8.16406 15.5664C6.03516 15.0312 4.21094 13.5625 3.23438 11.5898C2.43359 9.97266 2.23828 8.13672 2.67969 6.38672C3.01953 5.04688 3.67578 3.89844 4.66406 2.90625C5.97266 1.60156 7.57813 0.863281 9.49219 0.6875C9.80859 0.660156 10.7031 0.703125 11.1094 0.765625ZM10.3516 17.3047V17.9688H10H9.64844V17.3047V16.6406H10H10.3516V17.3047ZM13.5938 18.7695C13.6641 18.8438 13.6914 18.9258 13.7031 19.1016L13.7188 19.3359H10H6.28125L6.29688 19.1016C6.30859 18.9258 6.33594 18.8438 6.40625 18.7695L6.49609 18.6719H10H13.5039L13.5938 18.7695Z" fill="currentColor"/>
<path d="M9.83984 1.23023C9.78125 1.26148 9.71875 1.31616 9.70313 1.35523C9.68359 1.39429 9.66016 2.31616 9.64844 3.40601L9.62891 5.38648L9.41406 5.14429C8.56641 4.17554 7.30469 3.71851 6.05469 3.92163C4.59375 4.15991 3.43359 5.22632 3.0625 6.66773C2.98047 6.99195 2.96094 7.1482 2.95703 7.70288C2.94922 8.3396 2.94922 8.35523 3.04297 8.45288L3.13672 8.55445H5.16797H7.19922L6.83984 8.89038C5.74219 9.92554 5.36719 11.3748 5.83594 12.781C6.13672 13.6794 6.82031 14.4646 7.67578 14.8943C8.12109 15.1169 8.53125 15.2263 9.10547 15.2771C9.80469 15.3396 10.0938 15.3123 10.2305 15.1794L10.332 15.0779L10.3438 13.0857L10.3555 11.0935L10.7148 11.4607C11.1133 11.863 11.3008 12.0037 11.7578 12.2302C12.25 12.4763 12.7305 12.5857 13.3398 12.5857C14.3711 12.5896 15.1953 12.2576 15.9297 11.5466C16.7109 10.7927 17.0664 9.85523 17.0703 8.56226C17.0703 8.15991 17.0078 7.99585 16.8359 7.93335C16.7461 7.9021 16.1094 7.89038 14.7578 7.89038H12.8047L12.9961 7.73804C13.6094 7.24976 14.0547 6.54663 14.2656 5.73023C14.3672 5.35132 14.3828 4.53882 14.3008 4.15991C13.9531 2.56226 12.6719 1.39038 11.0859 1.2146C10.5469 1.1521 9.96484 1.15991 9.83984 1.23023ZM11.4297 1.95288C11.7539 2.03491 12.1953 2.24585 12.4648 2.44507C12.9219 2.7771 13.3477 3.37085 13.5352 3.92554C13.75 4.57398 13.7227 5.36695 13.457 6.0232C13.2266 6.5857 12.75 7.1482 12.2383 7.44898C11.9805 7.60132 11.7031 7.73413 11.6406 7.73413C11.6211 7.73413 11.5664 7.64038 11.5117 7.5271C11.332 7.13257 10.8438 6.7146 10.4609 6.62476L10.3516 6.60132V4.2146V1.82788L10.7539 1.85523C10.9727 1.87085 11.2773 1.91382 11.4297 1.95288ZM7.32422 4.63648C7.92188 4.76538 8.58594 5.18335 8.98047 5.67163C9.17188 5.90601 9.49219 6.47632 9.49219 6.58179C9.49219 6.60913 9.39844 6.67554 9.28906 6.73023C8.89453 6.90991 8.55859 7.28882 8.41406 7.7107L8.35156 7.89038H5.99219H3.63281V7.53491C3.63281 6.44116 4.25781 5.40601 5.22656 4.90991C5.92578 4.55054 6.5625 4.4646 7.32422 4.63648ZM10.3203 7.28882C11.0898 7.54663 11.2383 8.59741 10.5742 9.05054C10.0703 9.39038 9.42188 9.23804 9.125 8.7146C8.89844 8.30445 8.99219 7.78491 9.34375 7.48023C9.625 7.24195 9.97656 7.17163 10.3203 7.28882ZM16.3672 8.93726C16.3672 10.2302 15.5234 11.3787 14.2773 11.781C13.8477 11.9216 13.1875 11.9529 12.75 11.8552C12.1406 11.7224 11.6523 11.4529 11.2148 11.0115C10.9141 10.7029 10.5703 10.1716 10.5273 9.94116C10.5039 9.82788 10.5156 9.82007 10.7266 9.72632C11.1211 9.55835 11.4063 9.22632 11.6328 8.65991L11.6797 8.55445H14.0234H16.3672V8.93726ZM8.74219 9.3357C8.90625 9.53491 9.17188 9.7146 9.42578 9.80445L9.62891 9.87476L9.64063 12.2498L9.64844 14.6209L9.19141 14.5974C8.63672 14.574 8.25391 14.4646 7.80859 14.2029C6.87109 13.6521 6.32813 12.699 6.32422 11.5974C6.32422 11.0857 6.39844 10.7615 6.625 10.2927C6.93359 9.65601 7.38672 9.19898 8.02734 8.88648L8.375 8.7107L8.49609 8.94898C8.55859 9.07788 8.67188 9.25366 8.74219 9.3357Z" fill="currentColor"/>
</svg>
