<svg width="20" height="20" viewBox="0 0 20 20" fill="none" xmlns="http://www.w3.org/2000/svg">
<path d="M18.3333 15.5041C18.3333 15.6698 18.2675 15.8288 18.1503 15.946C18.0331 16.0632 17.8741 16.1291 17.7083 16.1291H13.4583C13.3191 16.6481 13.0126 17.1068 12.5862 17.4339C12.1598 17.761 11.6374 17.9383 11.1 17.9383C10.5626 17.9383 10.0402 17.761 9.61382 17.4339C9.18743 17.1068 8.88087 16.6481 8.74167 16.1291H2.29167C2.12591 16.1291 1.96694 16.0632 1.84973 15.946C1.73252 15.8288 1.66667 15.6698 1.66667 15.5041C1.66667 15.3383 1.73252 15.1793 1.84973 15.0621C1.96694 14.9449 2.12591 14.8791 2.29167 14.8791H8.74167C8.88087 14.36 9.18743 13.9014 9.61382 13.5743C10.0402 13.2472 10.5626 13.0699 11.1 13.0699C11.6374 13.0699 12.1598 13.2472 12.5862 13.5743C13.0126 13.9014 13.3191 14.36 13.4583 14.8791H17.7083C17.8741 14.8791 18.0331 14.9449 18.1503 15.0621C18.2675 15.1793 18.3333 15.3383 18.3333 15.5041ZM18.3333 4.49573C18.3333 4.66149 18.2675 4.82047 18.1503 4.93768C18.0331 5.05489 17.8741 5.12073 17.7083 5.12073H15.6667C15.5275 5.6398 15.2209 6.09844 14.7945 6.42554C14.3681 6.75265 13.8457 6.92995 13.3083 6.92995C12.7709 6.92995 12.2485 6.75265 11.8221 6.42554C11.3958 6.09844 11.0892 5.6398 10.95 5.12073H2.29167C2.20959 5.12073 2.12832 5.10457 2.05249 5.07316C1.97666 5.04175 1.90776 4.99571 1.84973 4.93768C1.79169 4.87964 1.74565 4.81074 1.71424 4.73491C1.68283 4.65908 1.66667 4.57781 1.66667 4.49573C1.66667 4.41366 1.68283 4.33239 1.71424 4.25656C1.74565 4.18073 1.79169 4.11183 1.84973 4.05379C1.90776 3.99576 1.97666 3.94972 2.05249 3.91831C2.12832 3.8869 2.20959 3.87073 2.29167 3.87073H10.95C11.0892 3.35167 11.3958 2.89303 11.8221 2.56593C12.2485 2.23882 12.7709 2.06152 13.3083 2.06152C13.8457 2.06152 14.3681 2.23882 14.7945 2.56593C15.2209 2.89303 15.5275 3.35167 15.6667 3.87073H17.7083C17.7907 3.86961 17.8725 3.88501 17.9488 3.91603C18.0252 3.94704 18.0945 3.99303 18.1528 4.05129C18.211 4.10956 18.257 4.1789 18.288 4.25524C18.3191 4.33157 18.3345 4.41335 18.3333 4.49573ZM18.3333 9.99573C18.3345 10.0781 18.3191 10.1599 18.288 10.2362C18.257 10.3126 18.211 10.3819 18.1528 10.4402C18.0945 10.4984 18.0252 10.5444 17.9488 10.5754C17.8725 10.6065 17.7907 10.6219 17.7083 10.6207H7.95833C7.81913 11.1398 7.51257 11.5984 7.08619 11.9255C6.6598 12.2526 6.13741 12.4299 5.6 12.4299C5.0626 12.4299 4.5402 12.2526 4.11382 11.9255C3.68743 11.5984 3.38087 11.1398 3.24167 10.6207H2.29167C2.12591 10.6207 1.96694 10.5549 1.84973 10.4377C1.73252 10.3205 1.66667 10.1615 1.66667 9.99573C1.66667 9.82997 1.73252 9.671 1.84973 9.55379C1.96694 9.43658 2.12591 9.37073 2.29167 9.37073H3.24167C3.38087 8.85167 3.68743 8.39303 4.11382 8.06593C4.5402 7.73882 5.0626 7.56152 5.6 7.56152C6.13741 7.56152 6.6598 7.73882 7.08619 8.06593C7.51257 8.39303 7.81913 8.85167 7.95833 9.37073H17.7083C17.8741 9.37073 18.0331 9.43658 18.1503 9.55379C18.2675 9.671 18.3333 9.82997 18.3333 9.99573Z" fill="#333333"/>
</svg>
