<svg width="20" height="20" viewBox="0 0 20 20" fill="none" xmlns="http://www.w3.org/2000/svg">
<path d="M15.417 4.58317L4.58366 15.4165M5.50533 3.13067C6.22783 2.40817 6.58866 2.04734 7.04866 1.8565C7.50866 1.6665 8.01949 1.6665 9.04032 1.6665H10.9595C11.9812 1.6665 12.4928 1.6665 12.9512 1.8565C13.4112 2.04734 13.7728 2.40817 14.4953 3.1315L16.8695 5.50484C17.592 6.22734 17.9528 6.58817 18.1437 7.04817C18.3337 7.50817 18.3337 8.019 18.3337 9.03984V10.959C18.3337 11.9807 18.3337 12.4923 18.1437 12.9507C17.9528 13.4107 17.592 13.7723 16.8687 14.4948L14.4953 16.869C13.7728 17.5915 13.412 17.9523 12.952 18.1432C12.4928 18.3332 11.9812 18.3332 10.9603 18.3332H9.04116C8.01949 18.3332 7.50783 18.3332 7.04949 18.1432C6.58949 17.9523 6.22783 17.5915 5.50533 16.8682L3.13116 14.4948C2.40866 13.7723 2.04783 13.4115 1.85699 12.9515C1.66699 12.4915 1.66699 11.9807 1.66699 10.9598V9.04067C1.66699 8.019 1.66699 7.50734 1.85699 7.049C2.04783 6.589 2.40866 6.22734 3.13199 5.50484" stroke="currentColor" stroke-width="1.25" stroke-linecap="round"/>
<g clip-path="url(#clip0_212_75)">
<path d="M11.6663 14.9998V12.7082H10.208V12.604L10.238 12.5415C10.9042 11.1423 11.2499 9.61204 11.2497 8.06232V7.92565C11.65 7.77906 12.0733 7.70526 12.4997 7.70773C13.0363 7.70773 13.4626 7.81857 13.7497 7.92565V8.06232C13.7497 9.61232 14.0955 11.1419 14.7613 12.5411L14.7913 12.6036V12.7077H13.333V14.9998M8.33301 14.9998V12.2915C8.33301 12.0705 8.42081 11.8585 8.57709 11.7022C8.73337 11.5459 8.94533 11.4582 9.16634 11.4582V8.12482C9.16634 8.12482 8.54134 7.70815 7.49967 7.70815C6.45801 7.70815 5.83301 8.12482 5.83301 8.12482V11.4582C6.05402 11.4582 6.26598 11.5459 6.42226 11.7022C6.57854 11.8585 6.66634 12.0705 6.66634 12.2915V14.9998M12.4372 6.87482C12.4372 6.87482 11.7705 6.45815 11.7705 5.93732C11.7705 5.74415 11.8472 5.5589 11.9838 5.42231C12.1204 5.28572 12.3057 5.20898 12.4988 5.20898C12.692 5.20898 12.8773 5.28572 13.0139 5.42231C13.1504 5.5589 13.2272 5.74415 13.2272 5.93732C13.2272 6.45815 12.5622 6.87482 12.5622 6.87482H12.4372ZM7.43717 6.87482C7.43717 6.87482 6.77051 6.45815 6.77051 5.93732C6.77051 5.84167 6.78935 5.74696 6.82595 5.6586C6.86255 5.57023 6.9162 5.48994 6.98383 5.42231C7.05146 5.35468 7.13175 5.30103 7.22012 5.26443C7.30849 5.22782 7.4032 5.20898 7.49884 5.20898C7.59449 5.20898 7.6892 5.22782 7.77756 5.26443C7.86593 5.30103 7.94622 5.35468 8.01385 5.42231C8.08148 5.48994 8.13513 5.57023 8.17173 5.6586C8.20834 5.74696 8.22717 5.84167 8.22717 5.93732C8.22717 6.45815 7.56217 6.87482 7.56217 6.87482H7.43717Z" stroke="currentColor" stroke-width="0.4"/>
</g>
<defs>
<clipPath id="clip0_212_75">
<rect width="10" height="10" fill="currentColor" transform="translate(5 5)"/>
</clipPath>
</defs>
</svg>
