<svg width="20" height="20" viewBox="0 0 20 20" fill="none" xmlns="http://www.w3.org/2000/svg">
<path fill-rule="evenodd" clip-rule="evenodd" d="M7.42116 3.5415H12.5795C13.2778 3.5415 13.7228 3.5415 14.1062 3.61734C14.874 3.77008 15.5793 4.14707 16.1329 4.70064C16.6864 5.25422 17.0634 5.95951 17.2162 6.72734C17.2745 7.019 17.2878 7.3465 17.2912 7.794C17.7713 7.93006 18.194 8.2191 18.4949 8.61721C18.7959 9.01532 18.9587 9.50077 18.9587 9.99984V12.0365C18.9587 13.3115 18.2937 14.4315 17.292 15.0673V15.8332C17.292 15.9989 17.2261 16.1579 17.1089 16.2751C16.9917 16.3923 16.8328 16.4582 16.667 16.4582C16.5012 16.4582 16.3423 16.3923 16.225 16.2751C16.1078 16.1579 16.042 15.9989 16.042 15.8332V15.5623C15.8245 15.604 15.6003 15.6248 15.3703 15.6248H4.63033C4.40033 15.6248 4.17616 15.6032 3.95866 15.5623V15.8332C3.95866 15.9989 3.89281 16.1579 3.7756 16.2751C3.65839 16.3923 3.49942 16.4582 3.33366 16.4582C3.1679 16.4582 3.00893 16.3923 2.89172 16.2751C2.77451 16.1579 2.70866 15.9989 2.70866 15.8332V15.0673C2.19788 14.7438 1.77723 14.2963 1.48583 13.7666C1.19443 13.2368 1.04175 12.642 1.04199 12.0373V9.99984C1.04199 8.94984 1.74699 8.0665 2.70949 7.794C2.71283 7.3465 2.72616 7.019 2.78449 6.72734C2.93723 5.95951 3.31422 5.25422 3.8678 4.70064C4.42137 4.14707 5.12666 3.77008 5.89449 3.61734C6.27783 3.5415 6.72283 3.5415 7.42116 3.5415ZM3.96033 7.79484C4.43989 7.93131 4.86188 8.22042 5.16234 8.61832C5.46279 9.01622 5.62534 9.50124 5.62533 9.99984V10.9998C5.62533 11.0232 5.64366 11.0415 5.66699 11.0415H14.3337C14.3447 11.0415 14.3553 11.0371 14.3631 11.0293C14.3709 11.0215 14.3753 11.0109 14.3753 10.9998V9.99984C14.3753 8.9515 15.0795 8.06734 16.0403 7.79484C16.037 7.36984 16.0262 7.15317 15.9903 6.9715C15.8859 6.44601 15.6279 5.9633 15.249 5.58445C14.8702 5.2056 14.3875 4.94763 13.862 4.84317C13.6153 4.79484 13.3045 4.7915 12.5003 4.7915H7.50033C6.69616 4.7915 6.38533 4.79484 6.13866 4.84317C5.61316 4.94763 5.13046 5.2056 4.75161 5.58445C4.37276 5.9633 4.11478 6.44601 4.01033 6.9715C3.97449 7.15317 3.96366 7.37067 3.96033 7.79484ZM3.33366 8.95817C2.75866 8.95817 2.29199 9.42484 2.29199 9.99984V12.0365C2.29199 12.6567 2.53835 13.2514 2.97687 13.69C3.4154 14.1285 4.01016 14.3748 4.63033 14.3748H15.3703C15.9905 14.3748 16.5853 14.1285 17.0238 13.69C17.4623 13.2514 17.7087 12.6567 17.7087 12.0365V9.99984C17.7087 9.72357 17.5989 9.45862 17.4036 9.26327C17.2082 9.06792 16.9433 8.95817 16.667 8.95817C16.3907 8.95817 16.1258 9.06792 15.9304 9.26327C15.7351 9.45862 15.6253 9.72357 15.6253 9.99984V10.9998C15.6253 11.3424 15.4892 11.6709 15.247 11.9132C15.0048 12.1554 14.6762 12.2915 14.3337 12.2915H5.66699C5.32442 12.2915 4.99588 12.1554 4.75365 11.9132C4.51141 11.6709 4.37533 11.3424 4.37533 10.9998V9.99984C4.37533 9.42484 3.90866 8.95817 3.33366 8.95817Z" fill="#333333"/>
</svg>
