<svg width="20" height="20" viewBox="0 0 20 20" fill="none" xmlns="http://www.w3.org/2000/svg">
<path d="M2 9.99996C2.00044 8.25178 2.57349 6.55187 3.63152 5.16021C4.68955 3.76856 6.1743 2.76178 7.85869 2.29386C9.54308 1.82593 11.3344 1.92263 12.9586 2.56915C14.5828 3.21567 15.9506 4.37643 16.8527 5.87389C17.7547 7.37135 18.1415 9.12307 17.9537 10.8611C17.766 12.5992 17.0141 14.2279 15.813 15.4982C14.612 16.7685 13.0279 17.6104 11.3031 17.8951C9.57823 18.1799 7.80761 17.8918 6.262 17.075L2.622 17.985C2.53823 18.006 2.45043 18.005 2.36716 17.982C2.28389 17.9591 2.20799 17.9149 2.14686 17.8539C2.08573 17.7929 2.04145 17.717 2.01834 17.6338C1.99523 17.5506 1.99408 17.4628 2.015 17.379L2.925 13.738C2.31692 12.5859 1.99939 11.3027 2 9.99996ZM9.25 7.30696C9.403 7.13396 9.64 6.99996 10 6.99996C10.36 6.99996 10.597 7.13396 10.75 7.30696C10.911 7.49096 11 7.74496 11 7.99996C11 8.31696 10.929 8.52296 10.834 8.68496C10.733 8.85896 10.598 8.99896 10.411 9.19496L10.389 9.21896C10.2 9.41596 9.968 9.66296 9.791 9.99996C9.611 10.346 9.5 10.761 9.5 11.293C9.5 11.4256 9.55268 11.5527 9.64645 11.6465C9.74022 11.7403 9.86739 11.793 10 11.793C10.1326 11.793 10.2598 11.7403 10.3536 11.6465C10.4473 11.5527 10.5 11.4256 10.5 11.293C10.5 10.909 10.577 10.655 10.677 10.464C10.782 10.264 10.925 10.105 11.111 9.90996L11.153 9.86696C11.323 9.68996 11.535 9.46896 11.698 9.18896C11.884 8.86896 12 8.48896 12 7.99996C12 7.52696 11.839 7.02996 11.5 6.64596C11.153 6.25196 10.64 5.99996 10 5.99996C9.36 5.99996 8.847 6.25196 8.5 6.64596C8.16 7.03096 8 7.52596 8 7.99996C8 8.13257 8.05268 8.25974 8.14645 8.35351C8.24022 8.44728 8.36739 8.49996 8.5 8.49996C8.63261 8.49996 8.75979 8.44728 8.85355 8.35351C8.94732 8.25974 9 8.13257 9 7.99996C9 7.74496 9.089 7.48996 9.25 7.30696ZM10.7 13.513C10.7 13.3273 10.6263 13.1493 10.495 13.018C10.3637 12.8867 10.1857 12.813 10 12.813C9.81435 12.813 9.6363 12.8867 9.50503 13.018C9.37375 13.1493 9.3 13.3273 9.3 13.513C9.3 13.6986 9.37375 13.8767 9.50503 14.0079C9.6363 14.1392 9.81435 14.213 10 14.213C10.1857 14.213 10.3637 14.1392 10.495 14.0079C10.6263 13.8767 10.7 13.6986 10.7 13.513Z" fill="currentColor"/>
</svg>
