<svg width="20" height="20" viewBox="0 0 20 20" fill="none" xmlns="http://www.w3.org/2000/svg">
<path d="M8.94199 4.22783C9.29329 4.18708 9.64667 4.16676 10.0003 4.16699C13.887 4.16699 17.0003 6.58616 18.3337 10.0003C18.0109 10.8308 17.5748 11.6127 17.0378 12.3237M5.43366 5.43283C3.73366 6.47033 2.41699 8.07783 1.66699 10.0003C3.00033 13.4145 6.11366 15.8337 10.0003 15.8337C11.6104 15.8422 13.1913 15.4037 14.567 14.567M8.23366 8.23366C8.00149 8.46583 7.81733 8.74145 7.69168 9.04479C7.56603 9.34813 7.50136 9.67325 7.50136 10.0016C7.50136 10.3299 7.56603 10.655 7.69168 10.9584C7.81733 11.2617 8.00149 11.5373 8.23366 11.7695C8.46582 12.0017 8.74145 12.1858 9.04479 12.3115C9.34813 12.4371 9.67324 12.5018 10.0016 12.5018C10.3299 12.5018 10.655 12.4371 10.9584 12.3115C11.2617 12.1858 11.5373 12.0017 11.7695 11.7695" stroke="currentColor" stroke-width="1.25" stroke-linecap="round" stroke-linejoin="round"/>
<path d="M3.33398 3.3335L16.6673 16.6668" stroke="currentColor" stroke-width="1.25" stroke-linecap="round"/>
</svg>
