<svg width="20" height="20" viewBox="0 0 20 20" fill="none" xmlns="http://www.w3.org/2000/svg">
<path fill-rule="evenodd" clip-rule="evenodd" d="M9.41085 2.74411C9.56712 2.58788 9.77904 2.50012 10 2.50012C10.221 2.50012 10.4329 2.58788 10.5892 2.74411L15.5892 7.74411L17.2558 9.41078C17.4076 9.56795 17.4916 9.77845 17.4897 9.99694C17.4878 10.2154 17.4002 10.4245 17.2457 10.579C17.0912 10.7335 16.8822 10.8211 16.6637 10.823C16.4452 10.8249 16.2347 10.7409 16.0775 10.5891L15.8333 10.3449V15.8333C15.8333 16.2753 15.6578 16.6992 15.3452 17.0118C15.0326 17.3243 14.6087 17.4999 14.1667 17.4999H11.6667C11.4457 17.4999 11.2337 17.4121 11.0774 17.2559C10.9211 17.0996 10.8333 16.8876 10.8333 16.6666V14.1666H9.16668V16.6666C9.16668 16.8876 9.07888 17.0996 8.9226 17.2559C8.76632 17.4121 8.55436 17.4999 8.33335 17.4999H5.83335C5.39132 17.4999 4.9674 17.3243 4.65484 17.0118C4.34228 16.6992 4.16668 16.2753 4.16668 15.8333V10.3449L3.92251 10.5891C3.76535 10.7409 3.55484 10.8249 3.33635 10.823C3.11785 10.8211 2.90884 10.7335 2.75433 10.579C2.59982 10.4245 2.51218 10.2154 2.51029 9.99694C2.50839 9.77845 2.59238 9.56795 2.74418 9.41078L4.41085 7.74411L9.41085 2.74411Z" fill="#333333"/>
</svg>
