<svg width="20" height="20" viewBox="0 0 20 20" fill="none" xmlns="http://www.w3.org/2000/svg">
<path d="M19.375 16.4062H18.5938V10C18.5938 9.70992 18.4785 9.43172 18.2734 9.2266C18.0683 9.02148 17.7901 8.90625 17.5 8.90625H12.9688V3.75C12.9688 3.45992 12.8535 3.18172 12.6484 2.9766C12.4433 2.77148 12.1651 2.65625 11.875 2.65625H4.375C4.08492 2.65625 3.80672 2.77148 3.6016 2.9766C3.39648 3.18172 3.28125 3.45992 3.28125 3.75V16.4062H2.5C2.37568 16.4062 2.25645 16.4556 2.16854 16.5435C2.08064 16.6315 2.03125 16.7507 2.03125 16.875C2.03125 16.9993 2.08064 17.1185 2.16854 17.2065C2.25645 17.2944 2.37568 17.3438 2.5 17.3438H19.375C19.4993 17.3438 19.6185 17.2944 19.7065 17.2065C19.7944 17.1185 19.8438 16.9993 19.8438 16.875C19.8438 16.7507 19.7944 16.6315 19.7065 16.5435C19.6185 16.4556 19.4993 16.4062 19.375 16.4062ZM17.5 9.84375C17.5414 9.84375 17.5812 9.86021 17.6105 9.88951C17.6398 9.91882 17.6562 9.95856 17.6562 10V16.4062H12.9688V9.84375H17.5ZM4.21875 3.75C4.21875 3.70856 4.23521 3.66882 4.26451 3.63951C4.29382 3.61021 4.33356 3.59375 4.375 3.59375H11.875C11.9164 3.59375 11.9562 3.61021 11.9855 3.63951C12.0148 3.66882 12.0312 3.70856 12.0312 3.75V16.4062H10.4688V12.5C10.4688 12.3757 10.4194 12.2565 10.3315 12.1685C10.2435 12.0806 10.1243 12.0312 10 12.0312H6.25C6.12568 12.0312 6.00645 12.0806 5.91854 12.1685C5.83064 12.2565 5.78125 12.3757 5.78125 12.5V16.4062H4.21875V3.75ZM9.53125 16.4062H6.71875V12.9688H9.53125V16.4062ZM5.78125 7.5C5.78125 7.37568 5.83064 7.25645 5.91854 7.16854C6.00645 7.08064 6.12568 7.03125 6.25 7.03125H7.65625V5.625C7.65625 5.50068 7.70564 5.38145 7.79354 5.29354C7.88145 5.20564 8.00068 5.15625 8.125 5.15625C8.24932 5.15625 8.36855 5.20564 8.45646 5.29354C8.54436 5.38145 8.59375 5.50068 8.59375 5.625V7.03125H10C10.1243 7.03125 10.2435 7.08064 10.3315 7.16854C10.4194 7.25645 10.4688 7.37568 10.4688 7.5C10.4688 7.62432 10.4194 7.74355 10.3315 7.83146C10.2435 7.91936 10.1243 7.96875 10 7.96875H8.59375V9.375C8.59375 9.49932 8.54436 9.61855 8.45646 9.70646C8.36855 9.79436 8.24932 9.84375 8.125 9.84375C8.00068 9.84375 7.88145 9.79436 7.79354 9.70646C7.70564 9.61855 7.65625 9.49932 7.65625 9.375V7.96875H6.25C6.12568 7.96875 6.00645 7.91936 5.91854 7.83146C5.83064 7.74355 5.78125 7.62432 5.78125 7.5Z" fill="currentColor"/>
</svg>
