<svg width="20" height="20" viewBox="0 0 20 20" fill="none" xmlns="http://www.w3.org/2000/svg">
<path d="M0.410156 2.44141L0.3125 2.53516V9.78516C0.3125 16.293 0.304688 17.0312 0.253906 17.0312C0.21875 17.0312 0.148438 17.0742 0.0976562 17.1289C-0.03125 17.2539 -0.03125 17.4336 0.0976562 17.5586L0.191406 17.6562H10H19.8086L19.9023 17.5586C20.0312 17.4336 20.0312 17.2539 19.9023 17.1289C19.8516 17.0742 19.7812 17.0312 19.7461 17.0312C19.6953 17.0312 19.6875 16.293 19.6875 9.78516V2.53516L19.5898 2.44141C19.5 2.34766 19.4805 2.34375 18.9062 2.34375C18.332 2.34375 18.3125 2.34766 18.2227 2.44141C18.1328 2.52734 18.125 2.56641 18.125 2.91016V3.28125H17.3555H16.582L16.5234 3.15234C16.4531 3.00391 16.2969 2.9375 16.1445 2.99219C16.082 3.01172 16.0117 3.08203 15.9766 3.15234L15.918 3.28125H14.6875H13.457L13.3984 3.15234C13.3281 3.00391 13.1719 2.9375 13.0195 2.99219C12.957 3.01172 12.8867 3.08203 12.8516 3.15234L12.793 3.28125H10.625H8.45703L8.39844 3.15234C8.32812 3.00391 8.17188 2.9375 8.01953 2.99219C7.95703 3.01172 7.88672 3.08203 7.85156 3.15234L7.79297 3.28125H6.40625H5.01953L4.96094 3.15234C4.92578 3.08203 4.85547 3.01172 4.79688 2.99219C4.64062 2.9375 4.48438 3.00391 4.41406 3.15234L4.35547 3.28125H3.11719H1.875V2.91016C1.875 2.56641 1.86719 2.52734 1.77734 2.44141C1.6875 2.34766 1.66797 2.34375 1.09375 2.34375C0.519531 2.34375 0.5 2.34766 0.410156 2.44141ZM1.25 10V17.0312H1.09375H0.9375V10V2.96875H1.09375H1.25V10ZM19.0625 10V17.0312H18.9062H18.75V10V2.96875H18.9062H19.0625V10ZM4.375 4.11719V4.32812L3.35156 4.76562C2.78516 5.00391 2.29297 5.23828 2.25781 5.28125C2.21875 5.32422 2.1875 5.40625 2.19141 5.46484C2.19141 5.51953 2.34766 6.01562 2.53125 6.5625C2.95312 7.79297 2.87891 7.72266 3.57422 7.55469L4.0625 7.43359V9.48047V11.5273L4.16016 11.6211L4.25391 11.7188H6.5625H8.87109L8.96484 11.6211L9.0625 11.5273V9.48047V7.43359L9.55078 7.55469C10.2461 7.72266 10.1719 7.79297 10.5938 6.5625C10.7773 6.01562 10.9336 5.52344 10.9336 5.46875C10.9414 5.26172 10.8633 5.22266 9.63281 4.76172L8.4375 4.31641V4.10938V3.90625H10.625H12.8125V4.0625V4.21875H12.5977C12.418 4.21875 12.3633 4.23438 12.2852 4.31641L12.1875 4.41016V9.53125V14.6523L12.2852 14.7461L12.3789 14.8438H14.6875H16.9961L17.0898 14.7461L17.1875 14.6523V9.53125V4.41016L17.0898 4.31641C17.0117 4.23438 16.957 4.21875 16.7773 4.21875H16.5625V4.0625V3.90625H17.3438H18.125V10.4688V17.0312H10H1.875V10.4688V3.90625H3.125H4.375V4.11719ZM7.8125 4.0625V4.21875H6.40625H5V4.0625V3.90625H6.40625H7.8125V4.0625ZM15.9375 4.0625V4.21875H14.6875H13.4375V4.0625V3.90625H14.6875H15.9375V4.0625ZM5.03906 4.89844C5.03906 4.92578 5.10156 5.07422 5.17578 5.22266C5.34375 5.55859 5.57812 5.78516 5.92969 5.94922C6.16797 6.0625 6.22656 6.07422 6.5625 6.07422C6.89844 6.07422 6.95703 6.0625 7.19141 5.95312C7.61328 5.75 7.84375 5.50781 8.02344 5.05859L8.10938 4.85547L9.08203 5.22266C9.62109 5.42188 10.0977 5.60156 10.1445 5.625C10.2305 5.66016 10.2305 5.66016 10.0156 6.30859C9.89453 6.66406 9.78125 6.95312 9.76172 6.95312C9.73828 6.95312 9.51172 6.89844 9.25781 6.83594C8.69531 6.69531 8.65625 6.69141 8.53516 6.81641L8.4375 6.91016V9.00391V11.0938H6.5625H4.6875V9.00391V6.91016L4.58984 6.81641C4.46875 6.69141 4.42969 6.69531 3.86719 6.83594C3.61328 6.89844 3.38672 6.95312 3.36328 6.95312C3.32031 6.95312 2.87891 5.64844 2.91797 5.63281C2.9375 5.62891 3.35547 5.44922 3.84766 5.23438C4.73438 4.85156 5.03906 4.76562 5.03906 4.89844ZM7.42188 4.90625C7.42188 5.01172 7.02734 5.37109 6.85156 5.42188C6.48047 5.53125 6.19531 5.45312 5.91016 5.16797C5.57812 4.83984 5.57031 4.84375 6.5625 4.84375C7.31641 4.84375 7.42188 4.85156 7.42188 4.90625ZM14.375 5V5.15625H13.5938H12.8125V5V4.84375H13.5938H14.375V5ZM16.5625 5V5.15625H15.7812H15V5V4.84375H15.7812H16.5625V5ZM14.375 5.99609C14.375 6.25781 14.4883 6.40625 14.6875 6.40625C14.8867 6.40625 15 6.25781 15 5.99609V5.78125H15.7812H16.5625V10V14.2188H15.7812H15V11.0352V7.84766L14.9023 7.75391C14.7773 7.625 14.5977 7.625 14.4727 7.75391L14.375 7.84766V11.0352V14.2188H13.5938H12.8125V10V5.78125H13.5938H14.375V5.99609Z" fill="currentColor"/>
</svg>
