<svg width="20" height="20" viewBox="0 0 20 20" fill="none" xmlns="http://www.w3.org/2000/svg">
<path d="M9.53 9.18249H10.6967V8.59915H9.76083L8.97917 5.31582C8.96413 5.25176 8.92787 5.19467 8.87628 5.15382C8.82469 5.11297 8.7608 5.09077 8.695 5.09082H7.44167C7.37587 5.09077 7.31198 5.11297 7.26039 5.15382C7.2088 5.19467 7.17254 5.25176 7.1575 5.31582L6.375 8.59915H5.43667V9.18249H9.53ZM7.6725 5.67332H8.46333L9.16 8.59749H6.97583L7.6725 5.67332ZM8.945 12.3992H7.19083C7.15246 12.399 7.11445 12.4065 7.07896 12.4211C7.04348 12.4357 7.01123 12.4572 6.98406 12.4843C6.95688 12.5114 6.93532 12.5436 6.92062 12.579C6.90591 12.6145 6.89833 12.6524 6.89833 12.6908V14.1533C6.89822 14.1918 6.90571 14.2298 6.92037 14.2654C6.93504 14.3009 6.95658 14.3332 6.98376 14.3604C7.01094 14.3876 7.04323 14.4091 7.07877 14.4238C7.11431 14.4384 7.15239 14.4459 7.19083 14.4458H8.945C8.98344 14.4459 9.02153 14.4384 9.05707 14.4238C9.0926 14.4091 9.12489 14.3876 9.15207 14.3604C9.17926 14.3332 9.2008 14.3009 9.21546 14.2654C9.23012 14.2298 9.23761 14.1918 9.2375 14.1533V12.6908C9.2375 12.6524 9.22993 12.6145 9.21522 12.579C9.20051 12.5436 9.17895 12.5114 9.15178 12.4843C9.12461 12.4572 9.09236 12.4357 9.05687 12.4211C9.02139 12.4065 8.98337 12.399 8.945 12.3992ZM8.65333 13.8608H7.48333V12.9833H8.65L8.65333 13.8608ZM5.14417 12.3992H5.72917V13.8608H5.14417V12.3992ZM14.5008 10.3517H15.0858V11.8133H14.5008V10.3517ZM14.5008 7.72082H15.0858V9.18249H14.5008V7.72082ZM18.01 5.67332H13.9167C13.8783 5.67332 13.8403 5.68089 13.8049 5.6956C13.7694 5.71031 13.7372 5.73187 13.7101 5.75904C13.683 5.78621 13.6616 5.81847 13.647 5.85395C13.6324 5.88943 13.6249 5.92745 13.625 5.96582V11.5217H1.9275C1.88913 11.5217 1.85113 11.5292 1.81569 11.5439C1.78025 11.5586 1.74806 11.5802 1.72097 11.6074C1.69387 11.6345 1.67241 11.6668 1.6578 11.7023C1.64319 11.7378 1.63573 11.7758 1.63583 11.8142V15.3225C1.63573 15.3609 1.64319 15.3989 1.6578 15.4344C1.67241 15.4698 1.69387 15.5021 1.72097 15.5293C1.74806 15.5564 1.78025 15.578 1.81569 15.5927C1.85113 15.6074 1.88913 15.615 1.9275 15.615H18.0108C18.0493 15.6151 18.0874 15.6076 18.1229 15.5929C18.1584 15.5783 18.1907 15.5567 18.2179 15.5296C18.2451 15.5024 18.2666 15.4701 18.2813 15.4346C18.296 15.399 18.3034 15.3609 18.3033 15.3225V5.96582C18.3034 5.92731 18.2959 5.88915 18.2812 5.85356C18.2665 5.81797 18.2449 5.78564 18.2176 5.75845C18.1903 5.73126 18.158 5.70973 18.1223 5.69512C18.0867 5.68051 18.0485 5.6731 18.01 5.67332ZM13.6242 13.2758H10.115V12.1092H13.6242V13.2758ZM2.22 12.1092H6.02167V15.0333H2.22V12.1092ZM6.60583 12.1092H9.53V13.2758H9.52V13.8592H9.53V15.0258H6.60583V12.1092ZM10.115 13.8592H13.6242V15.0258H10.115V13.8592ZM17.7175 15.0258H14.2083V10.06H17.7175V15.0258ZM14.2083 9.47499V6.25832H17.7175V9.47499H14.2083Z" fill="currentColor"/>
</svg>
