<svg width="20" height="20" viewBox="0 0 20 20" fill="none" xmlns="http://www.w3.org/2000/svg">
<path d="M8.33366 16.0585V14.4877C8.33366 14.3377 8.2856 14.2146 8.18949 14.1185C8.09338 14.0224 7.9706 13.9743 7.82116 13.9743H2.91699V13.141H7.82116C8.19338 13.141 8.51088 13.2721 8.77366 13.5343C9.03588 13.7965 9.16699 14.1143 9.16699 14.4877V16.0577L8.33366 16.0585ZM10.8337 16.0585V14.4877C10.8337 14.1143 10.9648 13.7965 11.227 13.5343C11.4892 13.2721 11.8067 13.141 12.1795 13.141H17.0837V13.9743H12.1795C12.03 13.9743 11.9073 14.0224 11.8112 14.1185C11.715 14.2146 11.667 14.3377 11.667 14.4877V16.0577L10.8337 16.0585ZM5.41699 11.6668C4.84033 11.6668 4.34866 11.464 3.94199 11.0585C3.53644 10.6513 3.33366 10.1596 3.33366 9.58349V7.24349H16.667V9.58349C16.667 10.1602 16.4642 10.6518 16.0587 11.0585C15.652 11.464 15.1603 11.6668 14.5837 11.6668H5.41699ZM5.41699 10.8335H14.5837C14.9264 10.8335 15.2206 10.711 15.4662 10.466C15.7117 10.221 15.8342 9.92682 15.8337 9.58349V8.07682H4.16699V9.58349C4.16699 9.92627 4.28949 10.2204 4.53449 10.466C4.77949 10.7115 5.07366 10.834 5.41699 10.8335ZM3.33366 5.76932V4.93599H7.91699V4.58349C7.91699 4.39016 7.98088 4.2296 8.10866 4.10182C8.23644 3.97405 8.39699 3.91016 8.59033 3.91016H11.4103C11.6037 3.91016 11.7642 3.97405 11.892 4.10182C12.0198 4.2296 12.0837 4.39016 12.0837 4.58349V4.93599H16.667V5.76932H3.33366Z" fill="#333333"/>
</svg>
