<svg width="20" height="20" viewBox="0 0 20 20" fill="none" xmlns="http://www.w3.org/2000/svg">
<g clip-path="url(#clip0_78_22)">
<path fill-rule="evenodd" clip-rule="evenodd" d="M11.1258 2.55339L17.7925 5.05339C17.9751 5.12206 18.1278 5.25261 18.224 5.42231C18.3203 5.59201 18.3539 5.79009 18.3191 5.98205C18.2843 6.17401 18.1833 6.34767 18.0336 6.47278C17.8839 6.59789 17.6951 6.66653 17.5 6.66672V15.8334C17.5 16.2754 17.3244 16.6993 17.0118 17.0119C16.6993 17.3245 16.2753 17.5001 15.8333 17.5001H8.33331V13.3334C8.33331 13.1124 8.24551 12.9004 8.08923 12.7441C7.93295 12.5879 7.72099 12.5001 7.49998 12.5001C7.27896 12.5001 7.067 12.5879 6.91072 12.7441C6.75444 12.9004 6.66664 13.1124 6.66664 13.3334V17.5001H4.16664C3.72462 17.5001 3.30069 17.3245 2.98813 17.0119C2.67557 16.6993 2.49998 16.2754 2.49998 15.8334V10.8334C2.298 10.8335 2.10285 10.7603 1.95081 10.6274C1.79876 10.4944 1.70018 10.3108 1.67338 10.1106C1.64659 9.91042 1.69341 9.70731 1.80514 9.53906C1.91687 9.3708 2.08591 9.24886 2.28081 9.19589L10.8333 6.86339V4.22339L10.5408 4.11339C10.3395 4.03176 10.1781 3.87479 10.0909 3.67589C10.0036 3.477 9.99746 3.2519 10.0737 3.04854C10.15 2.84518 10.3026 2.67963 10.4991 2.58715C10.6956 2.49466 10.9205 2.48255 11.1258 2.55339ZM14.5833 11.6667H13.75C13.529 11.6667 13.317 11.7545 13.1607 11.9108C13.0044 12.0671 12.9166 12.279 12.9166 12.5001C12.9166 12.7211 13.0044 12.933 13.1607 13.0893C13.317 13.2456 13.529 13.3334 13.75 13.3334H14.5833C14.8043 13.3334 15.0163 13.2456 15.1726 13.0893C15.3288 12.933 15.4166 12.7211 15.4166 12.5001C15.4166 12.279 15.3288 12.0671 15.1726 11.9108C15.0163 11.7545 14.8043 11.6667 14.5833 11.6667ZM14.5833 8.33339H13.75C13.5376 8.33362 13.3333 8.41495 13.1788 8.56076C13.0244 8.70657 12.9314 8.90585 12.919 9.11788C12.9066 9.32992 12.9755 9.5387 13.1119 9.70158C13.2482 9.86446 13.4416 9.96914 13.6525 9.99422L13.75 10.0001H14.5833C14.7957 9.99982 15 9.91849 15.1544 9.77268C15.3089 9.62687 15.4018 9.42759 15.4143 9.21556C15.4267 9.00352 15.3577 8.79474 15.2214 8.63186C15.0851 8.46898 14.8917 8.36431 14.6808 8.33922L14.5833 8.33339Z" fill="currentColor"/>
</g>
<defs>
<clipPath id="clip0_78_22">
<rect width="20" height="20" fill="currentColor"/>
</clipPath>
</defs>
</svg>
