<svg width="20" height="20" viewBox="0 0 20 20" fill="none" xmlns="http://www.w3.org/2000/svg">
<path d="M8.83183 1.67495L16.3318 3.34162C16.4262 3.36049 16.5112 3.41148 16.5723 3.48593C16.6334 3.56037 16.6668 3.65366 16.6668 3.74995V16.25C16.6668 16.3462 16.6334 16.4395 16.5723 16.514C16.5112 16.5884 16.4262 16.6394 16.3318 16.6583L8.83183 18.325C8.7714 18.337 8.70905 18.3356 8.64926 18.3206C8.58948 18.3057 8.53374 18.2777 8.48608 18.2387C8.43842 18.1996 8.40001 18.1505 8.37362 18.0948C8.34724 18.0391 8.33353 17.9782 8.3335 17.9166V2.08329C8.33353 2.02166 8.34724 1.96082 8.37362 1.90513C8.40001 1.84944 8.43842 1.8003 8.48608 1.76125C8.53374 1.72219 8.58948 1.69419 8.64926 1.67927C8.70905 1.66435 8.7714 1.66287 8.83183 1.67495ZM7.50016 3.33329V16.6666H3.9585C3.80746 16.6666 3.66154 16.6119 3.54772 16.5126C3.4339 16.4134 3.35987 16.2762 3.33933 16.1266L3.3335 16.0416V3.95829C3.3335 3.80725 3.3882 3.66133 3.48747 3.54751C3.58674 3.43369 3.72387 3.35966 3.8735 3.33912L3.9585 3.33329H7.50016ZM10.8335 9.16662C10.6125 9.16662 10.4005 9.25442 10.2442 9.4107C10.088 9.56698 10.0002 9.77894 10.0002 9.99995C10.0002 10.221 10.088 10.4329 10.2442 10.5892C10.4005 10.7455 10.6125 10.8333 10.8335 10.8333C11.0545 10.8333 11.2665 10.7455 11.4228 10.5892C11.579 10.4329 11.6668 10.221 11.6668 9.99995C11.6668 9.77894 11.579 9.56698 11.4228 9.4107C11.2665 9.25442 11.0545 9.16662 10.8335 9.16662Z" fill="currentColor"/>
</svg>
