<svg width="20" height="20" viewBox="0 0 20 20" fill="none" xmlns="http://www.w3.org/2000/svg">
<path d="M17.5 10.3125C17.1618 10.312 16.8327 10.4217 16.5625 10.625V10C16.5625 6.90391 14.3109 5.40469 12.5 4.20078C11.3281 3.41953 10.3125 2.74297 10.3125 1.875C10.3125 1.79212 10.2796 1.71263 10.221 1.65403C10.1624 1.59542 10.0829 1.5625 10 1.5625C9.91712 1.5625 9.83763 1.59542 9.77903 1.65403C9.72042 1.71263 9.6875 1.79212 9.6875 1.875C9.6875 2.74297 8.67188 3.41875 7.5 4.20078C5.68906 5.40469 3.4375 6.90391 3.4375 10V10.625C3.20536 10.4509 2.92932 10.3449 2.64032 10.3188C2.35132 10.2928 2.06077 10.3477 1.80123 10.4775C1.54169 10.6072 1.32341 10.8067 1.17086 11.0535C1.0183 11.3004 0.9375 11.5848 0.9375 11.875V16.25C0.9375 16.3329 0.970424 16.4124 1.02903 16.471C1.08763 16.5296 1.16712 16.5625 1.25 16.5625H6.25C6.33288 16.5625 6.41237 16.5296 6.47097 16.471C6.52958 16.4124 6.5625 16.3329 6.5625 16.25V13.75C6.5625 13.5014 6.66127 13.2629 6.83709 13.0871C7.0129 12.9113 7.25136 12.8125 7.5 12.8125C7.74864 12.8125 7.9871 12.9113 8.16291 13.0871C8.33873 13.2629 8.4375 13.5014 8.4375 13.75V16.25C8.4375 16.3329 8.47042 16.4124 8.52903 16.471C8.58763 16.5296 8.66712 16.5625 8.75 16.5625H11.25C11.3329 16.5625 11.4124 16.5296 11.471 16.471C11.5296 16.4124 11.5625 16.3329 11.5625 16.25V13.75C11.5625 13.5014 11.6613 13.2629 11.8371 13.0871C12.0129 12.9113 12.2514 12.8125 12.5 12.8125C12.7486 12.8125 12.9871 12.9113 13.1629 13.0871C13.3387 13.2629 13.4375 13.5014 13.4375 13.75V16.25C13.4375 16.3329 13.4704 16.4124 13.529 16.471C13.5876 16.5296 13.6671 16.5625 13.75 16.5625H18.75C18.8329 16.5625 18.9124 16.5296 18.971 16.471C19.0296 16.4124 19.0625 16.3329 19.0625 16.25V11.875C19.0625 11.4606 18.8979 11.0632 18.6049 10.7701C18.3118 10.4771 17.9144 10.3125 17.5 10.3125ZM7.84453 4.72109C8.75 4.11797 9.57109 3.57109 10 2.90156C10.4289 3.57109 11.25 4.11797 12.1555 4.72109C13.8602 5.85938 15.7812 7.13594 15.9273 9.6875H4.07266C4.21875 7.13594 6.13984 5.85938 7.84453 4.72109ZM1.5625 11.875C1.5625 11.6264 1.66127 11.3879 1.83709 11.2121C2.0129 11.0363 2.25136 10.9375 2.5 10.9375C2.74864 10.9375 2.9871 11.0363 3.16291 11.2121C3.33873 11.3879 3.4375 11.6264 3.4375 11.875V15.9375H1.5625V11.875ZM12.5 12.1875C12.0856 12.1875 11.6882 12.3521 11.3951 12.6451C11.1021 12.9382 10.9375 13.3356 10.9375 13.75V15.9375H9.0625V13.75C9.0625 13.3356 8.89788 12.9382 8.60485 12.6451C8.31183 12.3521 7.9144 12.1875 7.5 12.1875C7.0856 12.1875 6.68817 12.3521 6.39515 12.6451C6.10212 12.9382 5.9375 13.3356 5.9375 13.75V15.9375H4.0625V10.3125H15.9375V15.9375H14.0625V13.75C14.0625 13.3356 13.8979 12.9382 13.6049 12.6451C13.3118 12.3521 12.9144 12.1875 12.5 12.1875ZM18.4375 15.9375H16.5625V11.875C16.5625 11.6264 16.6613 11.3879 16.8371 11.2121C17.0129 11.0363 17.2514 10.9375 17.5 10.9375C17.7486 10.9375 17.9871 11.0363 18.1629 11.2121C18.3387 11.3879 18.4375 11.6264 18.4375 11.875V15.9375Z" fill="currentColor"/>
</svg>
