<svg width="20" height="20" viewBox="0 0 20 20" fill="none" xmlns="http://www.w3.org/2000/svg">
<path fill-rule="evenodd" clip-rule="evenodd" d="M11.667 4.1665C11.7465 4.16655 11.8243 4.18932 11.8912 4.23214C11.9582 4.27496 12.0115 4.33604 12.0449 4.40817L12.7053 5.83317H14.8441C14.9035 5.83312 14.9622 5.84577 15.0163 5.87028C15.0704 5.89478 15.1187 5.93057 15.1578 5.97525L16.9807 8.05859C17.0335 8.11884 17.0678 8.19302 17.0795 8.27226C17.0913 8.3515 17.0799 8.43244 17.0468 8.50538C17.0137 8.57832 16.9602 8.64017 16.8929 8.68353C16.8255 8.72688 16.7471 8.74991 16.667 8.74984H14.057L14.8778 10.5207C15.5334 10.3321 16.2359 10.3978 16.8451 10.7047C17.4543 11.0116 17.9252 11.5371 18.1639 12.1761C18.4025 12.8151 18.3911 13.5207 18.1321 14.1517C17.8732 14.7828 17.3856 15.2928 16.7669 15.58C16.1482 15.8672 15.4439 15.9104 14.7947 15.7008C14.1456 15.4913 13.5994 15.0446 13.2653 14.4498C12.9312 13.8551 12.8339 13.1562 12.9927 12.4929C13.1515 11.8295 13.5548 11.2505 14.122 10.8715L13.4999 9.52984L12.152 10.7278C12.131 10.7466 12.1081 10.7632 12.0837 10.7773V12.4998C12.0837 12.8314 11.952 13.1493 11.7175 13.3837C11.4831 13.6181 11.1652 13.7498 10.8337 13.7498H9.16699C8.92105 13.7502 8.6805 13.6777 8.47574 13.5415H7.05199C6.94549 14.2143 6.58947 14.8222 6.05486 15.2443C5.52024 15.6663 4.84626 15.8715 4.16715 15.819C3.48805 15.7664 2.85365 15.46 2.39033 14.9607C1.927 14.4615 1.66874 13.806 1.66699 13.1248C1.66605 12.4421 1.92303 11.7841 2.38648 11.2827C2.84993 10.7814 3.48565 10.4735 4.16639 10.4208C4.84713 10.3682 5.52264 10.5746 6.0577 10.9987C6.59277 11.4228 6.94789 12.0334 7.05199 12.7082H7.93408C7.92261 12.6393 7.9169 12.5696 7.91699 12.4998V11.2498C7.91699 11.014 7.98241 10.7936 8.09574 10.6057L7.94991 10.4007L2.04074 9.78942C1.93819 9.7788 1.84322 9.73054 1.77419 9.65396C1.70515 9.57739 1.66696 9.47794 1.66699 9.37484V7.9165C1.66699 7.806 1.71089 7.70002 1.78903 7.62188C1.86717 7.54374 1.97315 7.49984 2.08366 7.49984H6.50033C6.51126 7.49508 6.52238 7.49077 6.53366 7.48692L8.37533 6.864C8.76218 6.73323 9.1678 6.66652 9.57616 6.6665H12.0837V6.47317L11.4007 4.99984H9.58366V4.1665H11.667ZM13.092 6.6665L13.6712 7.9165H15.7487L14.6549 6.6665H13.092ZM8.75033 11.2498C8.75033 11.1393 8.79423 11.0333 8.87237 10.9552C8.95051 10.8771 9.05649 10.8332 9.16699 10.8332H11.2503V12.4998C11.2503 12.6103 11.2064 12.7163 11.1283 12.7945C11.0501 12.8726 10.9442 12.9165 10.8337 12.9165H9.16699C9.05649 12.9165 8.95051 12.8726 8.87237 12.7945C8.79423 12.7163 8.75033 12.6103 8.75033 12.4998V11.2498ZM13.1341 8.74025L11.717 9.99984H8.68741L7.33158 8.09692L8.64199 7.65359C8.94306 7.55176 9.25875 7.49983 9.57658 7.49984H12.5595L13.1341 8.74025ZM7.30533 9.49567L6.47699 8.33317H2.50033V8.999L7.30533 9.49567ZM14.4787 11.6407C14.114 11.9226 13.8659 12.3291 13.7819 12.7823C13.6979 13.2356 13.7838 13.7039 14.0233 14.0979C14.2627 14.4918 14.6389 14.7837 15.0799 14.9179C15.5209 15.052 15.9959 15.019 16.4142 14.8251C16.8324 14.6312 17.1645 14.29 17.3471 13.8668C17.5297 13.4435 17.55 12.9678 17.4041 12.5305C17.2582 12.0932 16.9562 11.725 16.556 11.4962C16.1558 11.2674 15.6853 11.1941 15.2345 11.2903L16.0032 12.9494C16.0457 13.049 16.0477 13.1613 16.0088 13.2623C15.97 13.3634 15.8933 13.4454 15.795 13.4909C15.6968 13.5364 15.5846 13.5418 15.4824 13.5061C15.3802 13.4704 15.2959 13.3962 15.2474 13.2994L14.4787 11.6407ZM4.37533 14.9998C4.02239 14.9997 3.67665 14.9 3.37787 14.7121C3.07909 14.5242 2.83941 14.2559 2.68638 13.9378C2.53335 13.6198 2.47319 13.265 2.51282 12.9143C2.55245 12.5636 2.69026 12.2312 2.9104 11.9553C3.13055 11.6795 3.42408 11.4713 3.75725 11.3549C4.09042 11.2384 4.4497 11.2183 4.79376 11.297C5.13783 11.3756 5.45271 11.5498 5.7022 11.7994C5.95168 12.0491 6.12565 12.3641 6.20408 12.7082H4.37533C4.26482 12.7082 4.15884 12.7521 4.0807 12.8302C4.00256 12.9083 3.95866 13.0143 3.95866 13.1248C3.95866 13.2353 4.00256 13.3413 4.0807 13.4195C4.15884 13.4976 4.26482 13.5415 4.37533 13.5415H6.20408C6.1095 13.9558 5.87707 14.3257 5.54484 14.5906C5.2126 14.8555 4.80026 14.9998 4.37533 14.9998Z" fill="#333333"/>
</svg>
