<svg width="20" height="20" viewBox="0 0 20 20" fill="none" xmlns="http://www.w3.org/2000/svg">
<g clip-path="url(#clip0_621_127)">
<path d="M9.25781 0.0234261C9.18359 0.0312386 8.95312 0.0585823 8.75 0.0820198C6.60938 0.324207 4.51953 1.35155 2.93359 2.93358C1.35156 4.51952 0.386719 6.47655 0.0742188 8.74999C0.00390625 9.23827 0.00390625 10.7617 0.0742188 11.25C0.484375 14.2266 2.07031 16.75 4.55469 18.3828C7.82422 20.5391 12.1914 20.5312 15.4766 18.3672C18.0352 16.6758 19.6758 13.9453 19.957 10.8984C20.2461 7.80858 19.0273 4.69139 16.7188 2.59764C16.332 2.24999 15.6562 1.73046 15.5195 1.67577C15.3242 1.60155 15.0898 1.8203 15.1445 2.02343C15.1562 2.07421 15.3555 2.24999 15.6211 2.45311C18.4648 4.58983 19.8633 8.08593 19.2734 11.6016C18.75 14.7226 16.5977 17.4297 13.6562 18.6758C10.7812 19.8867 7.43359 19.582 4.84375 17.8711C2.98438 16.6445 1.57422 14.75 0.980469 12.6914C-0.179688 8.67186 1.32031 4.51561 4.77344 2.17186C7.46094 0.355457 11.0039 0.0820198 13.9805 1.46874C14.1836 1.56249 14.3906 1.64061 14.4375 1.64061C14.668 1.64061 14.7734 1.30468 14.6016 1.14452C14.4609 1.01952 13.7461 0.710926 13.125 0.507801C12.0898 0.164051 11.3438 0.0429573 10.1953 0.0195198C9.75391 0.0117073 9.33203 0.0156136 9.25781 0.0234261Z" fill="currentColor"/>
<path d="M8.86719 1.73828C7.66016 1.90625 6.41016 2.37891 5.42969 3.03125C4.85938 3.41016 4.76562 3.5 4.76562 3.66406C4.76562 3.80469 4.95703 4 10.4805 9.51953C16 15.043 16.1953 15.2344 16.3359 15.2344C16.457 15.2344 16.5 15.2109 16.6133 15.0664C16.8594 14.7695 17.1875 14.2461 17.4258 13.7773C18.043 12.5664 18.3203 11.3945 18.3203 9.98828C18.3203 8.59766 18.0117 7.34375 17.3789 6.13281C16.1836 3.85938 14.0117 2.26172 11.4648 1.79297C10.9023 1.6875 9.42578 1.65625 8.86719 1.73828ZM11.3281 2.36328C14.5586 2.95313 17.0508 5.44531 17.6367 8.67188C17.7266 9.16016 17.7578 10.3867 17.6992 10.8906C17.5898 11.7656 17.3438 12.6172 16.9727 13.3789C16.7734 13.793 16.3477 14.4922 16.293 14.4922C16.2812 14.4922 14.7695 12.9922 12.9375 11.1602L9.60156 7.82422L9.65234 7.65234C9.67969 7.55859 9.70312 7.27734 9.70312 7.03125C9.70312 6.49219 9.61328 6.12891 9.36328 5.64844C8.83203 4.625 7.78906 4.30078 7.07812 4.94141L6.88672 5.11328L6.1875 4.41016C5.51562 3.73438 5.49219 3.70313 5.56641 3.64844C5.77344 3.48828 6.38281 3.13281 6.69922 2.98438C7.34375 2.68359 8.14453 2.44141 8.78906 2.34766C8.94922 2.32422 9.125 2.29688 9.17969 2.28906C9.4375 2.24609 10.9766 2.29688 11.3281 2.36328ZM8.23047 5.27344C8.60938 5.44531 8.95703 5.97656 9.07812 6.57031C9.14453 6.88672 9.16016 7.23438 9.11328 7.28125C9.08203 7.3125 7.34375 5.58984 7.34375 5.52344C7.34375 5.5 7.38281 5.44531 7.43359 5.40234C7.66797 5.1875 7.94531 5.14063 8.23047 5.27344Z" fill="currentColor"/>
<path d="M11.6484 4.6875C11.2422 4.83203 10.7812 5.26172 10.7812 5.49609C10.7812 5.64062 10.9219 5.78125 11.0703 5.78125C11.1484 5.78125 11.2344 5.72266 11.3984 5.5625C11.5156 5.44141 11.6875 5.30859 11.7734 5.26953C12.3945 4.98828 12.9297 5.56641 12.9297 6.51562C12.9297 7.11328 12.7383 7.64453 12.3906 8.01953C11.6406 8.82422 10.7734 8.125 10.8789 6.79297C10.9062 6.46094 10.9062 6.45703 10.8008 6.37109C10.6602 6.26562 10.5273 6.26562 10.4141 6.38281C10.2305 6.5625 10.2305 7.29297 10.4141 7.84375C10.5742 8.32422 10.8359 8.65234 11.1953 8.83203C11.3555 8.91016 11.4453 8.92578 11.7383 8.92578C12.0508 8.92578 12.1172 8.91016 12.3203 8.80859C12.7734 8.58203 13.1719 8.07031 13.3828 7.44141C13.5195 7.03125 13.5586 6.28516 13.4609 5.90625C13.2578 5.10547 12.7227 4.60547 12.0781 4.60938C11.957 4.61328 11.7617 4.64453 11.6484 4.6875Z" fill="currentColor"/>
<path d="M14.5078 7.86328C13.8047 8.09765 13.1562 8.75781 12.8828 9.53125C12.8086 9.74218 12.793 9.86718 12.793 10.2539C12.793 10.6562 12.8047 10.75 12.8789 10.9102C13.0703 11.3242 13.3711 11.5625 13.8047 11.6445C14.6953 11.8086 15.8008 10.8906 16.0938 9.74218C16.3047 8.91797 16.0664 8.23828 15.4531 7.92187C15.2539 7.8164 14.7461 7.78906 14.5078 7.86328ZM15.2188 8.46093C15.7305 8.70312 15.6797 9.71484 15.1172 10.4258C14.793 10.8359 14.2383 11.1289 13.8945 11.0742C13.3516 10.9805 13.1875 10.1797 13.5625 9.43359C13.9297 8.69922 14.7305 8.23047 15.2188 8.46093Z" fill="currentColor"/>
<path d="M3.38672 4.92953C2.96875 5.44125 2.46094 6.35922 2.1836 7.0975C1.98438 7.62094 1.8125 8.32406 1.73438 8.92563C1.65625 9.51938 1.67969 10.8553 1.77344 11.3866C2.08203 13.0702 2.83203 14.5663 3.92578 15.6913C4.26563 16.0428 4.36328 16.0819 4.53516 15.9413C4.59766 15.8905 4.625 15.828 4.625 15.7303C4.625 15.6131 4.58203 15.5467 4.34375 15.2928C3.23438 14.1053 2.54688 12.66 2.32422 11.035C2.24219 10.4686 2.26172 9.18735 2.35547 8.69125C2.50391 7.91781 2.71094 7.27719 3.02735 6.62094C3.22656 6.20688 3.65235 5.50766 3.70703 5.50766C3.71875 5.50766 4.75 6.52719 5.9961 7.77328L8.26172 10.0389L8.19141 10.1444C8.15235 10.2069 8.01953 10.4647 7.89063 10.7225C7.63281 11.2459 7.36719 11.5897 6.98047 11.91C6.65625 12.1756 6.51172 12.3553 6.35547 12.6873C6.25 12.91 6.23047 13.0038 6.21875 13.3241C6.19141 13.9373 6.38672 14.4295 6.82031 14.867C7.07422 15.1248 7.34375 15.2733 7.71485 15.3709C8.17578 15.4881 8.48438 15.4373 9.14063 15.1366C9.85156 14.8123 10.1445 14.8123 10.8438 15.1288C11.0547 15.2264 11.3359 15.3358 11.4648 15.3748C11.9063 15.4998 12.543 15.3709 12.957 15.0663L13.1484 14.9256L13.8281 15.6053C14.2539 16.035 14.4961 16.3006 14.4727 16.3241C14.4492 16.3436 14.293 16.4491 14.1211 16.5623C13.418 17.0194 12.4609 17.4022 11.5234 17.5975C10.9219 17.7264 9.73438 17.7733 9.11328 17.6991C7.88672 17.5467 6.78125 17.1483 5.76172 16.4803C5.3086 16.1834 5.17578 16.1483 5.03516 16.2733C4.98828 16.3163 4.96094 16.3905 4.96094 16.4881C4.96094 16.6248 4.98047 16.6522 5.16797 16.7889C6.125 17.4881 7.33203 17.9881 8.61328 18.2264C9.14453 18.3202 10.4805 18.3436 11.0742 18.2655C12.3164 18.1014 13.5742 17.6366 14.5742 16.9686C15.1406 16.5897 15.2344 16.4998 15.2344 16.3358C15.2344 16.1952 15.043 15.9998 9.51953 10.4803C4 4.95688 3.80469 4.76547 3.66406 4.76547C3.54297 4.76547 3.5 4.78891 3.38672 4.92953ZM12.6406 14.5663C12.5039 14.7147 12.1914 14.8202 11.875 14.8202C11.6055 14.8241 11.543 14.8045 11.1328 14.6209C10.4961 14.3397 10.418 14.3202 10 14.3202C9.58594 14.3202 9.50781 14.3397 8.875 14.617C8.35938 14.8436 8.1211 14.8827 7.8086 14.7928C7.21875 14.6209 6.79688 14.0506 6.79688 13.4217C6.79688 12.9764 6.86719 12.8475 7.40235 12.3241C7.9961 11.742 8.10547 11.5975 8.42578 10.9608L8.67969 10.4569L10.6953 12.4725C12.6602 14.4373 12.7109 14.492 12.6406 14.5663Z" fill="currentColor"/>
<path d="M4.70313 7.85559C4.63282 7.87512 4.49219 7.94934 4.39063 8.01575C3.75782 8.43762 3.65235 9.37122 4.13282 10.3243C4.47266 11.0079 5.14063 11.5392 5.78125 11.6447C6.41797 11.7501 6.98829 11.3829 7.17188 10.7462C7.25782 10.4532 7.23047 9.87122 7.11329 9.53137C6.78125 8.56262 5.875 7.80481 5.07032 7.81653C4.9336 7.81653 4.76954 7.83606 4.70313 7.85559ZM5.56641 8.53528C6.16797 8.82825 6.64063 9.59778 6.64063 10.2697C6.63672 10.7032 6.42969 11.0197 6.10547 11.0743C5.89063 11.1095 5.51172 10.9806 5.25391 10.7853C4.37891 10.1251 4.12891 8.74622 4.82422 8.43372C4.97266 8.36731 5.32813 8.41809 5.56641 8.53528Z" fill="currentColor"/>
</g>
<defs>
<clipPath id="clip0_621_127">
<rect width="20" height="20" fill="currentColor"/>
</clipPath>
</defs>
</svg>
