<svg width="20" height="20" viewBox="0 0 20 20" fill="none" xmlns="http://www.w3.org/2000/svg">
<g clip-path="url(#clip0_621_135)">
<path d="M9.29687 0.0234375C9.22266 0.03125 8.99219 0.0585938 8.78906 0.078125C7.5 0.21875 6.07422 0.703125 4.92187 1.39062C3.45703 2.26562 2.26562 3.45703 1.39062 4.92188C0.707031 6.0625 0.253906 7.39062 0.0703125 8.78906C0.0078125 9.26953 0.0078125 10.7305 0.0703125 11.2109C0.390625 13.6445 1.46094 15.7031 3.27344 17.3867C4.27344 18.3203 5.51953 19.0469 6.875 19.4922C7.94531 19.8477 8.79297 19.9766 10 19.9766C10.8906 19.9766 11.2852 19.9414 12.0703 19.7812C14.7617 19.2305 17.1641 17.5039 18.6094 15.0781C19.293 13.9375 19.7461 12.6094 19.9297 11.2109C19.9922 10.7305 19.9922 9.26953 19.9297 8.78906C19.7461 7.39062 19.293 6.0625 18.6094 4.92188C17.7344 3.45703 16.543 2.26562 15.0781 1.39062C13.9492 0.714844 12.6016 0.253906 11.25 0.078125C10.9062 0.03125 9.53906 -0.00390625 9.29687 0.0234375ZM11.3281 0.878906C13.2578 1.17578 14.9844 2.02344 16.4023 3.37891C17.6055 4.52734 18.5469 6.15625 18.9414 7.77344C19.1445 8.61328 19.1953 9.07031 19.1953 10C19.1953 10.9297 19.1445 11.3867 18.9414 12.2266C18.3984 14.4414 16.9844 16.4297 15.0391 17.707C13.9141 18.4453 12.6758 18.9141 11.2891 19.1289C10.6641 19.2227 9.33594 19.2227 8.71094 19.1289C6.73437 18.8242 5.02734 17.9844 3.59766 16.6211C2.39453 15.4727 1.45312 13.8438 1.05859 12.2266C0.855469 11.3867 0.804687 10.9297 0.804687 10C0.804687 9.07031 0.855469 8.61328 1.05859 7.77344C1.60156 5.55859 3.01562 3.57031 4.96094 2.29297C6.24219 1.45312 7.61328 0.980469 9.27734 0.804688C9.60547 0.769531 10.9336 0.820312 11.3281 0.878906Z" fill="currentColor"/>
<path d="M9.41406 2.36719C9.35938 2.375 9.16016 2.40234 8.96484 2.42578C5.96094 2.80078 3.34766 5.12109 2.59766 8.08203C2.41406 8.8125 2.36719 9.19141 2.36719 9.98047C2.36719 10.7695 2.40234 11.0898 2.5625 11.7734C2.84766 13 3.44922 14.1484 4.31641 15.1172C4.58203 15.4141 4.66016 15.4648 4.84375 15.4688C4.97266 15.4688 5.23828 15.2109 10.2227 10.2227C15.2109 5.23828 15.4688 4.97266 15.4688 4.84375C15.4648 4.66016 15.4141 4.58203 15.1172 4.31641C13.9883 3.30859 12.6523 2.67578 11.1523 2.4375C10.8047 2.38281 9.60156 2.33203 9.41406 2.36719ZM11.0156 3.20312C12.2539 3.40234 13.3438 3.87891 14.3047 4.64453L14.5273 4.82422L14.2539 5.10156L13.9766 5.37891L13.6289 5.11719C13.2109 4.80469 12.6836 4.51172 12.1992 4.32031C11.6875 4.12109 11.5117 4.13672 11.3828 4.38281C11.3086 4.52734 11.3359 4.72656 11.4453 4.82422C11.4844 4.85938 11.6875 4.95703 11.8984 5.04297C12.1055 5.125 12.3945 5.25781 12.5352 5.33594C12.8047 5.48438 13.3984 5.89453 13.3984 5.93359C13.3984 5.94531 12.6016 6.75391 11.6328 7.72266L9.86328 9.48828L7.34375 9.5L4.82422 9.51172L4.60156 9.62109C4.21484 9.8125 4.01953 10.1211 3.99219 10.5977C3.98047 10.8242 3.99219 10.9453 4.04297 11.0859C4.14844 11.3633 4.35547 11.5977 4.60547 11.7148L4.82422 11.8164L6.16406 11.8359L7.5 11.8555L6.16406 13.1914L4.82422 14.5312L4.64453 14.3047C3.87109 13.3359 3.40234 12.2617 3.19922 10.9961C3.13281 10.5938 3.13281 9.41016 3.19922 9.00391C3.39453 7.77734 3.89062 6.64844 4.64453 5.70703C4.75391 5.57031 4.84375 5.46875 4.84375 5.48438C4.84375 5.5 4.79688 5.60156 4.73828 5.71484C4.64453 5.89062 4.62891 5.96484 4.62891 6.25C4.62891 6.54688 4.64453 6.60547 4.75781 6.82422C4.82422 6.95703 4.88281 7.11328 4.88281 7.16797C4.88281 7.22266 4.82812 7.37891 4.75781 7.51172C4.66016 7.70312 4.63281 7.80469 4.63281 7.99609C4.62891 8.21094 4.64062 8.25391 4.73828 8.34766C4.95703 8.56641 5.32031 8.44141 5.375 8.12891C5.38672 8.05078 5.45312 7.875 5.51953 7.73828C5.62891 7.51562 5.64453 7.44531 5.64453 7.16797C5.64453 6.88281 5.62891 6.82031 5.51953 6.60156C5.44922 6.46875 5.39062 6.31641 5.39062 6.26953C5.39062 6.21875 5.44531 6.05859 5.51562 5.91406C5.67188 5.58203 5.69922 5.28125 5.60547 4.99219L5.53906 4.78516L5.69141 4.65625C5.94531 4.4375 6.52344 4.0625 6.89453 3.87891C7.71875 3.46094 8.375 3.27734 9.45312 3.14844C9.67578 3.12109 10.7422 3.16016 11.0156 3.20312ZM5.50781 10.6641V11.0547H5.27344C5.02344 11.0547 4.83203 10.9844 4.78906 10.8789C4.77734 10.8438 4.76562 10.7422 4.76562 10.6562C4.76562 10.5391 4.79297 10.4766 4.87891 10.3867C4.98438 10.2852 5.01953 10.2734 5.25 10.2734H5.50781V10.6641ZM8.69141 10.6641L8.30078 11.0547H7.31641H6.32812V10.6641V10.2734H7.70312H9.08203L8.69141 10.6641Z" fill="currentColor"/>
<path d="M10.0391 3.94922C9.83594 4.03125 9.74219 4.30078 9.84376 4.49609C9.89454 4.58984 10.082 4.6875 10.2109 4.6875C10.3399 4.6875 10.5313 4.51953 10.5586 4.38672C10.582 4.26562 10.5117 4.07031 10.4219 3.99609C10.3359 3.92578 10.1524 3.90234 10.0391 3.94922Z" fill="currentColor"/>
<path d="M16.3477 6.36313C16.3047 6.38266 14.0391 8.63266 11.3086 11.3631C6.40234 16.2733 6.34766 16.328 6.34766 16.4803C6.34766 16.6873 6.4375 16.7772 6.82031 16.9608C9.05859 18.0155 11.8633 17.8436 13.9961 16.5194C16.7422 14.8163 18.1328 11.6131 17.4961 8.45688C17.3516 7.73422 16.9219 6.60532 16.7305 6.43735C16.6367 6.35141 16.4531 6.31625 16.3477 6.36313ZM16.4961 7.77328C16.6211 8.13266 16.7344 8.58969 16.8008 9.00375C16.8672 9.41391 16.8672 10.5584 16.8008 10.9764C16.5898 12.3202 16.0273 13.5389 15.1641 14.5155C14.0664 15.7616 12.6328 16.5428 10.9766 16.8006C10.5586 16.867 9.41406 16.867 9.00391 16.8006C8.61719 16.7381 7.99219 16.5858 7.74219 16.4881C7.64062 16.4491 7.52344 16.4061 7.48438 16.3905C7.41797 16.367 7.44531 16.3241 7.69922 16.0702C8.02344 15.742 7.96875 15.7538 8.49609 15.8944C8.90625 16.0077 9.54297 16.0936 9.98047 16.0936C10.4609 16.0936 11.0117 16.0233 11.1523 15.9413C11.3828 15.8084 11.3789 15.4373 11.1406 15.3006C11.0234 15.2303 10.9883 15.2303 10.6016 15.2772C10.1211 15.3319 9.45312 15.3045 9 15.2147C8.83203 15.1795 8.68359 15.1405 8.67188 15.1327C8.66406 15.1209 9.39453 14.3748 10.293 13.4764L11.9336 11.8358H13.8008H15.6719L15.7812 11.7264C15.9297 11.578 15.9492 11.4217 15.9297 10.5233C15.9219 10.0077 15.9023 9.75766 15.8672 9.69516C15.7734 9.52719 15.6016 9.49203 14.9141 9.49203H14.2773L15.3125 8.45688C15.8789 7.89047 16.3555 7.43735 16.3711 7.45297C16.3828 7.4686 16.4414 7.61313 16.4961 7.77328ZM15.1172 10.6639V11.0545H13.918H12.7148L13.1055 10.6639L13.4961 10.2733H14.3047H15.1172V10.6639Z" fill="currentColor"/>
<path d="M12.2773 14.8046C12.1523 14.8554 12.0547 15.0273 12.0586 15.1875C12.0625 15.2929 12.0937 15.3554 12.1836 15.4375C12.3203 15.5585 12.4492 15.5742 12.6172 15.4882C13.043 15.2695 12.7226 14.625 12.2773 14.8046Z" fill="currentColor"/>
</g>
<defs>
<clipPath id="clip0_621_135">
<rect width="20" height="20" fill="white"/>
</clipPath>
</defs>
</svg>
