<svg width="20" height="20" viewBox="0 0 20 20" fill="none" xmlns="http://www.w3.org/2000/svg">
<path d="M9.0752 1.91985C8.95752 1.93011 8.81836 1.96966 8.7085 2.02386C8.41992 2.16595 8.20947 2.43841 8.14746 2.74895C8.12939 2.83831 8.125 2.89251 8.125 3.01165C8.125 3.12737 8.12988 3.16985 8.15283 3.25188C8.26074 3.64202 8.64697 4.09954 9.28906 4.59807C9.50635 4.76653 9.8667 5.01458 9.92432 5.03509C9.95459 5.04583 9.99609 5.04632 10.0254 5.03606C10.0698 5.02093 10.3574 4.82708 10.5615 4.67473C11.2607 4.15227 11.6914 3.65227 11.7939 3.24261C11.8149 3.16009 11.8179 3.12542 11.8154 2.97747C11.813 2.85345 11.8115 2.83245 11.7998 2.77141C11.7241 2.37884 11.4385 2.06438 11.0586 1.95598C10.9487 1.92473 10.8271 1.91106 10.731 1.91936C10.5171 1.93743 10.3223 2.018 10.1553 2.15764C10.0991 2.20452 10.0562 2.25042 10.0063 2.31682C9.98584 2.34368 9.96875 2.36614 9.96826 2.36712C9.96777 2.36761 9.95312 2.34905 9.93604 2.32561C9.90088 2.27727 9.80957 2.18108 9.76123 2.14153C9.60742 2.01604 9.40967 1.93645 9.20654 1.91936C9.14209 1.9135 9.14355 1.9135 9.0752 1.91985ZM9.24316 2.2387C9.45166 2.27288 9.6377 2.40179 9.74658 2.58831C9.77344 2.63421 9.79785 2.69329 9.81543 2.75384C9.8335 2.81682 9.84229 2.83391 9.86914 2.85979C9.92969 2.91839 10.0278 2.91741 10.0864 2.85735C10.1089 2.83391 10.1221 2.80608 10.1387 2.74505C10.1694 2.63421 10.2393 2.518 10.3267 2.43255C10.3794 2.38128 10.4375 2.34075 10.5103 2.30462C10.6133 2.25335 10.7041 2.23089 10.8057 2.2304C10.9365 2.2304 11.0845 2.2802 11.2046 2.36468C11.2573 2.40179 11.3359 2.47991 11.3735 2.53264C11.4473 2.63616 11.4951 2.76214 11.5088 2.88665C11.5161 2.95696 11.5151 3.07268 11.5063 3.12298C11.4565 3.40862 11.1621 3.78216 10.6494 4.20989C10.4785 4.35198 10.2744 4.5053 10.0762 4.63958L9.98193 4.70305L9.92139 4.66253C9.60693 4.45208 9.28613 4.19817 9.03564 3.96184C8.70801 3.65276 8.50195 3.35637 8.45947 3.13421C8.44971 3.0805 8.44971 2.92229 8.45947 2.85345C8.48291 2.6972 8.55322 2.55901 8.66895 2.44329C8.79492 2.3178 8.9292 2.25384 9.11865 2.22991C9.13965 2.22698 9.19531 2.23089 9.24316 2.2387Z" fill="currentColor"/>
<path d="M7.19921 2.99525C7.16259 3.01234 7.14257 3.03236 7.11035 3.08509C7.07861 3.13636 7.04199 3.1808 7.00585 3.21156C6.94873 3.26087 6.8623 3.30189 6.7749 3.32044C6.70507 3.33558 6.55273 3.339 6.45507 3.32826C6.30078 3.31068 6.10644 3.26283 5.9082 3.19349C5.85302 3.17445 5.7871 3.1515 5.76171 3.14222C5.5747 3.07679 5.33789 3.08167 5.14209 3.15492C5.04687 3.19056 5.00097 3.21644 4.86084 3.31312C4.61865 3.48011 4.46191 3.70033 4.39209 3.97181C4.36474 4.07923 4.35888 4.13587 4.36181 4.26771C4.36865 4.57289 4.43798 4.85267 4.57421 5.12953L4.61767 5.21742L4.62109 5.28187C4.63476 5.54017 4.71582 5.78333 4.86084 6.00111C4.91992 6.08997 4.95849 6.13587 5.04345 6.22083C5.15918 6.33656 5.27734 6.42054 5.42236 6.49183C5.56103 6.5597 5.6875 6.59876 5.85449 6.62464C5.92578 6.63587 6.15332 6.63685 6.22558 6.62708C6.39599 6.60267 6.53076 6.56165 6.68212 6.48695C7.10058 6.28089 7.38867 5.8849 7.46191 5.41468C7.47119 5.35414 7.47265 5.32533 7.47265 5.20765C7.47265 5.09046 7.47119 5.06117 7.46191 5.0016C7.44189 4.87318 7.4082 4.75648 7.35644 4.63539L7.33056 4.57533L7.35693 4.55531C7.40234 4.51966 7.48779 4.4264 7.52441 4.37171C7.60839 4.24622 7.65576 4.11781 7.67138 3.97132C7.67871 3.90492 7.67138 3.76087 7.65625 3.66956C7.6289 3.50208 7.55859 3.3307 7.4248 3.10706C7.37646 3.02552 7.36425 3.01185 7.32421 2.99378C7.29199 2.97914 7.23242 2.97962 7.19921 2.99525ZM5.55517 3.40394C5.57617 3.40638 5.6206 3.41859 5.65429 3.43031C5.68798 3.44203 5.75927 3.46693 5.81347 3.48548C6.02441 3.55921 6.21337 3.6056 6.41601 3.63392C6.48828 3.64369 6.72753 3.64222 6.78955 3.63148C6.8955 3.61292 7.00097 3.57728 7.07861 3.5348C7.11669 3.5138 7.18115 3.4679 7.2207 3.43421L7.24511 3.41322L7.26562 3.45619C7.33593 3.59974 7.36621 3.73792 7.36181 3.89417C7.35986 3.98646 7.35205 4.02357 7.32177 4.09339C7.2915 4.16419 7.26171 4.20765 7.20459 4.26576C7.1416 4.32923 7.09082 4.36439 6.98681 4.41615C6.72558 4.54603 6.43408 4.56165 6.14502 4.46107C5.87841 4.36781 5.65673 4.24085 5.45019 4.06312C5.41748 4.0348 5.37939 4.00208 5.36621 3.99085C5.32714 3.95765 5.27294 3.94691 5.22314 3.96205C5.16015 3.98109 5.01806 4.09876 4.9414 4.19496C4.87304 4.2804 4.79736 4.42445 4.73877 4.57972C4.72998 4.60218 4.72168 4.61878 4.72021 4.61634C4.71875 4.6139 4.71191 4.57777 4.70507 4.53626C4.67529 4.35853 4.66552 4.19496 4.67968 4.11878C4.70214 4.00111 4.74365 3.89808 4.80859 3.80091C4.87353 3.70374 4.94726 3.63392 5.07519 3.54847C5.20312 3.46253 5.31494 3.41908 5.44775 3.40394C5.49658 3.39808 5.51269 3.39808 5.55517 3.40394ZM5.32519 4.37025C5.60888 4.59828 5.97363 4.77015 6.27929 4.81898C6.52148 4.85804 6.75781 4.83753 6.99121 4.75794C7.02734 4.74574 7.05712 4.73646 7.05761 4.73744C7.05859 4.73841 7.06689 4.75746 7.07666 4.7804C7.11132 4.86195 7.13623 4.95277 7.15136 5.05042C7.16357 5.1266 7.16357 5.28382 7.15136 5.3639C7.07763 5.85462 6.70996 6.22865 6.2207 6.31117C6.15722 6.32191 6.00634 6.3263 5.93701 6.31898C5.64794 6.28919 5.37548 6.14564 5.19433 5.92738C5.02148 5.71888 4.93164 5.46986 4.93164 5.19789C4.93164 4.93226 5.04687 4.57533 5.1914 4.39222C5.20849 4.37074 5.25439 4.31849 5.25732 4.31703C5.2583 4.31654 5.28857 4.34046 5.32519 4.37025Z" fill="currentColor"/>
<path d="M13.7109 3.582C13.4878 3.59665 13.313 3.63327 13.1352 3.70114C12.8804 3.79879 12.6724 3.93405 12.4805 4.12594C12.3276 4.27829 12.2163 4.43454 12.1411 4.60055C12.1211 4.64499 11.7622 5.50583 11.3428 6.51413C10.9233 7.52243 10.5688 8.37252 10.5542 8.40329C10.4751 8.57272 10.4453 8.69381 10.4409 8.86276C10.4355 9.05661 10.4673 9.21041 10.5469 9.37252C10.6689 9.62252 10.8755 9.78756 11.1352 9.84372C11.2104 9.86032 11.3545 9.86276 11.4331 9.84958C11.5054 9.83688 11.5659 9.81979 11.6245 9.7944C11.6494 9.78415 11.6714 9.77536 11.6728 9.77536C11.6797 9.77536 11.6572 9.98288 11.6382 10.0962C11.5576 10.5756 11.3203 10.9223 10.9399 11.1167C10.6963 11.2407 10.4248 11.3012 10.0547 11.313C9.95019 11.3164 9.93652 11.3173 9.91406 11.3276C9.88281 11.3413 9.84765 11.3769 9.833 11.4087C9.81689 11.4448 9.81786 11.497 9.83495 11.5341C9.85009 11.5664 9.8789 11.5962 9.91113 11.6118C9.93359 11.623 9.93701 11.6235 10.0586 11.623C10.376 11.6211 10.6772 11.5669 10.9414 11.4638C11.0303 11.4292 11.1714 11.3554 11.2485 11.3037C11.3437 11.2402 11.3901 11.2026 11.4692 11.1255C11.6504 10.9487 11.7744 10.748 11.8633 10.4863C11.9253 10.3042 11.9692 10.0698 11.9761 9.8862C11.9775 9.8442 11.9805 9.80954 11.9824 9.80954C11.9844 9.80954 12.0171 9.83053 12.0552 9.85592C12.1626 9.9277 12.2685 9.97555 12.3804 10.0029C12.4365 10.0166 12.4731 10.0175 12.4985 10.0073C12.5083 10.0034 12.5171 10.0005 12.5181 10.0014C12.519 10.0024 12.5327 10.0371 12.5483 10.0786C12.583 10.1699 12.6299 10.2729 12.6704 10.3462C12.6865 10.3759 12.7002 10.4018 12.7002 10.4028C12.7002 10.4043 12.6865 10.4121 12.6699 10.4204C12.6206 10.4453 12.5122 10.5112 12.4292 10.5664C11.4297 11.2343 10.7231 12.5605 10.5644 14.0673C10.5303 14.3916 10.52 14.7881 10.5376 15.1172C10.5864 16.0395 10.874 16.9482 11.3672 17.7387C11.4736 17.9091 11.5469 18.0127 11.5742 18.0312C11.6235 18.0644 11.4258 18.0615 13.8013 18.0605L15.9546 18.059L15.979 18.0478C16.0142 18.0317 16.0347 18.0097 16.0913 17.9272C16.376 17.5117 16.6157 17.0268 16.7739 16.5454C16.918 16.1069 17.001 15.6875 17.0391 15.2026C17.0493 15.0698 17.0537 14.6318 17.0464 14.4673C17.0249 14.0009 16.9629 13.5859 16.8525 13.1665C16.6406 12.3642 16.2744 11.6621 15.7847 11.1191L15.7261 11.0542L15.7519 10.9897C15.8091 10.8466 15.8594 10.6728 15.8857 10.5249C15.9209 10.3305 15.9297 10.1826 15.9209 9.91256C15.917 9.7944 15.9175 9.77438 15.9233 9.77682C16.0859 9.84518 16.1626 9.86129 16.314 9.85739C16.3887 9.85543 16.4136 9.8525 16.4619 9.84176C16.6802 9.79147 16.8525 9.67233 16.9785 9.48532C17.0615 9.36129 17.1167 9.21725 17.1416 9.05758C17.1538 8.97897 17.1543 8.81247 17.1421 8.73776C17.124 8.62985 17.0933 8.52926 17.0498 8.43747C17.0366 8.40915 16.6743 7.54782 16.2446 6.5234C15.8149 5.49899 15.4487 4.62643 15.4311 4.58493C15.3677 4.43502 15.2534 4.27633 15.0977 4.12106C14.7988 3.82223 14.4067 3.63522 13.9883 3.59176C13.9175 3.58395 13.7598 3.57858 13.7109 3.582ZM13.9194 3.90182C14.2456 3.92916 14.5488 4.05563 14.7974 4.26803C14.8525 4.31491 14.9531 4.41842 14.9966 4.47262C15.061 4.5527 15.1206 4.64743 15.1558 4.72702C15.1743 4.76852 15.5391 5.63815 15.9668 6.66012C16.394 7.68209 16.7524 8.53659 16.7622 8.55954C16.9077 8.88522 16.8188 9.29049 16.5644 9.4609C16.5181 9.49166 16.4834 9.50778 16.4282 9.52389C16.3042 9.55954 16.1831 9.54831 16.0508 9.48776C15.9888 9.45944 15.9473 9.44528 15.9033 9.43747C15.8857 9.43454 15.8711 9.43161 15.8701 9.43112C15.8696 9.43063 15.854 9.32174 15.835 9.18893C15.8164 9.05612 15.7915 8.87936 15.7793 8.79635C15.7671 8.71286 15.7519 8.60104 15.7446 8.54733C15.7202 8.3569 15.6909 8.25192 15.6255 8.11764C15.4521 7.76461 15.123 7.5278 14.729 7.47262C14.6499 7.46188 14.4985 7.46139 14.4687 7.47213C14.3789 7.50583 14.3384 7.60397 14.3794 7.68795C14.397 7.7236 14.4199 7.74557 14.4565 7.76217C14.4805 7.77291 14.4897 7.77438 14.5669 7.77584C14.7158 7.77829 14.8335 7.80612 14.9585 7.86862C15.0386 7.90866 15.0996 7.95211 15.1675 8.01754C15.2476 8.0942 15.2969 8.1611 15.3437 8.25485C15.394 8.35592 15.416 8.436 15.4346 8.58395C15.4404 8.62838 15.4609 8.7778 15.481 8.91598C15.5283 9.24752 15.5576 9.45895 15.5557 9.45993C15.5547 9.4609 15.5327 9.47262 15.5063 9.48678C15.48 9.50045 15.4194 9.53561 15.3721 9.56393C15.2988 9.60788 15.1465 9.68942 15.1435 9.686C15.1435 9.68551 15.1489 9.65426 15.1567 9.61715C15.1841 9.48141 15.1953 9.34811 15.1855 9.26217C15.1704 9.12252 15.1191 8.98776 15.0356 8.87057C14.9976 8.81686 14.9058 8.72604 14.8486 8.68502C14.7598 8.62204 14.6338 8.56881 14.519 8.54635C14.4502 8.53268 14.2876 8.53415 14.2187 8.54928C14.064 8.58249 13.9287 8.65231 13.8223 8.75436L13.7891 8.78561L13.7563 8.75387C13.6489 8.65084 13.5049 8.5776 13.3486 8.54733C13.291 8.5361 13.1811 8.53268 13.1147 8.54C12.6792 8.58737 12.3603 8.97018 12.3926 9.40719C12.3984 9.48629 12.4121 9.58541 12.4268 9.65231C12.4316 9.67526 12.4351 9.69528 12.4346 9.69625C12.4292 9.70114 12.3057 9.63375 12.1777 9.55563C12.123 9.52243 12.0503 9.48336 12.0308 9.47653C12.0264 9.47506 12.0464 9.32663 12.1113 8.87448C12.1313 8.73483 12.1514 8.59176 12.1558 8.55709C12.1802 8.35397 12.2568 8.1904 12.3921 8.04977C12.5625 7.87399 12.7788 7.78317 13.0273 7.78317C13.083 7.78317 13.1001 7.78122 13.1201 7.77389C13.1582 7.75924 13.1855 7.73434 13.2041 7.69625C13.2353 7.63278 13.2227 7.56198 13.1709 7.51461C13.1289 7.47604 13.1172 7.47311 13.0005 7.47311C12.894 7.4736 12.8315 7.48043 12.7441 7.50045C12.6226 7.52877 12.4668 7.59616 12.3633 7.665C12.085 7.85104 11.8975 8.14645 11.8525 8.47116C11.7705 9.05954 11.7148 9.43502 11.7085 9.43893C11.7046 9.44137 11.6968 9.44333 11.6914 9.44333C11.6704 9.44333 11.5933 9.46872 11.5356 9.49459C11.4302 9.54147 11.3735 9.55368 11.2759 9.54977C11.0791 9.54196 10.9204 9.43307 10.8296 9.24459C10.7837 9.1484 10.7622 9.05661 10.7583 8.93698C10.7539 8.80563 10.7739 8.69333 10.8208 8.58786C10.8315 8.56295 11.1929 7.69772 11.6235 6.665C12.0537 5.63229 12.4204 4.75534 12.438 4.7153C12.4971 4.58297 12.6035 4.44088 12.7417 4.31149C12.9893 4.07907 13.3208 3.93161 13.6621 3.90182C13.7314 3.89596 13.8486 3.89596 13.9194 3.90182ZM13.2886 8.86471C13.4448 8.89206 13.5742 8.98678 13.6504 9.13083C13.6807 9.18747 13.73 9.21969 13.7886 9.22067C13.8506 9.22116 13.9033 9.1904 13.9331 9.13473C14.0015 9.00729 14.1069 8.92086 14.2456 8.87838C14.2866 8.86618 14.2954 8.8652 14.3799 8.8652C14.4643 8.8652 14.4731 8.86618 14.5137 8.87838C14.7002 8.936 14.8306 9.07614 14.8686 9.26022C14.8804 9.31637 14.8804 9.36618 14.8682 9.45993C14.8335 9.7319 14.7417 10.0078 14.6074 10.2461C14.5869 10.2822 14.5703 10.313 14.5703 10.3149C14.5703 10.3164 14.5635 10.3281 14.5547 10.3403C14.4619 10.4756 14.2261 10.5976 13.977 10.6401C13.9018 10.6528 13.7524 10.6577 13.6816 10.6499C13.4907 10.6284 13.3164 10.5673 13.1689 10.4702C13.0879 10.4165 13.0483 10.3715 12.9853 10.2631C12.8379 10.0068 12.7388 9.69772 12.7095 9.40329C12.6953 9.2612 12.7358 9.13571 12.8315 9.02438C12.9385 8.89987 13.1221 8.8359 13.2886 8.86471ZM15.6035 10.0366C15.6108 10.2871 15.5762 10.5268 15.4976 10.7651C15.4868 10.7983 15.4766 10.8252 15.4751 10.8252C15.4736 10.8252 15.4565 10.8115 15.4375 10.7944C15.3022 10.6748 15.1201 10.5449 14.9507 10.4467L14.875 10.4033L14.9224 10.31C14.9697 10.2173 15.0093 10.1289 15.0395 10.0464C15.0483 10.0219 15.0557 10.0019 15.0557 10.0014C15.0561 10.0009 15.0693 10.0053 15.0854 10.0107C15.1143 10.0205 15.1157 10.0205 15.1587 10.0122C15.2222 10.0005 15.3247 9.9653 15.3926 9.93209C15.4253 9.91647 15.4834 9.8818 15.5225 9.85592L15.5933 9.80856L15.5967 9.86422C15.5981 9.8945 15.6016 9.97213 15.6035 10.0366ZM12.9033 10.6743C12.9658 10.7251 13.1064 10.8076 13.2021 10.8491C13.4775 10.9697 13.7988 11.0005 14.0967 10.934C14.2871 10.8921 14.481 10.8056 14.6289 10.6967C14.6616 10.6728 14.6665 10.6704 14.6753 10.6757C14.6807 10.6792 14.7139 10.6982 14.7485 10.7177C14.9448 10.8276 15.1592 10.9824 15.2891 11.1074L15.312 11.1294L15.2944 11.1543C15.1899 11.3003 15.0513 11.4384 14.9058 11.542C14.7378 11.6611 14.5239 11.7568 14.3286 11.7993C14.2812 11.8095 14.2495 11.8252 14.2256 11.8491C14.167 11.9077 14.167 12.0088 14.2261 12.0678C14.2754 12.1167 14.3306 12.123 14.4458 12.0927C14.8638 11.9829 15.2319 11.7436 15.4912 11.4135C15.5151 11.3833 15.5361 11.3579 15.5381 11.3579C15.542 11.3574 15.6401 11.4658 15.6987 11.5361C15.7588 11.6079 15.8569 11.7392 15.9194 11.831C16.3437 12.4575 16.6206 13.2607 16.709 14.1211C16.7451 14.4746 16.7476 14.873 16.7163 15.2392C16.6938 15.4995 16.6416 15.8188 16.5796 16.0781C16.5625 16.1489 16.561 16.1528 16.5508 16.1499C16.5454 16.1484 16.5132 16.145 16.4795 16.1425C16.375 16.1347 16.3061 16.1167 16.2231 16.0766C16.1284 16.0312 16.0381 15.9506 15.9746 15.8554C15.9375 15.7998 15.9224 15.7851 15.8862 15.7685C15.8682 15.7597 15.853 15.7568 15.8271 15.7568C15.7607 15.7568 15.7227 15.7807 15.6748 15.8535C15.5801 15.9975 15.4214 16.1006 15.2495 16.1298C15.126 16.1508 14.9902 16.1323 14.8745 16.0786C14.7793 16.0351 14.6821 15.9531 14.623 15.8672C14.5625 15.7793 14.5293 15.7568 14.4609 15.7568C14.4009 15.7568 14.3589 15.7832 14.3193 15.8452C14.2251 15.9946 14.0737 16.0962 13.8935 16.1308C13.8354 16.1421 13.728 16.1421 13.6704 16.1308C13.498 16.0976 13.3511 16 13.248 15.8496C13.1968 15.7744 13.1616 15.7539 13.0913 15.7578C13.062 15.7592 13.0483 15.7631 13.0278 15.7739C12.9985 15.79 12.9883 15.8012 12.9453 15.8632C12.8677 15.9746 12.751 16.0615 12.6226 16.1035C12.4956 16.145 12.353 16.145 12.2261 16.1035C12.0864 16.0576 11.9761 15.9721 11.8852 15.8383C11.8442 15.7783 11.8076 15.7568 11.7451 15.7568C11.6811 15.7568 11.6494 15.7778 11.5952 15.8569C11.5273 15.956 11.4463 16.0278 11.3452 16.0781C11.2695 16.1152 11.1929 16.1347 11.0889 16.1425C11.0552 16.145 11.0234 16.1484 11.0181 16.1499C11.0073 16.1533 11.0024 16.1372 10.9619 15.9497C10.8159 15.2783 10.7925 14.561 10.8935 13.8657C11.1035 12.4287 11.8359 11.2182 12.8086 10.7006C12.8413 10.6831 12.8706 10.6665 12.873 10.664C12.8804 10.6567 12.8828 10.6577 12.9033 10.6743ZM11.793 16.2036C12.0444 16.436 12.4087 16.5141 12.7368 16.4052C12.8647 16.3632 12.9736 16.2978 13.0854 16.1972L13.1123 16.1733L13.1567 16.2119C13.2759 16.3154 13.4058 16.3852 13.5498 16.4228C13.8643 16.5058 14.2104 16.4184 14.439 16.1972L14.4668 16.1709L14.5146 16.2133C14.6699 16.3496 14.8486 16.4282 15.0547 16.4502C15.3164 16.478 15.5942 16.3847 15.79 16.2036L15.8257 16.1704L15.8511 16.1948C15.999 16.3379 16.2173 16.436 16.4145 16.4487C16.4419 16.4502 16.4663 16.4531 16.4692 16.455C16.4756 16.4585 16.458 16.5175 16.4126 16.643C16.2812 17.0068 16.1143 17.3393 15.9048 17.6533C15.8691 17.707 15.8398 17.7524 15.8398 17.7548C15.8398 17.7568 14.918 17.7588 13.7915 17.7588H11.7436L11.7026 17.6987C11.5615 17.4941 11.3994 17.2011 11.2944 16.9619C11.207 16.7627 11.0996 16.4638 11.1123 16.4555C11.1157 16.4536 11.1411 16.4502 11.1685 16.4487C11.3042 16.4399 11.4712 16.3833 11.5908 16.3056C11.6406 16.2734 11.708 16.2202 11.7358 16.1919C11.7461 16.1806 11.7559 16.1718 11.7568 16.1718C11.7578 16.1718 11.7744 16.186 11.793 16.2036Z" fill="currentColor"/>
<path d="M14.4009 4.43111C14.3491 4.44576 14.3232 4.4692 14.2891 4.53365C14.248 4.61226 14.1982 4.67818 14.1274 4.74898C13.9106 4.96724 13.5391 5.1772 13.1294 5.31295C12.9131 5.38472 12.7475 5.41939 12.563 5.4316C12.4551 5.43844 12.4477 5.44039 12.4087 5.47213C12.3852 5.49117 12.3603 5.53707 12.3559 5.57174C12.352 5.59713 12.3628 5.64595 12.3765 5.66793C12.3989 5.70455 12.4316 5.72896 12.4722 5.73922L12.4975 5.74556L12.5034 5.81588C12.5391 6.22506 12.7461 6.57857 13.0835 6.80416C13.2573 6.92037 13.436 6.98726 13.6523 7.01705C13.7182 7.02633 13.9131 7.02535 13.9819 7.0151C14.146 6.99166 14.3174 6.93453 14.4507 6.85933C14.5596 6.79732 14.6484 6.72896 14.7412 6.63619C14.9448 6.4316 15.0723 6.17232 15.1103 5.88326L15.1186 5.82125L15.1377 5.81832C15.1665 5.81344 15.2007 5.79439 15.2217 5.77144C15.2724 5.7148 15.2768 5.62887 15.2324 5.57027C15.2129 5.54488 15.1933 5.5317 15.1431 5.50972C14.9682 5.43355 14.7529 5.13082 14.6484 4.81441C14.6216 4.73336 14.6084 4.67525 14.5976 4.59273C14.5928 4.55758 14.5859 4.52584 14.5796 4.51363C14.5483 4.4482 14.4692 4.41207 14.4009 4.43111ZM14.3799 4.96187C14.3799 4.97408 14.437 5.10885 14.4687 5.17281C14.5508 5.33687 14.6499 5.47799 14.771 5.60299C14.8203 5.65377 14.8271 5.66304 14.8237 5.67232C14.8218 5.67818 14.8174 5.72017 14.8149 5.7651C14.8076 5.88179 14.7954 5.94625 14.7598 6.04879C14.7109 6.19137 14.6318 6.31685 14.522 6.42574C14.355 6.59176 14.1479 6.68941 13.9116 6.71334C13.8486 6.72017 13.8135 6.72017 13.8135 6.71383C13.8135 6.7109 13.7974 6.70894 13.7754 6.70894C13.6973 6.70894 13.5923 6.6899 13.4985 6.65963C13.2822 6.58883 13.0991 6.44625 12.9687 6.24752C12.9141 6.16402 12.8594 6.03219 12.8369 5.92965C12.8252 5.87545 12.813 5.78219 12.8125 5.74361C12.8125 5.72066 12.814 5.71773 12.8237 5.71578C12.8296 5.71431 12.853 5.70943 12.876 5.70553C12.9805 5.68551 13.1445 5.6401 13.2739 5.59566C13.4341 5.54097 13.5498 5.49215 13.7109 5.41207C13.9556 5.29 14.1719 5.14449 14.3218 5.00094C14.3691 4.95553 14.3799 4.9482 14.3799 4.96187Z" fill="currentColor"/>
<path d="M5.76025 7.08545C5.71533 7.09619 5.6748 7.12891 5.65381 7.17188C5.64453 7.19043 5.64209 7.20312 5.64209 7.23633C5.64209 7.27197 5.64404 7.28174 5.65576 7.30566C5.67236 7.33984 5.70508 7.36963 5.74023 7.38281C5.76611 7.39209 5.77734 7.39258 6.06934 7.39258C6.36035 7.39258 6.37256 7.39209 6.39795 7.38281C6.43506 7.36865 6.46143 7.34424 6.48047 7.30566C6.51172 7.24219 6.49854 7.17139 6.44727 7.12402C6.43506 7.11279 6.41455 7.09863 6.40234 7.09326C6.37988 7.08252 6.37549 7.08252 6.0791 7.08154C5.91357 7.08105 5.77051 7.08301 5.76025 7.08545Z" fill="currentColor"/>
<path d="M4.2705 7.33947C3.80175 7.38488 3.37939 7.63878 3.11523 8.03429C3.00732 8.19591 2.92675 8.38976 2.88818 8.58165C2.85693 8.73595 2.85888 8.65197 2.85888 9.85851C2.85888 11.0675 2.85693 10.9928 2.88867 11.1451C2.9829 11.5963 3.26855 11.9806 3.6748 12.2023C3.85156 12.2985 4.05615 12.3614 4.26025 12.3824C4.32275 12.3893 4.4121 12.3907 4.43212 12.3859C4.44677 12.3824 4.44775 12.3829 4.45019 12.3985C4.4541 12.4264 4.64355 17.1442 4.64062 17.149C4.63915 17.1515 4.4663 17.3024 4.25634 17.4845C4.04589 17.6671 3.86767 17.8234 3.86035 17.8326C3.83593 17.8614 3.82617 17.8893 3.82617 17.9298C3.82568 17.962 3.82812 17.9713 3.84179 17.9996C3.86083 18.0377 3.89208 18.066 3.92968 18.0782C3.95068 18.0856 4.14404 18.086 6.06201 18.0851L8.17138 18.0836L8.19775 18.069C8.28368 18.0216 8.30761 17.9108 8.24853 17.836C8.23827 17.8234 8.0537 17.6608 7.83788 17.4752L7.44579 17.1378L7.44872 17.0885C7.45751 16.942 7.75927 9.61242 7.75732 9.58947C7.75439 9.5548 7.73632 9.51964 7.70849 9.49376C7.68066 9.46789 7.66552 9.46056 7.6289 9.45324C7.57763 9.44298 7.5249 9.46154 7.48779 9.50255C7.46533 9.52746 7.45263 9.55529 7.44872 9.58751C7.44726 9.6007 7.37695 11.2794 7.29247 13.318C7.208 15.3561 7.13769 17.0445 7.13574 17.0694L7.13281 17.1144H6.66454H6.19628L6.19531 14.984L6.19384 12.8541L6.18066 12.8287C6.15087 12.7721 6.10204 12.7423 6.04003 12.7418C6.00976 12.7418 5.99853 12.7443 5.97607 12.7555C5.94384 12.7711 5.91161 12.8038 5.89697 12.836L5.88622 12.859L5.88476 14.9864L5.88378 17.1144H5.41503C5.04345 17.1144 4.94628 17.1129 4.94628 17.108C4.94628 17.1051 4.89355 15.8097 4.8291 14.2301C4.76464 12.65 4.71191 11.3522 4.71191 11.3453V11.3331L5.44824 11.3321L6.18408 11.3307L6.20605 11.319C6.25829 11.2916 6.28906 11.2457 6.29296 11.1886C6.29736 11.1227 6.26757 11.0699 6.20898 11.0402L6.17529 11.0231L5.4414 11.0216L4.708 11.0206L4.70507 10.9801C4.70361 10.9581 4.68993 10.6359 4.67529 10.2638C4.6538 9.72228 4.64648 9.58263 4.64062 9.56359C4.61816 9.49279 4.55126 9.44787 4.47851 9.4547C4.40673 9.46105 4.34521 9.51964 4.33788 9.58947C4.33544 9.60851 4.42773 11.9249 4.43603 12.0553L4.43896 12.1012L4.36425 12.0983C3.93017 12.0802 3.53759 11.837 3.32372 11.4527C3.25341 11.3263 3.2041 11.1788 3.18017 11.0206C3.17187 10.9684 3.17138 10.8902 3.17138 9.87072C3.17138 8.65831 3.16943 8.74621 3.20312 8.60607C3.31396 8.14464 3.67236 7.78722 4.13329 7.67833C4.20312 7.66173 4.27587 7.65197 4.36279 7.64708C4.42968 7.64318 4.4414 7.64122 4.46484 7.62999C4.52001 7.60314 4.55273 7.55138 4.55273 7.49035C4.55322 7.45812 4.55077 7.44884 4.5371 7.42052C4.51855 7.38292 4.4912 7.35802 4.45312 7.34337C4.42577 7.33312 4.354 7.33165 4.2705 7.33947ZM5.88867 17.5929V17.7735H5.1455H4.40185L4.41406 17.7613C4.42089 17.755 4.51415 17.6735 4.62158 17.5812L4.81689 17.4122H5.35302H5.88867V17.5929ZM7.48437 17.5836C7.59374 17.6783 7.68749 17.7594 7.69286 17.7643C7.70214 17.7735 7.68359 17.7735 6.95165 17.7735H6.20117V17.5929V17.4122H6.74365H7.28564L7.48437 17.5836Z" fill="currentColor"/>
<path d="M7.64355 7.34084C7.57959 7.36183 7.5376 7.42043 7.5376 7.48879C7.5376 7.53566 7.55811 7.57961 7.59326 7.60744C7.62695 7.63429 7.65234 7.64064 7.74268 7.6465C8.05273 7.66603 8.3208 7.78371 8.54199 7.99806C8.73926 8.18947 8.86182 8.42726 8.90967 8.71096C8.91748 8.75832 8.91846 8.84426 8.9209 9.87062C8.92383 10.8643 8.9248 10.9868 8.93213 11.0547C8.96777 11.3828 9.05518 11.6402 9.20312 11.8555C9.24951 11.9234 9.28711 11.9683 9.34814 12.0293C9.53613 12.2178 9.77393 12.3325 10.0635 12.375C10.145 12.3867 10.2798 12.3936 10.3145 12.3872C10.3647 12.3784 10.4038 12.3491 10.4287 12.3023C10.4399 12.2813 10.4419 12.272 10.4419 12.2339C10.4419 12.1958 10.4399 12.1865 10.4287 12.1655C10.4116 12.1333 10.3848 12.1079 10.3516 12.0928C10.3286 12.0825 10.3145 12.0806 10.2539 12.0777C10.0044 12.0669 9.82764 12.0103 9.66504 11.8892C9.41797 11.7046 9.26709 11.3677 9.23828 10.9351C9.23535 10.8906 9.2334 10.4619 9.2334 9.83889C9.2334 9.17092 9.23145 8.7964 9.22852 8.75978C9.19922 8.43703 9.07422 8.13527 8.86816 7.89064C8.81787 7.83058 8.70654 7.7217 8.64746 7.67482C8.38574 7.46681 8.06299 7.34572 7.74414 7.33644C7.68359 7.33449 7.65869 7.33547 7.64355 7.34084Z" fill="currentColor"/>
<path d="M5.75194 7.62837C5.69383 7.64448 5.64598 7.69819 5.63719 7.7563C5.62792 7.82173 5.46825 9.66108 5.4702 9.68501C5.47167 9.70601 5.47704 9.72407 5.48876 9.74653C5.49803 9.7646 5.60448 9.95308 5.72508 10.1655C5.87108 10.4223 5.95116 10.5585 5.96385 10.5717C6.02245 10.6308 6.11669 10.6333 6.17675 10.5771C6.19774 10.5576 6.23485 10.4951 6.43309 10.144C6.56737 9.90718 6.66844 9.72261 6.67284 9.70796C6.68065 9.68208 6.6787 9.65815 6.59227 8.7314C6.54344 8.20845 6.50145 7.76899 6.49901 7.75435C6.49217 7.71724 6.47606 7.68745 6.44921 7.66352C6.40428 7.623 6.41844 7.62495 6.07665 7.62349C5.84764 7.623 5.76854 7.62397 5.75194 7.62837ZM6.28026 8.76948C6.32225 9.22749 6.35692 9.60981 6.35692 9.62007C6.35741 9.63472 6.33202 9.68306 6.21483 9.8896C6.13671 10.0283 6.07128 10.1416 6.06981 10.1416C6.06835 10.1411 6.00243 10.0273 5.92382 9.88765L5.78124 9.63423L5.85692 8.81001C5.89842 8.35688 5.93407 7.97407 5.93553 7.95991L5.93846 7.93452L6.07079 7.9355L6.20311 7.93696L6.28026 8.76948Z" fill="currentColor"/>
</svg>
