<svg width="20" height="20" viewBox="0 0 20 20" fill="none" xmlns="http://www.w3.org/2000/svg">
<path d="M5 8.75H15V3.125C15 2.95924 14.9342 2.80027 14.8169 2.68306C14.6997 2.56585 14.5408 2.5 14.375 2.5H5.625C5.45924 2.5 5.30027 2.56585 5.18306 2.68306C5.06585 2.80027 5 2.95924 5 3.125V8.75ZM5 10V16.875C5 17.0408 5.06585 17.1997 5.18306 17.3169C5.30027 17.4342 5.45924 17.5 5.625 17.5H14.375C14.5408 17.5 14.6997 17.4342 14.8169 17.3169C14.9342 17.1997 15 17.0408 15 16.875V10H5ZM5.625 1.25H14.375C14.8723 1.25 15.3492 1.44754 15.7008 1.79917C16.0525 2.15081 16.25 2.62772 16.25 3.125V16.875C16.25 17.3723 16.0525 17.8492 15.7008 18.2008C15.3492 18.5525 14.8723 18.75 14.375 18.75H5.625C5.12772 18.75 4.65081 18.5525 4.29917 18.2008C3.94754 17.8492 3.75 17.3723 3.75 16.875V3.125C3.75 2.62772 3.94754 2.15081 4.29917 1.79917C4.65081 1.44754 5.12772 1.25 5.625 1.25ZM6.25 5.625H7.5V7.5H6.25V5.625ZM6.25 11.25H7.5V13.125H6.25V11.25Z" fill="#333333"/>
</svg>
