<svg width="20" height="20" viewBox="0 0 20 20" fill="none" xmlns="http://www.w3.org/2000/svg">
<g clip-path="url(#clip0_614_46)">
<path d="M16.0117 0.67943C15.5039 0.788805 14.9102 1.10521 14.5938 1.44115L14.4766 1.56224H13.332H12.1875V1.87474V2.18724H13.125H14.0586L13.9805 2.37084C13.7109 2.99974 13.7109 3.87474 13.9805 4.49974L14.0586 4.68724H13.125H12.1875V4.99974V5.31224H13.332H14.4766L14.5938 5.43334C14.793 5.64427 15.2344 5.92943 15.543 6.05052C16.3281 6.3513 17.1445 6.30052 17.9102 5.90599C18.2852 5.71068 18.8359 5.1599 19.0313 4.7849C19.4727 3.93334 19.4844 3.0388 19.0742 2.18724C18.9219 1.87084 18.8438 1.76537 18.5391 1.46459C18.1523 1.07787 17.8516 0.894273 17.3633 0.74193C17.0156 0.632555 16.3789 0.605211 16.0117 0.67943ZM16.25 1.58177V1.87474H16.5625H16.875V1.58177C16.875 1.24193 16.875 1.24193 17.2578 1.37084C17.8828 1.58177 18.418 2.11693 18.6289 2.74193C18.7578 3.12474 18.7578 3.12474 18.418 3.12474H18.125V3.43724V3.74974H18.418C18.7539 3.74974 18.75 3.73802 18.6328 4.10912C18.4414 4.73021 17.8906 5.2888 17.2578 5.50365C16.875 5.63255 16.875 5.63255 16.875 5.29271V4.99974H16.5625H16.25V5.29271C16.25 5.63255 16.25 5.63255 15.8672 5.50365C15.2461 5.29271 14.707 4.75365 14.4961 4.13255C14.3672 3.74974 14.3672 3.74974 14.707 3.74974H15V3.43724V3.12474H14.707C14.4414 3.12474 14.4141 3.11693 14.4141 3.04662C14.4141 2.93724 14.5781 2.49974 14.6953 2.29662C14.8242 2.07787 15.2031 1.70287 15.4258 1.57005C15.6328 1.44896 16.043 1.29271 16.1641 1.29271C16.2461 1.2888 16.25 1.30443 16.25 1.58177Z" fill="currentColor"/>
<path d="M16.25 2.8125V3.125H15.9375H15.625V3.4375V3.75H16.1523C16.6641 3.75 16.6875 3.74609 16.7773 3.65234C16.8711 3.5625 16.875 3.53906 16.875 3.02734V2.5H16.5625H16.25V2.8125Z" fill="currentColor"/>
<path d="M10.9375 1.875V2.1875H11.25H11.5625V1.875V1.5625H11.25H10.9375V1.875Z" fill="currentColor"/>
<path d="M10.3125 3.4375V3.75H10.625H10.9375V3.4375V3.125H10.625H10.3125V3.4375Z" fill="currentColor"/>
<path d="M11.5625 3.4375V3.75H12.3438H13.125V3.4375V3.125H12.3438H11.5625V3.4375Z" fill="currentColor"/>
<path d="M8.67188 4.68746L8.06641 4.99606L7.07031 4.99996C6.15625 4.99996 6.05859 5.00778 5.89844 5.08199C5.67969 5.17965 5.52734 5.32418 5.41797 5.52731C5.30078 5.74606 5.30469 6.13278 5.41797 6.35153C5.51172 6.5234 5.72656 6.73434 5.85547 6.77731C5.93359 6.80074 5.9375 6.82809 5.9375 7.46481V8.12496H4.625C3.73047 8.12496 3.26172 8.14059 3.15625 8.17184C2.96875 8.22653 2.68359 8.46871 2.61719 8.63278L2.57031 8.74996H2C1.67188 8.74996 1.36719 8.76949 1.27344 8.79684C1.05859 8.85934 0.734375 9.18356 0.671875 9.3984C0.605469 9.62106 0.605469 14.7695 0.671875 14.9648C0.695312 15.039 0.75 15.1445 0.789062 15.2031C0.863281 15.3125 0.863281 15.3125 0.789062 15.4179C0.660156 15.6054 0.625 15.7812 0.625 16.2422C0.625 16.8164 0.667969 16.9609 0.917969 17.207C1.12109 17.414 1.31641 17.5 1.57422 17.5C1.73438 17.5 1.6875 17.3867 2.01562 18.5351C2.25781 19.3945 2.24219 19.375 2.8125 19.375C3.38281 19.375 3.36719 19.3945 3.60938 18.5351C3.71484 18.1679 3.82422 17.789 3.85547 17.6836L3.91016 17.5H4.29688H4.6875V17.6562V17.8125H4.47266C4.29297 17.8125 4.23828 17.8281 4.16016 17.9101C4.06641 18 4.0625 18.0195 4.0625 18.5937C4.0625 19.1679 4.06641 19.1875 4.16016 19.2773L4.25391 19.375H6.25H8.24609L8.33984 19.2773C8.4375 19.1836 8.4375 19.1836 8.4375 18.3398V17.5H12.2656H16.0898L16.1445 17.6836C16.1758 17.789 16.2852 18.1679 16.3906 18.5351C16.6328 19.3945 16.6172 19.375 17.1875 19.375C17.7578 19.375 17.7422 19.3945 17.9844 18.5351C18.3125 17.3828 18.2617 17.5 18.4336 17.5C18.6914 17.5 18.9297 17.3906 19.1133 17.1875C19.332 16.9453 19.375 16.789 19.375 16.2226C19.375 15.7851 19.3672 15.7382 19.2656 15.5312L19.1523 15.3125L19.2656 15.0937L19.375 14.8711V12.2148C19.375 10.2461 19.3633 9.51949 19.3281 9.3984C19.2656 9.18356 18.9414 8.85934 18.7266 8.79684C18.6328 8.76949 18.3281 8.74996 18 8.74996H17.4297L17.3828 8.63278C17.3164 8.46871 17.0312 8.22653 16.8438 8.17184C16.7305 8.13668 15.6875 8.12496 12.875 8.12496H9.0625V7.46481V6.80465L9.17969 6.75778C9.34375 6.69137 9.58594 6.40621 9.64062 6.21871C9.66797 6.12496 9.6875 5.77731 9.6875 5.31637C9.6875 4.57418 9.6875 4.56637 9.58984 4.47262C9.53516 4.41403 9.45312 4.37496 9.38672 4.37887C9.32812 4.37887 9.00391 4.51949 8.67188 4.68746ZM9.0625 5.62496C9.0625 6.03121 9.05859 6.06246 8.96484 6.15231L8.87109 6.24996H7.5H6.12891L6.03516 6.15231C5.91797 6.03903 5.91016 5.86324 6.01172 5.73824C6.08594 5.64449 6.08984 5.64449 7.15625 5.62496L8.22656 5.60543L8.63281 5.40231C8.85938 5.29293 9.04688 5.19918 9.05469 5.19918C9.05859 5.19528 9.0625 5.39059 9.0625 5.62496ZM8.42969 7.61324C8.41797 8.42184 8.40625 8.45699 8.14844 8.6484C8.05078 8.72262 7.98438 8.73043 7.5 8.73043C7.01562 8.73043 6.94922 8.72262 6.85156 8.6484C6.59375 8.45699 6.58203 8.42184 6.57031 7.61324L6.55859 6.87496H7.5H8.44141L8.42969 7.61324ZM6.32031 8.99215C6.69922 9.36715 6.69141 9.37496 5.875 9.37496C5.03906 9.37496 4.93359 9.40231 4.66797 9.66793C4.44531 9.88668 4.375 10.0664 4.375 10.4062V10.625H4.16016C3.98047 10.625 3.92578 10.6406 3.84766 10.7226C3.79297 10.7734 3.75 10.8515 3.75 10.8945C3.75 10.9375 3.84766 11.3281 3.96484 11.7578C4.08203 12.1875 4.17969 12.5625 4.17969 12.5898C4.17969 12.6172 4.125 12.6914 4.05859 12.7578C3.84766 12.957 3.76953 13.1484 3.77344 13.4648V13.75H3.54297C3.35547 13.75 3.30078 13.7343 3.22266 13.6523L3.125 13.5586V11.25V8.94137L3.22266 8.84762L3.31641 8.74996H4.69922H6.08203L6.32031 8.99215ZM16.7773 8.84762L16.875 8.94137V11.25V13.5586L16.7773 13.6523C16.6953 13.7343 16.6484 13.75 16.4336 13.75C16.1914 13.75 16.1797 13.7461 16.1328 13.6328C16.0664 13.4687 15.7812 13.2265 15.5938 13.1718C15.4023 13.1132 11.4648 13.1054 11.3164 13.1601C11.2305 13.1953 11.2148 13.1836 11.1523 13.0468C11.1172 12.9648 11.0273 12.8398 10.9531 12.7695C10.8789 12.6992 10.8203 12.6211 10.8203 12.5976C10.8203 12.5742 10.918 12.207 11.0352 11.7851C11.1523 11.3632 11.25 10.9726 11.25 10.9179C11.25 10.8632 11.207 10.7734 11.1523 10.7226C11.0742 10.6406 11.0195 10.625 10.8398 10.625H10.625V10.4062C10.625 10.0664 10.5547 9.88668 10.332 9.66793C10.0664 9.40231 9.96094 9.37496 9.125 9.37496C8.30859 9.37496 8.30469 9.37106 8.66406 8.99606L8.88672 8.76168L12.7852 8.75387L16.6836 8.74996L16.7773 8.84762ZM2.5 11.4687C2.5 13 2.51172 13.6093 2.54688 13.7265C2.60938 13.9414 2.93359 14.2656 3.14844 14.3281C3.25 14.3554 3.57031 14.375 3.99609 14.375C4.64453 14.375 4.68359 14.3789 4.70703 14.4531C4.75 14.5937 4.91797 14.6875 5.12109 14.6875H5.3125V14.8437V15H3.37891H1.44141L1.34766 14.9023L1.25 14.8086V12.1875V9.56637L1.34766 9.47262C1.4375 9.37887 1.46094 9.37496 1.97266 9.37496H2.5V11.4687ZM7.8125 9.46481C7.8125 9.51949 7.75 9.61715 7.65625 9.70699L7.5 9.85934L7.34375 9.70699C7.25 9.61715 7.1875 9.51949 7.1875 9.46481C7.1875 9.37887 7.19922 9.37496 7.5 9.37496C7.80078 9.37496 7.8125 9.37887 7.8125 9.46481ZM18.6523 9.47262L18.75 9.56637V12.1875V14.8086L18.6523 14.9023L18.5586 15H17.4023H16.25V14.6875V14.375H16.4766C16.8164 14.375 17.0391 14.2851 17.2383 14.0625C17.332 13.9609 17.4297 13.8047 17.4531 13.7187C17.4883 13.6093 17.5 12.9765 17.5 11.4687V9.37496H18.0273C18.5391 9.37496 18.5625 9.37887 18.6523 9.47262ZM7.05469 10.3125L7.375 10.625H6.1875H5V10.4101C5 10.2304 5.01562 10.1757 5.09766 10.0976C5.19141 9.99996 5.19531 9.99996 5.96094 9.99996H6.73438L7.05469 10.3125ZM9.90234 10.0976C9.98438 10.1757 10 10.2304 10 10.4101V10.625H8.8125H7.62891L7.94531 10.3125L8.26172 9.99996H9.03516C9.80469 9.99996 9.80859 9.99996 9.90234 10.0976ZM10.5078 11.2773C10.5078 11.2968 10.4375 11.5742 10.3477 11.9023C10.1914 12.4648 10.1758 12.4961 10.0742 12.5195C10.0156 12.5312 9.89062 12.5937 9.79297 12.6562C9.37109 12.9218 9.25 13.5429 9.53906 13.9531L9.61328 14.0625H7.50781H5.40234L5.51562 13.8359C5.61719 13.6445 5.62891 13.582 5.61328 13.3789C5.60547 13.2461 5.56641 13.0859 5.53125 13.0156C5.42969 12.8164 5.21094 12.625 5.00391 12.5547L4.8125 12.4843L4.65234 11.8984C4.5625 11.5742 4.49219 11.2968 4.49219 11.2773C4.49219 11.2617 5.84375 11.25 7.5 11.25C9.15625 11.25 10.5078 11.2617 10.5078 11.2773ZM4.90234 13.2226C4.96484 13.2812 5 13.3632 5 13.4375C5 13.5117 4.96484 13.5937 4.90234 13.6523C4.84375 13.7148 4.76172 13.75 4.6875 13.75C4.61328 13.75 4.53125 13.7148 4.47266 13.6523C4.41016 13.5937 4.375 13.5117 4.375 13.4375C4.375 13.3632 4.41016 13.2812 4.47266 13.2226C4.53125 13.1601 4.61328 13.125 4.6875 13.125C4.76172 13.125 4.84375 13.1601 4.90234 13.2226ZM10.5273 13.2226C10.7227 13.414 10.5859 13.75 10.3125 13.75C10.1523 13.75 10 13.5976 10 13.4375C10 13.2773 10.1523 13.125 10.3125 13.125C10.3867 13.125 10.4688 13.1601 10.5273 13.2226ZM15.5273 13.8476C15.6211 13.9375 15.625 13.9609 15.625 14.4726V15H13.4375H11.25V14.4726C11.25 13.9609 11.2539 13.9375 11.3477 13.8476L11.4414 13.75H13.4375H15.4336L15.5273 13.8476ZM10.625 14.6875V15H10.1562H9.6875V14.8437V14.6875H9.90234C10.082 14.6875 10.1367 14.6718 10.2148 14.5898C10.2695 14.539 10.3125 14.4687 10.3125 14.4336C10.3125 14.3906 10.3555 14.375 10.4688 14.375H10.625V14.6875ZM7.1875 14.9297V15.1757L6.80859 15.5547L6.42578 15.9375H6.00391H5.58594L5.76172 15.6757L5.9375 15.4101V15.0507V14.6875H6.5625H7.1875V14.9297ZM9.0625 14.9218V15.1562L8.54297 15.5468L8.01953 15.9375H7.67578H7.33203L7.57031 15.6875L7.8125 15.4375V15.0625V14.6875H8.4375H9.0625V14.9218ZM4.86328 15.8828L4.6875 16.1406V16.5078V16.875H3.06641H1.44141L1.34766 16.7773C1.25391 16.6875 1.25 16.6562 1.25 16.25C1.25 15.8437 1.25391 15.8125 1.34766 15.7226L1.44141 15.625H3.24219H5.04297L4.86328 15.8828ZM18.6523 15.7226C18.7461 15.8125 18.75 15.8437 18.75 16.25C18.75 16.6562 18.7461 16.6875 18.6523 16.7773L18.5586 16.875H13.4961H8.4375V16.6406V16.4062L8.95703 16.0156L9.47266 15.625H14.0156H18.5586L18.6523 15.7226ZM6.25 17.1875V17.8125H5.78125H5.3125V17.1875V16.5625H5.78125H6.25V17.1875ZM7.8125 17.1875V17.8125H7.34375H6.875V17.1875V16.5625H7.34375H7.8125V17.1875ZM3.24219 17.5234C3.24219 17.5507 3.15234 17.8632 2.98438 18.4257C2.90625 18.6836 2.87109 18.75 2.8125 18.75C2.75391 18.75 2.71875 18.6836 2.64062 18.4257C2.47266 17.8632 2.38281 17.5507 2.38281 17.5234C2.38281 17.5117 2.57812 17.5 2.8125 17.5C3.05078 17.5 3.24219 17.5117 3.24219 17.5234ZM17.6172 17.5234C17.6172 17.5507 17.5273 17.8632 17.3594 18.4257C17.2812 18.6836 17.2461 18.75 17.1875 18.75C17.1289 18.75 17.0938 18.6836 17.0156 18.4257C16.8477 17.8632 16.7578 17.5507 16.7578 17.5234C16.7578 17.5117 16.9531 17.5 17.1875 17.5C17.4258 17.5 17.6172 17.5117 17.6172 17.5234ZM6.25 18.5937V18.75H5.46875H4.6875V18.5937V18.4375H5.46875H6.25V18.5937ZM7.8125 18.5937V18.75H7.34375H6.875V18.5937V18.4375H7.34375H7.8125V18.5937Z" fill="currentColor"/>
<path d="M11.875 9.53125V9.6875H11.7188H11.5625V10V10.3125H11.7188H11.875V10.4688V10.625H12.1875H12.5V10.4688V10.3125H12.6562H12.8125V10V9.6875H12.6562H12.5V9.53125V9.375H12.1875H11.875V9.53125Z" fill="currentColor"/>
<path d="M14.375 9.53125V9.6875H14.2188H14.0625V10V10.3125H14.2188H14.375V10.4688V10.625H14.6875H15V10.4688V10.3125H15.1562H15.3125V10V9.6875H15.1562H15V9.53125V9.375H14.6875H14.375V9.53125Z" fill="currentColor"/>
<path d="M11.875 11.4062V11.5625H11.7188H11.5625V11.875V12.1875H11.7188H11.875V12.3438V12.5H12.1875H12.5V12.3438V12.1875H12.6562H12.8125V11.875V11.5625H12.6562H12.5V11.4062V11.25H12.1875H11.875V11.4062Z" fill="currentColor"/>
<path d="M14.375 11.4062V11.5625H14.2188H14.0625V11.875V12.1875H14.2188H14.375V12.3438V12.5H14.6875H15V12.3438V12.1875H15.1562H15.3125V11.875V11.5625H15.1562H15V11.4062V11.25H14.6875H14.375V11.4062Z" fill="currentColor"/>
<path d="M5.9375 12.1875V12.5H6.25H6.5625V12.1875V11.875H6.25H5.9375V12.1875Z" fill="currentColor"/>
<path d="M7.1875 12.1875V12.5H7.5H7.8125V12.1875V11.875H7.5H7.1875V12.1875Z" fill="currentColor"/>
<path d="M8.4375 12.1875V12.5H8.75H9.0625V12.1875V11.875H8.75H8.4375V12.1875Z" fill="currentColor"/>
<path d="M10.9375 5V5.3125H11.25H11.5625V5V4.6875H11.25H10.9375V5Z" fill="currentColor"/>
</g>
<defs>
<clipPath id="clip0_614_46">
<rect width="20" height="20" fill="currentColor"/>
</clipPath>
</defs>
</svg>
