<svg width="20" height="20" viewBox="0 0 20 20" fill="none" xmlns="http://www.w3.org/2000/svg">
<path d="M5 2.5C5 2.36739 4.94732 2.24021 4.85355 2.14645C4.75979 2.05268 4.63261 2 4.5 2C4.36739 2 4.24021 2.05268 4.14645 2.14645C4.05268 2.24021 4 2.36739 4 2.5V17.5C4 17.6326 4.05268 17.7598 4.14645 17.8536C4.24021 17.9473 4.36739 18 4.5 18C4.63261 18 4.75979 17.9473 4.85355 17.8536C4.94732 17.7598 5 17.6326 5 17.5V2.5ZM16 2.5C16 2.36739 15.9473 2.24021 15.8536 2.14645C15.7598 2.05268 15.6326 2 15.5 2C15.3674 2 15.2402 2.05268 15.1464 2.14645C15.0527 2.24021 15 2.36739 15 2.5V17.5C15 17.6326 15.0527 17.7598 15.1464 17.8536C15.2402 17.9473 15.3674 18 15.5 18C15.6326 18 15.7598 17.9473 15.8536 17.8536C15.9473 17.7598 16 17.6326 16 17.5V2.5ZM10.5 2.5C10.5 2.36739 10.4473 2.24021 10.3536 2.14645C10.2598 2.05268 10.1326 2 10 2C9.86739 2 9.74021 2.05268 9.64645 2.14645C9.55268 2.24021 9.5 2.36739 9.5 2.5V5.5C9.5 5.63261 9.55268 5.75979 9.64645 5.85355C9.74021 5.94732 9.86739 6 10 6C10.1326 6 10.2598 5.94732 10.3536 5.85355C10.4473 5.75979 10.5 5.63261 10.5 5.5V2.5ZM9.5 11.5C9.5 11.6326 9.55268 11.7598 9.64645 11.8536C9.74021 11.9473 9.86739 12 10 12C10.1326 12 10.2598 11.9473 10.3536 11.8536C10.4473 11.7598 10.5 11.6326 10.5 11.5V8.5C10.5 8.36739 10.4473 8.24021 10.3536 8.14645C10.2598 8.05268 10.1326 8 10 8C9.86739 8 9.74021 8.05268 9.64645 8.14645C9.55268 8.24021 9.5 8.36739 9.5 8.5V11.5ZM9.5 14.5C9.5 14.3674 9.55268 14.2402 9.64645 14.1464C9.74021 14.0527 9.86739 14 10 14C10.1326 14 10.2598 14.0527 10.3536 14.1464C10.4473 14.2402 10.5 14.3674 10.5 14.5V17.5C10.5 17.6326 10.4473 17.7598 10.3536 17.8536C10.2598 17.9473 10.1326 18 10 18C9.86739 18 9.74021 17.9473 9.64645 17.8536C9.55268 17.7598 9.5 17.6326 9.5 17.5V14.5Z" fill="currentColor"/>
</svg>
