<svg width="20" height="20" viewBox="0 0 20 20" fill="none" xmlns="http://www.w3.org/2000/svg">
<path d="M16.4286 0.714355H3.57143C3.19255 0.714355 2.82918 0.864865 2.56128 1.13277C2.29337 1.40068 2.14286 1.76405 2.14286 2.14293V17.8572C2.14286 18.2361 2.29337 18.5995 2.56128 18.8674C2.82918 19.1353 3.19255 19.2858 3.57143 19.2858H16.4286C16.8075 19.2858 17.1708 19.1353 17.4387 18.8674C17.7066 18.5995 17.8571 18.2361 17.8571 17.8572V2.14293C17.8571 1.76405 17.7066 1.40068 17.4387 1.13277C17.1708 0.864865 16.8075 0.714355 16.4286 0.714355Z" stroke="currentColor" stroke-width="0.8" stroke-linecap="round" stroke-linejoin="round"/>
<path d="M14.2271 12.8571H13.0257C11.9757 12.8571 10.94 12.6129 10 12.1429C9.06055 11.6731 8.02463 11.4286 6.97429 11.4286H5.77429M2.14286 5H17.8571M14.2857 12.1429C14.2857 12.7057 14.1749 13.263 13.9595 13.7829C13.7441 14.3029 13.4284 14.7754 13.0305 15.1733C12.6325 15.5713 12.16 15.887 11.6401 16.1023C11.1201 16.3177 10.5628 16.4286 10 16.4286C9.43719 16.4286 8.87989 16.3177 8.35993 16.1023C7.83996 15.887 7.36751 15.5713 6.96954 15.1733C6.57158 14.7754 6.25589 14.3029 6.04052 13.7829C5.82514 13.263 5.71429 12.7057 5.71429 12.1429C5.71429 11.0062 6.16581 9.91613 6.96954 9.1124C7.77327 8.30867 8.86336 7.85714 10 7.85714C11.1366 7.85714 12.2267 8.30867 13.0305 9.1124C13.8342 9.91613 14.2857 11.0062 14.2857 12.1429Z" stroke="currentColor" stroke-width="0.8" stroke-linecap="round" stroke-linejoin="round"/>
</svg>
