<svg width="20" height="20" viewBox="0 0 20 20" fill="none" xmlns="http://www.w3.org/2000/svg">
<path d="M10 5.4165C10.1658 5.4165 10.3247 5.35066 10.4419 5.23345C10.5592 5.11624 10.625 4.95726 10.625 4.7915C10.625 4.62574 10.5592 4.46677 10.4419 4.34956C10.3247 4.23235 10.1658 4.1665 10 4.1665C9.83424 4.1665 9.67527 4.23235 9.55806 4.34956C9.44085 4.46677 9.375 4.62574 9.375 4.7915C9.375 4.95726 9.44085 5.11624 9.55806 5.23345C9.67527 5.35066 9.83424 5.4165 10 5.4165Z" fill="#333333"/>
<path fill-rule="evenodd" clip-rule="evenodd" d="M9.92333 2.50684L9.92 2.50768L9.91042 2.50934L9.87583 2.51601L9.74667 2.54184C9.63583 2.56434 9.47792 2.59768 9.28917 2.64059C8.91208 2.72643 8.40583 2.85184 7.8975 3.00893C7.39417 3.16434 6.86708 3.35768 6.45833 3.58393C6.255 3.69643 6.06 3.82851 5.91125 3.98393C5.76333 4.13768 5.625 4.35309 5.625 4.62351C5.625 5.35059 5.82917 5.88309 6.045 6.24018C6.15125 6.41601 6.25917 6.54726 6.34417 6.63726C6.34833 6.68518 6.35458 6.73893 6.36625 6.79726C6.40833 7.01643 6.51375 7.29559 6.75542 7.56684C6.64034 8.05612 6.6374 8.56508 6.74682 9.05565C6.85623 9.54623 7.07517 10.0057 7.38726 10.3997C7.69934 10.7937 8.09648 11.112 8.54897 11.3309C9.00146 11.5497 9.49758 11.6634 10.0002 11.6634C10.5028 11.6634 10.999 11.5497 11.4514 11.3309C11.9039 11.112 12.3011 10.7937 12.6132 10.3997C12.9252 10.0057 13.1442 9.54623 13.2536 9.05565C13.363 8.56508 13.3601 8.05612 13.245 7.56684C13.4862 7.29559 13.5917 7.01684 13.6338 6.79726C13.6454 6.73893 13.6521 6.68518 13.6558 6.63726C13.7693 6.51585 13.8696 6.38274 13.955 6.24018C14.1713 5.88309 14.375 5.35059 14.375 4.62351C14.375 4.35309 14.2367 4.13768 14.0887 3.98393C13.94 3.82851 13.745 3.69643 13.5417 3.58393C13.1329 3.35768 12.6058 3.16434 12.1021 3.00893C11.643 2.86901 11.179 2.74615 10.7108 2.64059C10.5159 2.59617 10.3203 2.5545 10.1242 2.51559L10.0896 2.50934L10.08 2.50768L10.0767 2.50684L10 2.49268L9.92333 2.50684ZM10 7.70809C10.9196 7.70809 11.5371 7.58893 11.95 7.43393C12.2996 7.30268 12.5033 7.14601 12.6208 7.01393C12.6638 6.96601 12.6975 6.91934 12.7242 6.87476H7.27583C7.3025 6.91934 7.33625 6.96643 7.37875 7.01393C7.49708 7.14601 7.70042 7.30268 8.04958 7.43393C8.46292 7.58893 9.08042 7.70809 10 7.70809ZM13.0717 6.04143H6.92833C6.86447 5.96936 6.80742 5.89153 6.75792 5.80893C6.615 5.57268 6.46 5.19059 6.45833 4.63226C6.47225 4.60551 6.49056 4.58128 6.5125 4.56059C6.58 4.49018 6.69417 4.40559 6.86208 4.31309C7.19542 4.12851 7.65792 3.95518 8.14375 3.80476C8.5826 3.67132 9.02624 3.55415 9.47375 3.45351C9.64866 3.4137 9.8241 3.37619 10 3.34101C10.0237 3.34518 10.0529 3.35143 10.0867 3.35809C10.1925 3.37976 10.3442 3.41226 10.5263 3.45351C10.8913 3.53643 11.375 3.65643 11.8562 3.80518C12.3421 3.95518 12.8046 4.12851 13.1379 4.31309C13.3058 4.40559 13.42 4.49018 13.4879 4.56059C13.5254 4.60018 13.5379 4.62351 13.5417 4.63226C13.54 5.19059 13.385 5.57268 13.2417 5.80893C13.1924 5.89158 13.1355 5.96942 13.0717 6.04143ZM7.5 8.33309C7.5 8.25809 7.50333 8.18393 7.50958 8.11059C8.06708 8.37184 8.86542 8.54143 10 8.54143C10.9771 8.54143 11.7037 8.41643 12.2425 8.21434C12.33 8.18184 12.4125 8.14684 12.4904 8.11018C12.5199 8.44622 12.4811 8.78476 12.3763 9.10541C12.2715 9.42606 12.1029 9.72219 11.8807 9.97596C11.6584 10.2297 11.3871 10.4359 11.0831 10.582C10.779 10.7282 10.4486 10.8113 10.1116 10.8263C9.77456 10.8414 9.43799 10.7881 9.12214 10.6696C8.80628 10.5512 8.51766 10.37 8.27367 10.1371C8.02967 9.90413 7.83534 9.62422 7.70238 9.31419C7.56942 9.00416 7.50058 8.67043 7.5 8.33309Z" fill="#333333"/>
<path d="M13.7503 14.1665C14.0282 14.4444 14.5837 14.7219 14.5837 14.7219C14.5837 14.7219 14.2928 15.8332 13.7503 15.8332C13.2078 15.8332 12.917 14.7219 12.917 14.7219C12.917 14.7219 13.4724 14.4444 13.7503 14.1665Z" fill="#333333"/>
<path fill-rule="evenodd" clip-rule="evenodd" d="M8.54167 12.9163C8.54167 12.6953 8.62946 12.4834 8.78574 12.3271C8.94202 12.1708 9.15399 12.083 9.375 12.083H10.625C10.846 12.083 11.058 12.1708 11.2143 12.3271C11.3705 12.4834 11.4583 12.6953 11.4583 12.9163V13.4922C11.4583 13.6279 11.4252 13.7615 11.3618 13.8814C11.2984 14.0014 11.2067 14.1041 11.0946 14.1805L11.1417 14.4163L12.5717 12.6801C12.6199 12.6215 12.6831 12.5772 12.7546 12.552C12.8262 12.5267 12.9032 12.5214 12.9775 12.5368C14.0458 12.7584 15.1387 13.0943 15.9754 13.5551C16.7846 14.0009 17.5 14.648 17.5 15.5405V17.083C17.5 17.1935 17.4561 17.2995 17.378 17.3776C17.2998 17.4558 17.1938 17.4997 17.0833 17.4997H2.91667C2.80616 17.4997 2.70018 17.4558 2.62204 17.3776C2.5439 17.2995 2.5 17.1935 2.5 17.083V15.5405C2.5 14.653 3.22917 14.0101 4.03833 13.568C4.87833 13.1084 5.97167 12.7701 7.02708 12.5455C7.10171 12.5297 7.17925 12.5346 7.25125 12.5598C7.32326 12.585 7.38696 12.6295 7.43542 12.6884L8.86458 14.4243L8.90958 14.1834C8.79626 14.1071 8.70343 14.0041 8.63928 13.8835C8.57512 13.7629 8.5416 13.6284 8.54167 13.4918V12.9163ZM10.2167 14.0397L10.4579 15.2468L10 15.8026L9.55667 15.2643L9.78458 14.0338C9.80109 13.9449 9.78823 13.8531 9.74794 13.7721C9.70766 13.6912 9.64213 13.6255 9.56125 13.5851L9.375 13.4922V12.9163H10.625V13.4922L10.4387 13.5855C10.357 13.6263 10.2909 13.6929 10.2507 13.775C10.2105 13.857 10.1984 13.95 10.2162 14.0397M10.3679 16.6663L13.0529 13.4059C13.9946 13.6168 14.8975 13.913 15.5729 14.2851C16.335 14.7047 16.6667 15.1384 16.6667 15.5405V16.6663H10.3679ZM6.95375 13.4151L9.63167 16.6663H3.33333V15.5405C3.33333 15.1513 3.66667 14.7209 4.43792 14.2988C5.11833 13.9268 6.02292 13.6288 6.95458 13.4151" fill="#333333"/>
</svg>
