<svg width="26" height="25" viewBox="0 0 26 25" fill="none" xmlns="http://www.w3.org/2000/svg">
<g filter="url(#filter0_d_81_26)">
<path d="M6.33317 16.6667C5.87484 16.6667 5.48262 16.5036 5.1565 16.1775C4.83039 15.8514 4.66706 15.4589 4.6665 15V11.6667H8.83317C8.83317 11.9028 8.91317 12.1008 9.07317 12.2608C9.23317 12.4208 9.43095 12.5006 9.6665 12.5C9.88873 12.5 10.0451 12.3992 10.1357 12.1975C10.2262 11.9958 10.3476 11.8189 10.4998 11.6667H15.4998C15.4998 11.9028 15.5798 12.1008 15.7398 12.2608C15.8998 12.4208 16.0976 12.5006 16.3332 12.5C16.5554 12.5 16.7118 12.3992 16.8023 12.1975C16.8929 11.9958 17.0143 11.8189 17.1665 11.6667H21.3332V15C21.3332 15.4583 21.1701 15.8508 20.844 16.1775C20.5179 16.5042 20.1254 16.6672 19.6665 16.6667H6.33317ZM5.02067 10L6.74984 6C6.87484 5.69445 7.07623 5.45139 7.354 5.27083C7.63178 5.09028 7.93039 5 8.24984 5H8.83317V4.16667C8.83317 3.70833 8.9965 3.31583 9.32317 2.98917C9.64984 2.6625 10.0421 2.49945 10.4998 2.5H15.4998C15.9582 2.5 16.3507 2.66333 16.6773 2.99C17.004 3.31667 17.1671 3.70889 17.1665 4.16667V5H17.7498C18.0693 5 18.3679 5.09028 18.6457 5.27083C18.9234 5.45139 19.1248 5.69445 19.2498 6L20.979 10H17.1665C17.1665 9.76389 17.0865 9.56611 16.9265 9.40667C16.7665 9.24722 16.5687 9.16722 16.3332 9.16667C16.1109 9.16667 15.9548 9.2675 15.8648 9.46917C15.7748 9.67083 15.6532 9.84778 15.4998 10H10.4998C10.4998 9.76389 10.4198 9.56611 10.2598 9.40667C10.0998 9.24722 9.90206 9.16722 9.6665 9.16667C9.44428 9.16667 9.28817 9.2675 9.19817 9.46917C9.10817 9.67083 8.9865 9.84778 8.83317 10H5.02067ZM10.4998 5H15.4998V4.16667H10.4998V5Z" fill="#333333"/>
</g>
</svg>
