<svg width="20" height="20" viewBox="0 0 20 20" fill="none" xmlns="http://www.w3.org/2000/svg">
<path d="M11.8084 11.425L12.9751 9.40829C13.0501 9.28329 13.0167 9.12496 12.9084 9.03329L11.6751 8.06663C11.7001 7.88329 11.7168 7.69163 11.7168 7.49996C11.7168 7.30829 11.7001 7.11663 11.6751 6.92496L12.9084 5.95829C13.0167 5.86663 13.0501 5.70829 12.9751 5.58329L11.8084 3.56663C11.7334 3.44163 11.5834 3.39163 11.4501 3.44163L10.0001 4.02496C9.70008 3.79163 9.37508 3.59996 9.01675 3.44996L8.80008 1.90829C8.7861 1.84089 8.74961 1.78026 8.69661 1.73634C8.6436 1.69242 8.57724 1.66784 8.50842 1.66663H6.17508C6.03342 1.66663 5.90842 1.77496 5.88342 1.91663L5.66675 3.45829C5.31675 3.60829 4.98342 3.79996 4.68342 4.03329L3.23342 3.44996C3.10008 3.39996 2.95008 3.44996 2.87508 3.57496L1.70842 5.59163C1.63342 5.71663 1.66675 5.87496 1.77508 5.96663L3.00842 6.93329C2.98342 7.11663 2.96675 7.30829 2.96675 7.49996C2.96675 7.69163 2.98342 7.88329 3.00842 8.07496L1.77508 9.04163C1.66675 9.13329 1.63342 9.29163 1.70842 9.41663L2.87508 11.4333C2.95008 11.5583 3.10008 11.6083 3.23342 11.5583L4.68342 10.975C4.98342 11.2083 5.30842 11.4 5.66675 11.55L5.88342 13.0916C5.90842 13.225 6.03342 13.3333 6.17508 13.3333H8.50842C8.65008 13.3333 8.77508 13.225 8.80008 13.0833L9.01675 11.5416C9.36675 11.3916 9.70008 11.2 10.0001 10.9666L11.4501 11.55C11.5834 11.6 11.7334 11.55 11.8084 11.425ZM7.34175 9.16663C6.42508 9.16663 5.67508 8.41663 5.67508 7.49996C5.67508 6.58329 6.42508 5.83329 7.34175 5.83329C8.25842 5.83329 9.00842 6.58329 9.00842 7.49996C9.00842 8.41663 8.25842 9.16663 7.34175 9.16663ZM18.2667 15.5583L17.4667 14.9416C17.4834 14.825 17.5001 14.7 17.5001 14.575C17.5001 14.45 17.4917 14.325 17.4667 14.2083L18.2584 13.5916C18.3251 13.5333 18.3501 13.4333 18.3001 13.35L17.5501 12.0583C17.5084 11.975 17.4084 11.95 17.3168 11.975L16.3917 12.35C16.2001 12.2 15.9917 12.075 15.7584 11.9833L15.6167 11C15.6135 10.9554 15.5937 10.9137 15.5614 10.8829C15.529 10.8521 15.4864 10.8344 15.4418 10.8333H13.9501C13.8584 10.8333 13.7751 10.9 13.7668 10.9916L13.6251 11.975C13.4001 12.075 13.1834 12.1916 12.9918 12.3416L12.0667 11.9666C12.0243 11.9507 11.9775 11.9503 11.9348 11.9655C11.8921 11.9808 11.8562 12.0107 11.8334 12.05L11.0834 13.3416C11.0418 13.425 11.0501 13.525 11.1251 13.5833L11.9168 14.2C11.8824 14.4432 11.8824 14.6901 11.9168 14.9333L11.1251 15.55C11.0584 15.6083 11.0334 15.7083 11.0834 15.7916L11.8334 17.0833C11.8751 17.1666 11.9751 17.1916 12.0667 17.1666L12.9918 16.7916C13.1834 16.9416 13.3918 17.0666 13.6251 17.1583L13.7668 18.1416C13.7834 18.2333 13.8584 18.3 13.9501 18.3H15.4418C15.5334 18.3 15.6167 18.2333 15.6251 18.1416L15.7667 17.1583C15.9917 17.0583 16.2084 16.9416 16.3917 16.7916L17.3251 17.1666C17.4084 17.2 17.5084 17.1666 17.5584 17.0833L18.3084 15.7916C18.3584 15.7166 18.3334 15.6166 18.2667 15.5583ZM14.6917 15.6916C14.544 15.6916 14.3976 15.6624 14.2611 15.6058C14.1246 15.5492 14.0005 15.4662 13.8961 15.3617C13.7916 15.2572 13.7088 15.1331 13.6523 14.9965C13.5958 14.8599 13.5667 14.7136 13.5668 14.5658C13.5668 14.418 13.596 14.2717 13.6526 14.1351C13.7092 13.9986 13.7921 13.8746 13.8967 13.7701C14.0012 13.6657 14.1253 13.5828 14.2619 13.5263C14.3984 13.4698 14.5448 13.4407 14.6926 13.4408C14.9911 13.4409 15.2773 13.5596 15.4883 13.7707C15.6992 13.9818 15.8177 14.2681 15.8176 14.5666C15.8175 14.8651 15.6988 15.1513 15.4877 15.3623C15.2765 15.5733 14.9902 15.6917 14.6917 15.6916Z" fill="#333333"/>
</svg>
