<svg width="20" height="20" viewBox="0 0 20 20" fill="none" xmlns="http://www.w3.org/2000/svg">
<path d="M15 18.3332C14.3056 18.3332 13.7153 18.0901 13.2292 17.604C12.7431 17.1179 12.5 16.5276 12.5 15.8332C12.5 15.7359 12.5069 15.6351 12.5208 15.5307C12.5347 15.4262 12.5556 15.3326 12.5833 15.2498L6.70833 11.8332C6.47222 12.0415 6.20833 12.2048 5.91667 12.3232C5.625 12.4415 5.31944 12.5004 5 12.4998C4.30556 12.4998 3.71528 12.2568 3.22917 11.7707C2.74306 11.2846 2.5 10.6943 2.5 9.99984C2.5 9.30539 2.74306 8.71511 3.22917 8.229C3.71528 7.74289 4.30556 7.49984 5 7.49984C5.31944 7.49984 5.625 7.559 5.91667 7.67734C6.20833 7.79567 6.47222 7.95873 6.70833 8.1665L12.5833 4.74984C12.5556 4.6665 12.5347 4.57289 12.5208 4.469C12.5069 4.36511 12.5 4.26428 12.5 4.1665C12.5 3.47206 12.7431 2.88178 13.2292 2.39567C13.7153 1.90956 14.3056 1.6665 15 1.6665C15.6944 1.6665 16.2847 1.90956 16.7708 2.39567C17.2569 2.88178 17.5 3.47206 17.5 4.1665C17.5 4.86095 17.2569 5.45123 16.7708 5.93734C16.2847 6.42345 15.6944 6.6665 15 6.6665C14.6806 6.6665 14.375 6.60761 14.0833 6.48984C13.7917 6.37206 13.5278 6.20873 13.2917 5.99984L7.41667 9.4165C7.44444 9.49984 7.46528 9.59373 7.47917 9.69817C7.49306 9.80261 7.5 9.90317 7.5 9.99984C7.5 10.0965 7.49306 10.1973 7.47917 10.3023C7.46528 10.4073 7.44444 10.5009 7.41667 10.5832L13.2917 13.9998C13.5278 13.7915 13.7917 13.6284 14.0833 13.5107C14.375 13.3929 14.6806 13.3337 15 13.3332C15.6944 13.3332 16.2847 13.5762 16.7708 14.0623C17.2569 14.5484 17.5 15.1387 17.5 15.8332C17.5 16.5276 17.2569 17.1179 16.7708 17.604C16.2847 18.0901 15.6944 18.3332 15 18.3332ZM15 4.99984C15.2361 4.99984 15.4342 4.92011 15.5942 4.76067C15.7542 4.60123 15.8339 4.40317 15.8333 4.1665C15.8328 3.92984 15.7528 3.73206 15.5933 3.57317C15.4339 3.41428 15.2361 3.33428 15 3.33317C14.7639 3.33206 14.5661 3.41206 14.4067 3.57317C14.2472 3.73428 14.1672 3.93206 14.1667 4.1665C14.1661 4.40095 14.2461 4.599 14.4067 4.76067C14.5672 4.92234 14.765 5.00206 15 4.99984ZM5 10.8332C5.23611 10.8332 5.43417 10.7532 5.59417 10.5932C5.75417 10.4332 5.83389 10.2354 5.83333 9.99984C5.83278 9.76428 5.75278 9.5665 5.59333 9.4065C5.43389 9.2465 5.23611 9.1665 5 9.1665C4.76389 9.1665 4.56611 9.2465 4.40667 9.4065C4.24722 9.5665 4.16722 9.76428 4.16667 9.99984C4.16611 10.2354 4.24611 10.4334 4.40667 10.594C4.56722 10.7546 4.765 10.8343 5 10.8332ZM15 16.6665C15.2361 16.6665 15.4342 16.5865 15.5942 16.4265C15.7542 16.2665 15.8339 16.0687 15.8333 15.8332C15.8328 15.5976 15.7528 15.3998 15.5933 15.2398C15.4339 15.0798 15.2361 14.9998 15 14.9998C14.7639 14.9998 14.5661 15.0798 14.4067 15.2398C14.2472 15.3998 14.1672 15.5976 14.1667 15.8332C14.1661 16.0687 14.2461 16.2668 14.4067 16.4273C14.5672 16.5879 14.765 16.6676 15 16.6665Z" fill="#333333"/>
</svg>
