<svg width="20" height="20" viewBox="0 0 20 20" fill="none" xmlns="http://www.w3.org/2000/svg">
<g clip-path="url(#clip0_246_9)">
<path d="M0.725586 0.714355H4.21416L5.45701 13.0715C5.50867 13.4121 5.68171 13.7226 5.94423 13.9458C6.20675 14.1689 6.54107 14.2897 6.88559 14.2858H15.8856C16.1971 14.302 16.5054 14.2159 16.7633 14.0405C17.0213 13.8651 17.2148 13.61 17.3142 13.3144L19.2142 7.60007C19.2851 7.38525 19.304 7.15664 19.2692 6.93309C19.2344 6.70955 19.147 6.49747 19.0142 6.31436C18.8759 6.11961 18.6909 5.96265 18.4763 5.85783C18.2617 5.75302 18.0242 5.70369 17.7856 5.71436H4.71416M9.55416 8.5715V11.4286M13.8399 8.5715V11.4286M15.6427 19.2858C15.4533 19.2858 15.2716 19.2105 15.1377 19.0766C15.0037 18.9426 14.9284 18.7609 14.9284 18.5715C14.9284 18.3821 15.0037 18.2004 15.1377 18.0664C15.2716 17.9325 15.4533 17.8572 15.6427 17.8572C15.8322 17.8572 16.0139 17.9325 16.1478 18.0664C16.2818 18.2004 16.357 18.3821 16.357 18.5715C16.357 18.7609 16.2818 18.9426 16.1478 19.0766C16.0139 19.2105 15.8322 19.2858 15.6427 19.2858ZM6.35701 19.2858C6.16757 19.2858 5.98589 19.2105 5.85194 19.0766C5.71798 18.9426 5.64273 18.7609 5.64273 18.5715C5.64273 18.3821 5.71798 18.2004 5.85194 18.0664C5.98589 17.9325 6.16757 17.8572 6.35701 17.8572C6.54645 17.8572 6.72814 17.9325 6.86209 18.0664C6.99605 18.2004 7.0713 18.3821 7.0713 18.5715C7.0713 18.7609 6.99605 18.9426 6.86209 19.0766C6.72814 19.2105 6.54645 19.2858 6.35701 19.2858Z" stroke="currentColor" stroke-linecap="round" stroke-linejoin="round"/>
</g>
<defs>
<clipPath id="clip0_246_9">
<rect width="20" height="20" fill="currentColor"/>
</clipPath>
</defs>
</svg>
