<svg width="20" height="20" viewBox="0 0 20 20" fill="none" xmlns="http://www.w3.org/2000/svg">
<g clip-path="url(#clip0_537_198)">
<path d="M11.2266 0.0546875C10.4258 0.238281 9.75781 0.757812 9.41406 1.46094C9.12109 2.05859 9.12891 1.96875 9.10938 4.63672L9.09375 7.03125H8.82422H8.55469L8.55078 6.45312C8.54688 5.47656 8.53516 5.39062 8.375 5.32031C8.30859 5.28516 7.82422 5.27344 6.77344 5.27344C5.05469 5.27344 5.03906 5.27734 5.03906 5.56641C5.03906 5.82031 5.14453 5.85938 5.81641 5.85938H6.36719V6.44531V7.03125H3.83984C1.16016 7.03125 1.11328 7.03516 0.761719 7.21875C0.574219 7.31641 0.269531 7.625 0.175781 7.8125C0.0859375 7.98828 0 8.30469 0 8.46875C0 8.55469 0.03125 8.62891 0.0976562 8.69141C0.1875 8.78516 0.214844 8.78906 0.683594 8.78906H1.17188V9.66406C1.17188 10.2695 1.19141 10.6406 1.23047 10.875C1.47656 12.2734 2.4375 13.4023 3.77734 13.8633C4.29688 14.0391 4.59375 14.0625 6.3125 14.0625H7.92969V14.7539C7.92969 15.1367 7.94922 15.5117 7.96875 15.5898C8.01562 15.75 8.12891 15.8203 8.35938 15.8203H8.50781L8.52344 17.3125C8.53906 18.75 8.54297 18.8164 8.625 19.0312C8.80469 19.4805 9.18359 19.8242 9.63281 19.9414C9.91797 20.0156 10.082 20.0156 10.3672 19.9414C10.8164 19.8242 11.1953 19.4805 11.375 19.0312C11.457 18.8164 11.4609 18.75 11.4766 17.3164L11.4922 15.8203H11.6406C11.8711 15.8203 11.9844 15.75 12.0312 15.5898C12.0508 15.5117 12.0703 15.1367 12.0703 14.7539V14.0625H13.6875C15.4062 14.0625 15.7031 14.0391 16.2227 13.8633C17.5625 13.4023 18.5234 12.2734 18.7695 10.875C18.8086 10.6406 18.8281 10.2695 18.8281 9.66406V8.78906H19.3164C19.7852 8.78906 19.8125 8.78516 19.9023 8.69141C20.0508 8.54688 20.0117 8.17578 19.8125 7.79297C19.7148 7.60547 19.4062 7.30078 19.2188 7.20703C18.8828 7.03516 18.8086 7.03125 16.1641 7.03125H13.6328V6.44531V5.85938H14.1836C14.8555 5.85938 14.9609 5.82031 14.9609 5.56641C14.9609 5.27734 14.9453 5.27344 13.2266 5.27344C12.168 5.27344 11.6914 5.28516 11.625 5.32031C11.4766 5.38672 11.4453 5.55859 11.4453 6.33594V7.03125H11.1719H10.8984L10.9062 4.67188L10.918 2.3125L11.0391 2.14062C11.1992 1.92188 11.5039 1.75781 11.7578 1.75781C12.0117 1.75781 12.3164 1.92188 12.4766 2.14062L12.5977 2.3125L12.6211 3.09766C12.6328 3.53125 12.6562 3.91406 12.6719 3.94922C12.7266 4.07422 12.8867 4.10156 13.5156 4.10156C14.2422 4.10156 14.3164 4.07812 14.3789 3.85156C14.4414 3.62891 14.3984 2.32031 14.3164 2.01172C14.0898 1.12891 13.3828 0.386719 12.5195 0.117188C12.168 0.0078125 11.5586 -0.0195312 11.2266 0.0546875ZM12.3867 0.695312C13.0273 0.90625 13.5742 1.47656 13.7266 2.09766C13.7383 2.14844 13.7617 2.22266 13.7734 2.26562C13.793 2.34375 13.7812 2.34766 13.4961 2.33594L13.1992 2.32422L13.1094 2.10156C12.9375 1.67578 12.6406 1.40234 12.1953 1.25391C11.9102 1.15625 11.6992 1.15234 11.3906 1.23047C10.9414 1.34766 10.5664 1.6875 10.3828 2.14062C10.2969 2.36328 10.293 2.37891 10.2812 4.69531L10.2695 7.03125H9.99609H9.72656V4.65625C9.72656 2.59766 9.73438 2.25 9.78906 2.07031C9.98828 1.40234 10.5977 0.816406 11.2734 0.644531C11.5625 0.570312 12.0859 0.59375 12.3867 0.695312ZM13.7891 3.22266V3.51562H13.5156H13.2422V3.22266V2.92969H13.5156H13.7891V3.22266ZM7.92969 6.44531V7.03125H7.46094H6.99219V6.44531V5.85938H7.46094H7.92969V6.44531ZM13.0078 6.44531V7.03125H12.5391H12.0703V6.44531V5.85938H12.5391H13.0078V6.44531ZM18.8047 7.66406C18.9766 7.71484 19.3359 8.03906 19.3359 8.14453C19.3359 8.19531 18.5469 8.20312 11.5234 8.20312H3.70703L3.61328 8.30078C3.48828 8.42188 3.48828 8.57031 3.61328 8.69141L3.70703 8.78906H10.9805H18.25L18.2344 9.79297C18.2188 10.7539 18.2109 10.8164 18.1094 11.1523C17.7852 12.2188 16.9961 13.0117 15.918 13.3477L15.5664 13.457H10H4.43359L4.08203 13.3477C3.00391 13.0117 2.21484 12.2188 1.89062 11.1523C1.78906 10.8164 1.78125 10.7539 1.76562 9.79297L1.75 8.78906H2.24219C2.71484 8.78906 2.74219 8.78516 2.83203 8.69141C2.95703 8.57031 2.95703 8.42188 2.83203 8.30078L2.73828 8.20312H1.69922C0.792969 8.20312 0.664062 8.19531 0.664062 8.14453C0.664062 8.04688 1.01953 7.71875 1.17188 7.66797C1.37891 7.60156 18.582 7.59766 18.8047 7.66406ZM9.10156 14.6484V15.2344H8.82812H8.55469V14.6484V14.0625H8.82812H9.10156V14.6484ZM10.2734 14.6484V15.2344H10H9.72656V14.6484V14.0625H10H10.2734V14.6484ZM11.4453 14.6484V15.2344H11.1719H10.8984V14.6484V14.0625H11.1719H11.4453V14.6484ZM10.8516 17.3398L10.8398 18.8594L10.7188 19.0312C10.5586 19.25 10.2539 19.4141 10 19.4141C9.74609 19.4141 9.44141 19.25 9.28125 19.0312L9.16016 18.8594L9.14844 17.3398L9.13672 15.8203H10H10.8633L10.8516 17.3398Z" fill="currentColor"/>
</g>
<defs>
<clipPath id="clip0_537_198">
<rect width="20" height="20" fill="white"/>
</clipPath>
</defs>
</svg>
