<svg width="20" height="20" viewBox="0 0 20 20" fill="none" xmlns="http://www.w3.org/2000/svg">
<g clip-path="url(#clip0_248_20)">
<path d="M13.3966 7.48383L18.7728 2.14062L18.7553 5.16937C18.7497 5.42187 18.95 5.64156 19.2028 5.63594L19.5235 5.63562C19.7763 5.62969 19.9853 5.47937 19.9907 5.22687L20.0038 0.715C20.0038 0.710645 19.9866 0.707207 19.9866 0.702832L20.0113 0.474082C20.0138 0.347207 19.9841 0.234082 19.9022 0.153164C19.8213 0.0716016 19.7079 0.0219141 19.5819 0.0253516L19.3535 0.0306641C19.3491 0.0306641 19.3457 0.0322266 19.341 0.0328711L14.8588 0.0131836C14.6063 0.0188086 14.3973 0.227559 14.3916 0.480371L14.391 0.801016C14.4294 1.09883 14.6635 1.27289 14.916 1.26727L17.8701 1.27508L12.5129 6.59977C12.2688 6.84383 12.2688 7.23945 12.5129 7.48383C12.7569 7.72758 13.1525 7.72758 13.3966 7.48383ZM6.62284 12.5156L1.24661 17.8422L1.26379 14.83C1.26973 14.5772 1.06909 14.3575 0.816587 14.3631L0.476294 14.3637C0.223169 14.37 0.0143997 14.52 0.0090872 14.7728L-0.0040378 19.2847C-0.0040378 19.2891 0.0131497 19.2919 0.0131497 19.2969L-0.0115378 19.525C-0.0143503 19.6519 0.0153372 19.7656 0.0975247 19.8459C0.17815 19.9278 0.2919 19.9772 0.417525 19.9741L0.646275 19.9684C0.65063 19.9684 0.653755 19.9666 0.658775 19.9666L5.16063 19.9862C5.41313 19.98 5.6219 19.7712 5.62782 19.5187L5.62844 19.1978C5.59002 18.9006 5.35594 18.7259 5.10344 18.7316L2.1494 18.7238L7.50627 13.3997C7.75034 13.1556 7.75034 12.76 7.50627 12.5159C7.26221 12.2719 6.86688 12.2716 6.62282 12.5156H6.62284ZM20.0041 19.2844L19.991 14.7725C19.9854 14.5196 19.7763 14.3696 19.5238 14.3634L19.2032 14.3628C18.9504 14.3571 18.7504 14.5771 18.7557 14.8296L18.7732 17.8584L13.3966 12.5156C13.1526 12.2715 12.7569 12.2715 12.5129 12.5156C12.2688 12.7596 12.2688 13.1553 12.5129 13.3993L17.8698 18.7234L14.916 18.7312C14.6635 18.7256 14.4294 18.9003 14.391 19.1974L14.3916 19.5184C14.3976 19.7712 14.6066 19.98 14.8588 19.9859L19.3413 19.9662C19.346 19.9662 19.3494 19.9681 19.3538 19.9681L19.5823 19.9737C19.7082 19.9768 19.8219 19.9274 19.9026 19.8456C19.9845 19.7649 20.0138 19.6515 20.0116 19.5246L19.987 19.2965C19.987 19.2915 20.0041 19.2887 20.0041 19.2844L20.0041 19.2844ZM2.14942 1.27557L5.10379 1.26781C5.35629 1.27344 5.59036 1.09906 5.62879 0.801543L5.62817 0.480625C5.6219 0.227832 5.41311 0.01875 5.16096 0.0134375L0.658775 0.0328125C0.653775 0.0321875 0.65065 0.030625 0.646275 0.030625L0.417525 0.025293C0.291919 0.021875 0.177857 0.0715625 0.0975247 0.153105C0.0153372 0.234043 -0.0143308 0.347168 -0.0115378 0.474043L0.0131497 0.702793C0.0131497 0.707148 -0.0040378 0.710293 -0.0040378 0.71498L0.0090872 5.22686C0.0147122 5.47936 0.223482 5.62967 0.476294 5.6356L0.816607 5.6359C1.06911 5.64152 1.2694 5.42184 1.26377 5.16934L1.24659 2.15715L6.62284 7.48371C6.86659 7.72779 7.26254 7.72779 7.50663 7.48371C7.75071 7.23963 7.75069 6.84371 7.50663 6.59965L2.14942 1.27557Z" fill="currentColor"/>
</g>
<defs>
<clipPath id="clip0_248_20">
<rect width="20" height="20" fill="white"/>
</clipPath>
</defs>
</svg>
