<svg width="20" height="20" viewBox="0 0 20 20" fill="none" xmlns="http://www.w3.org/2000/svg">
<path d="M9.1211 0.0624976C8.44531 0.16406 7.57422 0.499998 7.07031 0.847654L6.85547 0.996091L5.54297 1.01562L4.23438 1.03515L3.9375 1.18359C3.58203 1.35937 3.32422 1.62109 3.14844 1.99219L3.02735 2.24609L3.01563 5.74219C3.00781 9.13672 3.00781 9.24609 3.08203 9.49219C3.22656 9.96484 3.60547 10.375 4.07422 10.5586C4.22656 10.6172 4.39844 10.6406 4.75391 10.6562L5.23438 10.6719L5.00781 10.8086C4.44531 11.1484 4.0625 11.5352 3.83985 11.9844C3.71875 12.2266 3.69531 12.3203 3.67969 12.5937C3.63281 13.4961 3.96875 14.5547 4.56641 15.3906C4.98438 15.9766 5.62891 16.5664 6.29297 16.9766L6.53125 17.125L6.50781 17.3398C6.4961 17.4609 6.46485 17.832 6.44141 18.168C6.39844 18.7539 6.39844 18.793 6.48047 19.0547C6.58594 19.3984 6.85156 19.7109 7.17969 19.8711L7.40235 19.9805H10H12.5977L12.8203 19.8711C13.1484 19.7109 13.4141 19.3984 13.5195 19.0547C13.6016 18.793 13.6016 18.7539 13.5586 18.168C13.5352 17.832 13.5039 17.4609 13.4922 17.3398L13.4688 17.1211L13.6758 17C14.0156 16.8047 14.4492 16.4687 14.7969 16.125C15.8164 15.125 16.3828 13.8047 16.3203 12.5937C16.3047 12.3203 16.2813 12.2266 16.1602 11.9844C15.9375 11.5352 15.5547 11.1484 14.9922 10.8086L14.7656 10.6719L15.2461 10.6562C15.6016 10.6406 15.7734 10.6172 15.9258 10.5586C16.3945 10.375 16.7734 9.96484 16.918 9.49219C16.9922 9.24609 16.9922 9.13672 16.9844 5.74219L16.9727 2.24609L16.8516 1.99219C16.6758 1.62109 16.418 1.35937 16.0625 1.18359L15.7656 1.03515L14.457 1.01562L13.1445 0.996091L12.9688 0.871091C12.4297 0.496091 11.5703 0.167966 10.8555 0.0624976C10.3555 -0.0117211 9.60156 -0.0117211 9.1211 0.0624976ZM11.0742 0.777341C12.75 1.13281 13.9063 2.35156 14.3867 4.27734C14.5898 5.08594 14.6289 5.44922 14.6289 6.58203C14.6289 7.53125 14.6211 7.68359 14.5391 8.08203C14.4258 8.63281 14.1992 9.33594 13.9922 9.76953C13.7695 10.2305 13.7539 10.25 13.6133 10.1953C13.4023 10.1133 12.4492 9.89062 12.0508 9.82812C11.3164 9.71094 10.918 9.68359 10 9.68359C8.71094 9.68359 7.76953 9.80469 6.67969 10.1133C6.20313 10.25 6.25 10.2734 6.01563 9.78516C5.80078 9.33594 5.59766 8.73047 5.48438 8.1875C5.39844 7.79297 5.37891 7.57812 5.36328 6.86719C5.33985 5.96094 5.38281 5.37109 5.51172 4.71875C5.98438 2.34375 7.26953 0.996091 9.33985 0.703123C9.72266 0.648435 10.668 0.687498 11.0742 0.777341ZM6.07031 1.72656C6.05469 1.75 5.94922 1.89844 5.83985 2.05469C5.46875 2.57031 5.11328 3.41015 4.92969 4.19922C4.64063 5.43359 4.59766 7.14453 4.82422 8.26172C4.92969 8.78125 5.10547 9.375 5.25781 9.72266C5.3086 9.83594 5.35156 9.94531 5.35156 9.96484C5.35156 9.98437 5.15235 10 4.91016 10C4.49219 10 4.44922 9.99219 4.23047 9.88281C4.09766 9.81641 3.94531 9.70312 3.89063 9.62891C3.66406 9.33594 3.67188 9.45703 3.67188 5.84375C3.67188 3.67578 3.6875 2.46875 3.71094 2.375C3.77344 2.15234 3.98047 1.91015 4.21485 1.78906L4.42188 1.67969H5.26172C5.88281 1.67969 6.08985 1.6914 6.07031 1.72656ZM15.7852 1.78906C16.0234 1.91406 16.2266 2.15234 16.2891 2.38281C16.3164 2.48047 16.3242 3.65234 16.3203 5.90625C16.3086 9.15234 16.3047 9.28125 16.2344 9.42969C16.1367 9.625 15.9531 9.80859 15.7578 9.90234C15.6406 9.96094 15.4961 9.98047 15.1211 9.99219C14.6641 10.0078 14.6367 10.0039 14.6602 9.9375C14.6719 9.89453 14.7461 9.69531 14.8281 9.49219C15.0117 9.01953 15.1719 8.375 15.2539 7.80859C15.3359 7.22656 15.3359 6.01172 15.2539 5.28906C15.0859 3.82812 14.7109 2.80859 13.9492 1.7539C13.8984 1.67969 13.918 1.67969 14.7383 1.67969H15.5781L15.7852 1.78906ZM11.6641 10.4648C13.4414 10.7422 14.5781 11.1602 15.2109 11.7578C15.7266 12.2461 15.7969 12.8008 15.4102 13.3281C14.9883 13.9023 13.8359 14.4687 12.5469 14.7422C11.6836 14.9258 11.1563 14.9727 10.0391 14.9766C8.89844 14.9805 8.46875 14.9414 7.5625 14.7617C6.80469 14.6094 6.26172 14.4297 5.6836 14.1406C4.59766 13.6016 4.13672 12.9219 4.42578 12.293C4.6211 11.8633 5.09375 11.4648 5.78906 11.1367C6.48828 10.8047 7.4961 10.5352 8.39844 10.4336C8.60156 10.4102 8.82422 10.3828 8.88672 10.375C8.95313 10.3672 9.48828 10.3633 10.0781 10.3711C10.9258 10.3789 11.2578 10.3984 11.6641 10.4648ZM4.98828 14.5195C5.66406 14.9492 6.91016 15.3594 8.04688 15.5234C9.41016 15.7187 11 15.6992 12.3125 15.4687C13.293 15.2969 14.4141 14.9023 15.0156 14.5156C15.1406 14.4375 15.25 14.3789 15.2578 14.3867C15.2656 14.3945 15.1719 14.5664 15.0469 14.7656C14.7344 15.2773 14.0625 15.957 13.5273 16.3047C12.2266 17.1523 10.6055 17.4961 9.00391 17.2617C7.19922 16.9961 5.66016 16 4.82813 14.5586C4.76563 14.457 4.73047 14.375 4.74219 14.375C4.75391 14.375 4.86328 14.4375 4.98828 14.5195ZM7.67969 17.6133C9.21094 18.125 10.7891 18.125 12.3203 17.6133C12.5742 17.5312 12.793 17.4609 12.8086 17.4609C12.8242 17.4609 12.8594 17.7539 12.8867 18.1094C12.9297 18.7148 12.9258 18.7656 12.8555 18.9219C12.8164 19.0156 12.7148 19.1406 12.6328 19.2031L12.4883 19.3164H10H7.51172L7.36719 19.2031C7.28516 19.1406 7.1836 19.0156 7.14453 18.9219C7.07422 18.7656 7.07031 18.7148 7.11328 18.1094C7.14063 17.7539 7.17578 17.4609 7.19141 17.4609C7.20703 17.4609 7.42578 17.5312 7.67969 17.6133Z" fill="currentColor"/>
<path d="M9.39844 1.37108C7.93359 1.56249 6.89844 2.46483 6.38672 3.99608C6.14844 4.71483 6.01562 5.56249 6.01562 6.37889C6.01562 6.78905 6.02344 6.82811 6.10547 6.90233C6.20703 6.99608 6.30469 7.01952 6.45312 6.98046C6.62891 6.93358 6.66797 6.79686 6.69141 6.1328C6.74609 4.64843 7.13281 3.49999 7.8125 2.82421C8.29297 2.34374 8.84766 2.10155 9.66797 2.01561C10.1836 1.96483 10.2891 1.92186 10.3203 1.73827C10.3477 1.60155 10.2539 1.41014 10.1367 1.36718C10.0195 1.3203 9.77734 1.32421 9.39844 1.37108Z" fill="currentColor"/>
<path d="M8.69922 11.0742C7.29297 11.25 6.35156 11.6406 6.08984 12.1523C5.99219 12.3477 5.99219 12.6523 6.08984 12.8477C6.44141 13.5352 7.98438 13.9844 10 13.9844C12.0156 13.9844 13.5586 13.5352 13.9102 12.8477C14.0078 12.6523 14.0078 12.3477 13.9102 12.1523C13.6719 11.6875 12.8203 11.3047 11.6016 11.1094C11.043 11.0234 9.28516 11 8.69922 11.0742ZM11.5547 11.7734C12.4805 11.9258 13.3203 12.2695 13.3203 12.5C13.3203 12.7344 12.4727 13.0781 11.5156 13.2305C10.8867 13.332 9.11328 13.332 8.48438 13.2305C7.52734 13.0781 6.67969 12.7344 6.67969 12.5C6.67969 12.3555 7.03125 12.1484 7.55859 11.9805C7.94922 11.8594 8.22266 11.8008 8.75 11.7344C9.31641 11.6641 11.0078 11.6875 11.5547 11.7734Z" fill="currentColor"/>
</svg>
