<svg width="20" height="20" viewBox="0 0 20 20" fill="none" xmlns="http://www.w3.org/2000/svg">
<path d="M9.14063 0.0427742C6.59375 0.304493 4.54297 1.75762 3.38281 4.1209C2.62109 5.66777 2.3125 7.36699 2.35156 9.75762L2.36328 10.5545L2.47656 10.6521C2.59766 10.7576 2.73438 10.7498 2.86328 10.6365C2.92188 10.5818 2.92969 10.4803 2.92969 9.67168C2.92969 7.20293 3.20703 5.74981 3.97266 4.25371C5.21484 1.80449 7.51172 0.480274 10.3125 0.597462C12.2969 0.679493 13.9492 1.46465 15.1328 2.88652C16.2617 4.23809 16.9062 6.04668 17.0312 8.21074C17.0547 8.62481 17.0703 9.94121 17.0625 11.3475L17.0508 13.7693L16.0352 13.7889C15.0664 13.8084 15.0156 13.8123 14.8984 13.8943C14.8008 13.9646 14.6875 14.1795 14.3008 15.035C14.0391 15.6209 13.8281 16.1404 13.8281 16.2068C13.8281 16.285 13.8594 16.3475 13.9297 16.4021C14.0547 16.4998 14.1328 16.5037 14.2539 16.4178C14.3477 16.3553 14.3945 16.2615 14.9414 15.0506L15.2422 14.3748H16.1992C17.2422 14.3748 17.2852 14.367 17.4727 14.1404C17.5312 14.074 17.5938 13.9568 17.6172 13.8748C17.668 13.6873 17.668 8.96465 17.6172 8.12481C17.4219 4.9334 16.1016 2.41387 13.9062 1.05059C12.5938 0.238087 10.8516 -0.129101 9.14063 0.0427742Z" fill="currentColor"/>
<path d="M9.57812 1.83995C9.13281 1.89073 8.83984 1.98057 8.3789 2.20714C7.54297 2.61339 6.9375 3.27354 6.60547 4.14073C6.35156 4.79698 6.30859 5.42589 6.44531 6.48448C6.48828 6.81651 6.52343 7.1212 6.52343 7.15635C6.52343 7.22276 6.44922 7.22667 5.48828 7.22667C4.5039 7.22667 4.44922 7.23057 4.375 7.30479C4.26953 7.41026 4.27343 7.6212 4.3789 7.71885C4.45312 7.78526 4.55078 7.79307 5.54297 7.8126L6.62109 7.83214L6.66797 8.1837C6.6914 8.3751 6.71484 8.59385 6.71484 8.66026L6.71875 8.78917H5.58593C4.5039 8.78917 4.44922 8.79307 4.375 8.86729C4.25781 8.98448 4.26953 9.19151 4.39843 9.29307C4.5 9.3712 4.54687 9.3751 5.66015 9.3751H6.82031L6.8789 9.84776C6.91015 10.1056 6.92578 10.3243 6.91797 10.336C6.91015 10.3439 6.35156 10.3517 5.67578 10.3517C4.5039 10.3517 4.44922 10.3556 4.375 10.4298C4.25781 10.547 4.26953 10.754 4.39843 10.8556C4.5 10.9337 4.54687 10.9376 5.76172 10.9376H7.01953L7.0664 11.3556C7.09375 11.5899 7.125 11.8087 7.13281 11.8439C7.15234 11.9103 7.07031 11.9142 5.80468 11.9142C4.5039 11.9142 4.44922 11.9181 4.375 11.9923C4.25781 12.1095 4.26953 12.3165 4.39843 12.4181C4.5 12.4962 4.54687 12.5001 5.86328 12.5001C6.61328 12.5001 7.22656 12.5118 7.22656 12.5274C7.22265 12.629 7.55078 15.1954 7.60156 15.4689C7.75781 16.3243 8.41015 17.0626 9.23437 17.3282C9.86718 17.5274 10.5039 17.4806 11.0937 17.1954C11.3164 17.0899 11.4648 16.9767 11.7227 16.7228C12.1211 16.3204 12.3047 15.9806 12.3984 15.4689C12.4492 15.1954 12.7773 12.629 12.7734 12.5274C12.7734 12.5118 13.3867 12.5001 14.1367 12.5001C15.4531 12.5001 15.5 12.4962 15.6016 12.4181C15.7305 12.3165 15.7422 12.1095 15.625 11.9923C15.5508 11.9181 15.4961 11.9142 14.1953 11.9142C12.9297 11.9142 12.8477 11.9103 12.8672 11.8439C12.875 11.8087 12.9062 11.5899 12.9336 11.3556L12.9805 10.9376H14.2383C15.4531 10.9376 15.5 10.9337 15.6016 10.8556C15.7305 10.754 15.7422 10.547 15.625 10.4298C15.5508 10.3556 15.4961 10.3517 14.293 10.3517C13.2773 10.3517 13.043 10.3439 13.0586 10.3009C13.0703 10.2735 13.1016 10.0509 13.1289 9.8126L13.1758 9.3751H14.3359C15.4531 9.3751 15.5 9.3712 15.6016 9.29307C15.7305 9.19151 15.7422 8.98448 15.625 8.86729C15.5508 8.79307 15.4961 8.78917 14.4141 8.78917H13.2812L13.2852 8.66026C13.2852 8.59385 13.3086 8.3751 13.332 8.1837L13.3789 7.83214L14.457 7.8126C15.4492 7.79307 15.5469 7.78526 15.6211 7.71885C15.7266 7.6212 15.7305 7.41026 15.625 7.30479C15.5508 7.23057 15.4961 7.22667 14.5117 7.22667C13.5508 7.22667 13.4766 7.22276 13.4766 7.15635C13.4766 7.1212 13.5117 6.8087 13.5586 6.46495C13.7031 5.35167 13.6289 4.59385 13.3086 3.94542C13.1641 3.64854 13.0391 3.57432 12.8594 3.67589C12.6797 3.77745 12.668 3.89854 12.8047 4.24229C12.9805 4.6837 13.0469 5.00401 13.0469 5.44542C13.0469 5.71495 12.8711 7.22667 12.4609 10.4454C12.1406 12.9845 11.8594 15.172 11.8398 15.3087C11.7227 16.086 11.0586 16.7345 10.2539 16.8478C9.27343 16.9884 8.30468 16.2774 8.16015 15.3087C8.14062 15.172 7.85937 12.9845 7.53906 10.4454C6.92187 5.59776 6.89843 5.32432 7.01562 4.79307C7.09765 4.4337 7.35937 3.87901 7.59765 3.5587C8.13281 2.85557 9.02734 2.42198 9.96093 2.41026C10.6367 2.40635 11.1719 2.56651 11.7578 2.94932C12.1172 3.1837 12.2187 3.19932 12.3555 3.03917C12.5508 2.8087 12.3164 2.54307 11.6211 2.20323C11.1406 1.97276 10.8867 1.89854 10.3711 1.83604C9.98047 1.79307 9.98047 1.79307 9.57812 1.83995Z" fill="currentColor"/>
<path d="M9.66797 3.64824C9.27344 3.77324 9 3.9959 8.82422 4.34355C8.69922 4.58574 8.67579 5.07793 8.77344 5.35918C8.87891 5.65605 9.23829 6.01543 9.54297 6.12871C10.1914 6.36699 10.9063 6.0623 11.1914 5.42168C11.2891 5.20683 11.2969 5.15215 11.2813 4.84746C11.2617 4.48027 11.1914 4.29277 10.9688 4.03886C10.7969 3.84746 10.5898 3.72246 10.3242 3.65215C10.0586 3.58183 9.87891 3.58183 9.66797 3.64824ZM10.3516 4.27715C10.4141 4.3084 10.5117 4.39824 10.5742 4.47636C10.7188 4.66777 10.75 5.07011 10.6289 5.25761C10.3203 5.75371 9.61329 5.73808 9.35157 5.23027C9.27735 5.08574 9.28125 4.7498 9.35938 4.58965C9.52735 4.23027 9.98438 4.08574 10.3516 4.27715Z" fill="currentColor"/>
<path d="M2.53906 11.457C2.35547 11.5469 2.34375 11.6289 2.34375 12.7148C2.34375 13.293 2.36328 13.793 2.38281 13.875C2.40625 13.957 2.46875 14.0742 2.52734 14.1406C2.71484 14.3672 2.75781 14.375 3.80078 14.375H4.75391L4.80469 14.4805C4.83203 14.543 5.17578 15.3047 5.57031 16.1836C6.02734 17.1992 6.36328 17.8906 6.49609 18.0977C7.30859 19.3281 8.60156 20 10.1797 20C11.5352 20 12.6562 19.4336 13.3672 18.3906C13.5781 18.0781 13.8672 17.4688 13.8672 17.3359C13.8672 17.1875 13.7422 17.0703 13.582 17.0703C13.4141 17.0703 13.3711 17.1211 13.1523 17.5781C12.5898 18.7656 11.5391 19.4102 10.1719 19.4141C9.04688 19.4141 8.14844 19.0547 7.41406 18.3086C6.96484 17.8555 6.92969 17.7852 5.9375 15.5742C5.33984 14.2461 5.20312 13.9688 5.10156 13.8945C4.98438 13.8125 4.93359 13.8086 3.96484 13.7891L2.94922 13.7695L2.9375 12.6719C2.92969 11.6875 2.92188 11.5664 2.85938 11.5156C2.75781 11.4219 2.64453 11.4023 2.53906 11.457Z" fill="currentColor"/>
</svg>
