<svg width="50" height="50" viewBox="0 0 50 50" fill="none" xmlns="http://www.w3.org/2000/svg">
<path d="M40.625 31.25H31.25V28.125H40.625V31.25ZM46.875 43.75H37.5V40.625H46.875V43.75ZM43.75 37.5H34.375V34.375H43.75V37.5Z" fill="#333333"/>
<path d="M26.5668 31.25C26.5558 29.9316 26.2042 28.6384 25.546 27.496C24.8879 26.3535 23.9456 25.4006 22.8106 24.7297L34.3746 4.6875L31.6715 3.125L19.8324 23.6344C18.3795 23.3098 16.8683 23.3547 15.4372 23.7649C14.006 24.1752 12.7006 24.9377 11.6402 25.9828C5.79025 31.625 6.24337 44.8156 6.26525 45.375C6.2814 45.7785 6.45312 46.16 6.74442 46.4397C7.03571 46.7193 7.42395 46.8753 7.82775 46.875H31.2512C31.5791 46.875 31.8988 46.7718 32.1648 46.5801C32.4308 46.3883 32.6298 46.1177 32.7335 45.8066C32.8372 45.4955 32.8404 45.1596 32.7426 44.8466C32.6448 44.5336 32.451 44.2593 32.1887 44.0625C26.6574 39.9125 26.5668 31.3344 26.5668 31.25ZM18.6402 26.5578C19.8908 26.5716 21.088 27.0669 21.9826 27.9409C22.8772 28.8148 23.4004 30.0001 23.4434 31.25C23.4434 31.3094 23.4465 31.575 23.4699 31.9828L14.2512 27.8828C14.8584 27.3821 15.5592 27.0071 16.3127 26.7796C17.0662 26.5521 17.8574 26.4767 18.6402 26.5578ZM24.1402 43.75C22.8913 42.4783 22.0952 40.8312 21.8746 39.0625H18.7496C18.8615 40.7254 19.381 42.3353 20.2621 43.75H16.7887C16.1461 41.7222 15.7552 39.6232 15.6246 37.5H12.4996C12.6004 39.6168 12.9491 41.7145 13.5387 43.75H9.37462C9.42306 40.8813 9.82775 34.5438 12.1918 30.3859L23.9621 35.6203C24.5276 38.5567 25.7333 41.3324 27.4934 43.75H24.1402Z" fill="#333333"/>
</svg>
