<svg width="50" height="50" viewBox="0 0 50 50" fill="none" xmlns="http://www.w3.org/2000/svg">
<path d="M10.417 35.4167C10.417 36.5217 10.856 37.5815 11.6374 38.3629C12.4188 39.1443 13.4786 39.5833 14.5837 39.5833C15.6887 39.5833 16.7485 39.1443 17.5299 38.3629C18.3113 37.5815 18.7503 36.5217 18.7503 35.4167C18.7503 34.3116 18.3113 33.2518 17.5299 32.4704C16.7485 31.689 15.6887 31.25 14.5837 31.25C13.4786 31.25 12.4188 31.689 11.6374 32.4704C10.856 33.2518 10.417 34.3116 10.417 35.4167ZM31.2503 35.4167C31.2503 36.5217 31.6893 37.5815 32.4707 38.3629C33.2521 39.1443 34.3119 39.5833 35.417 39.5833C36.5221 39.5833 37.5819 39.1443 38.3633 38.3629C39.1447 37.5815 39.5837 36.5217 39.5837 35.4167C39.5837 34.3116 39.1447 33.2518 38.3633 32.4704C37.5819 31.689 36.5221 31.25 35.417 31.25C34.3119 31.25 33.2521 31.689 32.4707 32.4704C31.6893 33.2518 31.2503 34.3116 31.2503 35.4167Z" stroke="#333333" stroke-width="3" stroke-linecap="round" stroke-linejoin="round"/>
<path d="M10.417 35.4165H6.25033V27.0832M4.16699 10.4165H27.0837V35.4165M18.7503 35.4165H31.2503M39.5837 35.4165H43.7503V22.9165M43.7503 22.9165H27.0837M43.7503 22.9165L37.5003 12.4998H27.0837M6.25033 18.7498H14.5837" stroke="#333333" stroke-width="3" stroke-linecap="round" stroke-linejoin="round"/>
</svg>
