<svg width="50" height="50" viewBox="0 0 50 50" fill="none" xmlns="http://www.w3.org/2000/svg">
<path fill-rule="evenodd" clip-rule="evenodd" d="M21.9354 7.83333C19.125 8.85833 16.9208 11.2552 16.0406 14.2646C14.4771 15.0667 13.5417 16.0833 13.5417 17.1875C13.5417 18.4354 14.7333 19.5698 16.6771 20.4094C16.6206 21.5374 16.7941 22.6651 17.1868 23.724C17.5796 24.7829 18.1836 25.751 18.962 26.5693C19.7404 27.3877 20.677 28.0392 21.715 28.4844C22.7529 28.9297 23.8706 29.1592 25 29.1592C26.1294 29.1592 27.2471 28.9297 28.285 28.4844C29.323 28.0392 30.2596 27.3877 31.038 26.5693C31.8164 25.751 32.4204 24.7829 32.8132 23.724C33.2059 22.6651 33.3794 21.5374 33.3229 20.4094C35.2667 19.5698 36.4583 18.4354 36.4583 17.1875C36.4583 16.0823 35.5229 15.0667 33.9583 14.2646C33.0792 11.2542 30.875 8.85833 28.0646 7.83229C27.9526 7.38047 27.6926 6.97915 27.3259 6.69236C26.9593 6.40557 26.5072 6.24984 26.0417 6.25H23.9583C23.4927 6.24989 23.0405 6.40578 22.6738 6.69277C22.3071 6.97976 22.0472 7.38131 21.9354 7.83333ZM22.9167 12.5C23.1929 12.5 23.4579 12.3903 23.6532 12.1949C23.8486 11.9996 23.9583 11.7346 23.9583 11.4583V8.33333H26.0417V11.4583C26.0417 11.7346 26.1514 11.9996 26.3468 12.1949C26.5421 12.3903 26.8071 12.5 27.0833 12.5C27.3596 12.5 27.6246 12.3903 27.8199 12.1949C28.0153 11.9996 28.125 11.7346 28.125 11.4583V10.1271C29.7781 10.9708 31.1125 12.474 31.7969 14.3521C31.7939 14.3642 31.7911 14.3763 31.7885 14.3885C31.7366 14.4294 31.682 14.4666 31.625 14.5C31.3271 14.6771 30.8354 14.8708 30.1542 15.0479C28.8073 15.399 26.9448 15.625 25 15.625C23.0552 15.625 21.1927 15.399 19.8458 15.0479C19.1646 14.8708 18.6729 14.6771 18.375 14.5C18.318 14.4666 18.2634 14.4294 18.2115 14.3885L18.2094 14.3792C18.2075 14.3701 18.2054 14.3611 18.2031 14.3521C18.8875 12.474 20.2219 10.9698 21.875 10.1271V11.4583C21.875 11.7346 21.9847 11.9996 22.1801 12.1949C22.3754 12.3903 22.6404 12.5 22.9167 12.5ZM17.025 16.1021L16.9906 16.1187C16.3583 16.4427 15.976 16.751 15.775 16.9812C15.7174 17.0427 15.669 17.1122 15.6312 17.1875C15.6531 17.2375 15.7167 17.3458 15.8906 17.5146C16.2167 17.8302 16.7979 18.2104 17.6865 18.574C19.4531 19.2969 22.0385 19.7917 25 19.7917C27.9615 19.7917 30.5469 19.2969 32.3125 18.5729C33.2021 18.2104 33.7833 17.8302 34.1094 17.5146C34.2833 17.3458 34.3469 17.2375 34.3687 17.1875C34.331 17.1122 34.2826 17.0427 34.225 16.9812C34.024 16.751 33.6417 16.4427 33.0094 16.1187L32.975 16.1021C32.8836 16.169 32.789 16.2316 32.6917 16.2896C32.1531 16.6104 31.4469 16.8646 30.6781 17.0646C29.126 17.4687 27.0833 17.7083 25 17.7083C22.9167 17.7083 20.874 17.4687 19.3219 17.0646C18.5531 16.8646 17.8469 16.6104 17.3083 16.2885C17.211 16.2306 17.1164 16.168 17.025 16.101M34.3792 17.1552C34.3781 17.1552 34.3771 17.1583 34.376 17.1656C34.3769 17.1629 34.3776 17.1601 34.3781 17.1573L34.3792 17.1552ZM15.6229 17.1615L15.6219 17.1552L15.624 17.1656L15.6229 17.1615ZM15.6229 17.2115V17.2062V17.2094L15.6219 17.2156L15.6229 17.2115ZM31.2437 21.1177C29.4479 21.5979 27.3021 21.875 25 21.875C22.6979 21.875 20.5521 21.5969 18.7563 21.1187C18.8282 22.7264 19.5175 24.2443 20.6805 25.3564C21.8436 26.4686 23.3908 27.0893 25 27.0893C26.6092 27.0893 28.1564 26.4686 29.3195 25.3564C30.4825 24.2443 31.1718 22.7253 31.2437 21.1177ZM36.1302 27.7021C36.1886 27.5185 36.1949 27.3223 36.1484 27.1353C36.1019 26.9484 36.0045 26.7779 35.867 26.643C35.7295 26.5081 35.5573 26.4139 35.3694 26.371C35.1816 26.3281 34.9856 26.3382 34.8031 26.4C33.5957 26.8105 32.5287 27.5536 31.7249 28.5437C30.9211 29.5339 30.4132 30.7309 30.2597 31.9969C30.1061 33.2629 30.3131 34.5466 30.8569 35.7002C31.4006 36.8538 32.259 37.8304 33.3333 38.5177V42.7083C33.3333 42.9846 33.4431 43.2496 33.6384 43.4449C33.8338 43.6403 34.0987 43.75 34.375 43.75H39.5833C39.8596 43.75 40.1246 43.6403 40.3199 43.4449C40.5153 43.2496 40.625 42.9846 40.625 42.7083V38.5187C41.6999 37.8317 42.5589 36.8549 43.103 35.7011C43.6472 34.5472 43.8544 33.2632 43.7008 31.9967C43.5472 30.7303 43.0391 29.5329 42.2349 28.5426C41.4307 27.5523 40.3632 26.8092 39.1552 26.399C38.9726 26.337 38.7765 26.3269 38.5885 26.3699C38.4006 26.4128 38.2282 26.5071 38.0906 26.6421C37.9531 26.7772 37.8557 26.9478 37.8094 27.135C37.763 27.3221 37.7695 27.5184 37.8281 27.7021C37.8372 27.7302 37.8448 27.7587 37.851 27.7875L38.4312 30.4958C38.4771 30.7121 38.4741 30.9359 38.4224 31.1508C38.3707 31.3657 38.2717 31.5664 38.1325 31.7382C37.9934 31.91 37.8176 32.0485 37.618 32.1436C37.4185 32.2388 37.2002 32.2881 36.9792 32.2881C36.7581 32.2881 36.5398 32.2388 36.3403 32.1436C36.1407 32.0485 35.965 31.91 35.8258 31.7382C35.6867 31.5664 35.5876 31.3657 35.5359 31.1508C35.4842 30.9359 35.4812 30.7121 35.5271 30.4958L36.1073 27.7875C36.1135 27.7587 36.1212 27.7302 36.1302 27.7021ZM40.4677 30.0594L40.3635 29.5677C40.87 30.0956 41.2458 30.7348 41.461 31.434C41.6762 32.1332 41.7247 32.873 41.6027 33.5944C41.4807 34.3157 41.1916 34.9984 40.7584 35.588C40.3253 36.1775 39.7602 36.6575 39.1083 36.9896C38.9311 37.08 38.7834 37.2192 38.6828 37.3909C38.5822 37.5626 38.5328 37.7595 38.5406 37.9583L38.5417 38.0208V41.6667H35.4167V38.0125L35.4177 37.9583C35.4256 37.7596 35.3764 37.5628 35.276 37.3911C35.1756 37.2194 35.0281 37.0801 34.851 36.9896C34.1992 36.6575 33.6341 36.1775 33.2009 35.588C32.7678 34.9984 32.4787 34.3157 32.3567 33.5944C32.2347 32.873 32.2832 32.1332 32.4984 31.434C32.7136 30.7348 33.0894 30.0956 33.5958 29.5677L33.4906 30.0594C33.3792 30.5795 33.3855 31.118 33.509 31.6354C33.6326 32.1529 33.8703 32.6361 34.2047 33.0498C34.5392 33.4635 34.9619 33.7971 35.4419 34.0263C35.922 34.2555 36.4472 34.3745 36.9792 34.3745C37.5111 34.3745 38.0364 34.2555 38.5164 34.0263C38.9965 33.7971 39.4192 33.4635 39.7536 33.0498C40.0881 32.6361 40.3257 32.1529 40.4493 31.6354C40.5729 31.118 40.5791 30.5795 40.4677 30.0594ZM19.1177 29.8L23.9583 33.5646V37.3927C24.1719 37.4469 24.5052 37.5 25 37.5C25.4948 37.5 25.8281 37.4479 26.0417 37.3927V33.3333L28.125 31.7708V43.75H6.25V37.5C6.25 33.6865 13.0417 30.9656 19.1177 29.8ZM15.0781 37.7792L21.875 36.6469V41.6667H13.5417V33.5208C14.6826 33.0829 15.8477 32.7108 17.0312 32.4062L15.0781 37.7792ZM8.33333 41.6667H11.4583V34.4573L11.3812 34.4979C10.2729 35.0854 9.4625 35.6844 8.95208 36.2479C8.45208 36.8021 8.33333 37.2115 8.33333 37.5V41.6667ZM25 39.5833C24.6062 39.5833 24.2604 39.5573 23.9583 39.5135V41.6667H26.0417V39.5135C25.7396 39.5573 25.3937 39.5833 25 39.5833ZM21.8229 34.5427L19.2104 32.5115L18.2552 35.1375L21.8229 34.5427Z" fill="#333333"/>
</svg>
