<svg width="50" height="50" viewBox="0 0 50 50" fill="none" xmlns="http://www.w3.org/2000/svg">
<path d="M39.583 41.6667C39.583 43.9792 37.7288 45.8334 35.4163 45.8334C34.3113 45.8334 33.2515 45.3944 32.4701 44.613C31.6887 43.8316 31.2497 42.7718 31.2497 41.6667C31.2497 39.3542 33.1038 37.5001 35.4163 37.5001C36.5214 37.5001 37.5812 37.9391 38.3626 38.7205C39.144 39.5019 39.583 40.5617 39.583 41.6667ZM14.583 37.5001C12.2705 37.5001 10.4163 39.3542 10.4163 41.6667C10.4163 42.7718 10.8553 43.8316 11.6367 44.613C12.4181 45.3944 13.4779 45.8334 14.583 45.8334C16.8955 45.8334 18.7497 43.9792 18.7497 41.6667C18.7497 39.3542 16.8955 37.5001 14.583 37.5001ZM14.9997 30.4792L14.9372 30.7292C14.9372 31.0209 15.1663 31.2501 15.458 31.2501H39.583V35.4167H14.583C13.4779 35.4167 12.4181 34.9778 11.6367 34.1964C10.8553 33.415 10.4163 32.3551 10.4163 31.2501C10.4163 30.5209 10.6038 29.8334 10.9163 29.2501L13.7497 24.1459L6.24967 8.33341H2.08301V4.16675H8.89551L10.8538 8.33341H41.6663C42.8122 8.33341 43.7497 9.27091 43.7497 10.4167C43.7497 10.7709 43.6455 11.1251 43.4997 11.4584L36.0413 24.9376C35.333 26.2084 33.958 27.0834 32.3955 27.0834H16.8747L14.9997 30.4792ZM17.708 22.9167H20.833V18.7501H15.7497L17.708 22.9167ZM22.9163 18.7501V22.9167H29.1663V18.7501H22.9163ZM29.1663 16.6667V12.5001H22.9163V16.6667H29.1663ZM35.6455 18.7501H31.2497V22.9167H33.333L35.6455 18.7501ZM39.1247 12.5001H31.2497V16.6667H36.8122L39.1247 12.5001ZM12.7913 12.5001L14.7497 16.6667H20.833V12.5001H12.7913Z" fill="#333333"/>
</svg>
