<svg width="20" height="20" viewBox="0 0 20 20" fill="none" xmlns="http://www.w3.org/2000/svg">
<path d="M15.8337 18.3332V17.0832M4.16699 18.3332V17.0832M10.0003 16.6665V1.6665M12.5003 7.49984V10.8332M7.50033 7.49984V10.8332" stroke="currentColor" stroke-width="1.25" stroke-linecap="round"/>
<path d="M1.66699 8.33317C1.66699 5.19067 1.66699 3.619 2.64366 2.64317C3.61949 1.6665 5.19116 1.6665 8.33366 1.6665H11.667C14.8095 1.6665 16.3812 1.6665 17.357 2.64317C18.3337 3.619 18.3337 5.19067 18.3337 8.33317V9.99984C18.3337 13.1423 18.3337 14.714 17.357 15.6898C16.3812 16.6665 14.8095 16.6665 11.667 16.6665H8.33366C5.19116 16.6665 3.61949 16.6665 2.64366 15.6898C1.66699 14.714 1.66699 13.1423 1.66699 9.99984V8.33317Z" stroke="currentColor" stroke-width="1.25"/>
</svg>
