<svg width="20" height="20" viewBox="0 0 20 20" fill="none" xmlns="http://www.w3.org/2000/svg">
<path d="M9.375 11.6665C9.20924 11.6665 9.05027 11.6007 8.93306 11.4834C8.81585 11.3662 8.75 11.2073 8.75 11.0415C8.75 10.8757 8.81585 10.7168 8.93306 10.5996C9.05027 10.4824 9.20924 10.4165 9.375 10.4165C9.54076 10.4165 9.69973 10.4824 9.81694 10.5996C9.93415 10.7168 10 10.8757 10 11.0415C10 11.2073 9.93415 11.3662 9.81694 11.4834C9.69973 11.6007 9.54076 11.6665 9.375 11.6665Z" fill="currentColor"/>
<path fill-rule="evenodd" clip-rule="evenodd" d="M3.92875 8.33333C4.00958 8.33333 4.08917 8.32667 4.16667 8.31333V11.6667H3.125C3.06975 11.6667 3.01676 11.6886 2.97769 11.7277C2.93862 11.7668 2.91667 11.8197 2.91667 11.875V12.2917C2.91667 12.3469 2.93862 12.3999 2.97769 12.439C3.01676 12.4781 3.06975 12.5 3.125 12.5H16.875C16.9303 12.5 16.9832 12.4781 17.0223 12.439C17.0614 12.3999 17.0833 12.3469 17.0833 12.2917V11.875C17.0833 11.8197 17.0614 11.7668 17.0223 11.7277C16.9832 11.6886 16.9303 11.6667 16.875 11.6667H15.8333V8.31333C15.9108 8.32667 15.9904 8.33333 16.0712 8.33333C16.8637 8.33333 17.5 7.68667 17.5 6.89625V5.90042C17.5 5.76829 17.4771 5.63716 17.4321 5.51292L16.5238 3.00875C16.4699 2.8597 16.3713 2.73089 16.2416 2.63985C16.1119 2.54882 15.9572 2.49998 15.7987 2.5H4.20083C4.04244 2.50018 3.88794 2.54916 3.75837 2.64026C3.6288 2.73137 3.53044 2.86018 3.47667 3.00917L2.56833 5.51292C2.5232 5.63713 2.50008 5.76826 2.5 5.90042V6.89625C2.5 7.68667 3.13625 8.33333 3.92875 8.33333ZM3.35167 5.79708L4.24542 3.33333H15.7542L16.6479 5.79708C16.6604 5.83042 16.6663 5.865 16.6663 5.90042V6.89625C16.6672 7.05524 16.6051 7.20812 16.4935 7.32132C16.3818 7.43452 16.2298 7.49879 16.0708 7.5C15.7458 7.5 15.4758 7.23333 15.4758 6.89625C15.4758 6.78574 15.4319 6.67976 15.3538 6.60162C15.2757 6.52348 15.1697 6.47958 15.0592 6.47958C14.9487 6.47958 14.8427 6.52348 14.7645 6.60162C14.6864 6.67976 14.6425 6.78574 14.6425 6.89625C14.6435 7.05524 14.5814 7.20812 14.4697 7.32132C14.3581 7.43452 14.2061 7.49879 14.0471 7.5C13.7221 7.5 13.4521 7.23333 13.4521 6.89667C13.4521 6.78616 13.4082 6.68018 13.33 6.60204C13.2519 6.5239 13.1459 6.48 13.0354 6.48C12.9249 6.48 12.8189 6.5239 12.7408 6.60204C12.6626 6.68018 12.6187 6.78616 12.6187 6.89667C12.6187 7.23333 12.3488 7.5 12.0233 7.5C11.6979 7.5 11.4283 7.23333 11.4283 6.89625C11.4283 6.78574 11.3844 6.67976 11.3063 6.60162C11.2282 6.52348 11.1222 6.47958 11.0117 6.47958C10.9012 6.47958 10.7952 6.52348 10.717 6.60162C10.6389 6.67976 10.595 6.78574 10.595 6.89625C10.5961 7.0552 10.5341 7.20808 10.4225 7.3213C10.3109 7.43451 10.1589 7.49879 10 7.5C9.84109 7.49879 9.68914 7.43458 9.57752 7.32147C9.46589 7.20836 9.4037 7.05558 9.40458 6.89667C9.40458 6.78616 9.36068 6.68018 9.28254 6.60204C9.2044 6.5239 9.09842 6.48 8.98792 6.48C8.87741 6.48 8.77143 6.5239 8.69329 6.60204C8.61515 6.68018 8.57125 6.78616 8.57125 6.89667C8.57125 7.23333 8.30167 7.5 7.97625 7.5C7.65083 7.5 7.38083 7.23333 7.38083 6.89625C7.38083 6.78574 7.33693 6.67976 7.25879 6.60162C7.18065 6.52348 7.07467 6.47958 6.96417 6.47958C6.85366 6.47958 6.74768 6.52348 6.66954 6.60162C6.5914 6.67976 6.5475 6.78574 6.5475 6.89625C6.5475 7.23292 6.27792 7.5 5.9525 7.5C5.62708 7.5 5.35708 7.23333 5.35708 6.89625C5.35708 6.78574 5.31318 6.67976 5.23504 6.60162C5.1569 6.52348 5.05092 6.47958 4.94042 6.47958C4.82991 6.47958 4.72393 6.52348 4.64579 6.60162C4.56765 6.67976 4.52375 6.78574 4.52375 6.89625C4.52375 7.23292 4.25417 7.5 3.92875 7.5C3.60292 7.5 3.33333 7.23333 3.33333 6.89625V5.90042C3.33333 5.86516 3.33953 5.83018 3.35167 5.79708ZM15 7.9675C14.7389 8.20348 14.3994 8.33389 14.0475 8.33333C13.8593 8.33356 13.6729 8.29632 13.4992 8.22378C13.3255 8.15125 13.168 8.04486 13.0358 7.91083C12.9036 8.04491 12.746 8.15133 12.5723 8.22387C12.3985 8.2964 12.212 8.33362 12.0238 8.33333C11.8355 8.33356 11.6491 8.29632 11.4754 8.22378C11.3018 8.15125 11.1442 8.04486 11.0121 7.91083C10.8799 8.04491 10.7223 8.15133 10.5485 8.22387C10.3748 8.2964 10.1883 8.33362 10 8.33333C9.8117 8.33362 9.62523 8.2964 9.45147 8.22387C9.2777 8.15133 9.12012 8.04491 8.98792 7.91083C8.85576 8.04486 8.69825 8.15125 8.52456 8.22378C8.35087 8.29632 8.16448 8.33356 7.97625 8.33333C7.58 8.33333 7.22208 8.17125 6.96417 7.91083C6.83201 8.04486 6.6745 8.15125 6.50081 8.22378C6.32712 8.29632 6.14073 8.33356 5.9525 8.33333C5.58583 8.33333 5.2525 8.19458 5 7.9675V11.6667H6.04167C5.98641 11.6667 5.93342 11.6447 5.89435 11.6056C5.85528 11.5666 5.83333 11.5136 5.83333 11.4583V10.625C5.83333 10.5697 5.85528 10.5168 5.89435 10.4777C5.93342 10.4386 5.98641 10.4167 6.04167 10.4167H7.29167C7.34692 10.4167 7.39991 10.4386 7.43898 10.4777C7.47805 10.5168 7.5 10.5697 7.5 10.625V10.8333H8.125C8.18025 10.8333 8.23324 10.8553 8.27231 10.8944C8.31138 10.9334 8.33333 10.9864 8.33333 11.0417V11.4583C8.33333 11.5136 8.31138 11.5666 8.27231 11.6056C8.23324 11.6447 8.18025 11.6667 8.125 11.6667H15V7.9675ZM3.33333 13.75C3.33333 13.6395 3.37723 13.5335 3.45537 13.4554C3.53351 13.3772 3.63949 13.3333 3.75 13.3333H16.25C16.3605 13.3333 16.4665 13.3772 16.5446 13.4554C16.6228 13.5335 16.6667 13.6395 16.6667 13.75V17.0833C16.6667 17.1938 16.6228 17.2998 16.5446 17.378C16.4665 17.4561 16.3605 17.5 16.25 17.5H3.75C3.63949 17.5 3.53351 17.4561 3.45537 17.378C3.37723 17.2998 3.33333 17.1938 3.33333 17.0833V13.75ZM4.16667 16.6667V14.1667H15.8333V16.6667H4.16667Z" fill="currentColor"/>
</svg>
