<svg width="20" height="20" viewBox="0 0 20 20" fill="none" xmlns="http://www.w3.org/2000/svg">
<g clip-path="url(#clip0_613_24)">
<path d="M10.4102 1.97266C10.3164 2.0625 10.3125 2.08594 10.3125 2.59766C10.3125 3.04688 10.3047 3.125 10.2539 3.125C10.2188 3.125 10.1484 3.16797 10.0977 3.22266L10 3.31641V5.41016V7.5H9.6875H9.375V6.36719C9.375 5.70312 9.35547 5.15234 9.33203 5.03125C9.14844 4.13672 8.29297 3.4375 7.38281 3.4375H7.1875V3.06641C7.1875 2.72266 7.17969 2.68359 7.08984 2.59766C7 2.50391 6.98047 2.5 6.40625 2.5C5.83203 2.5 5.8125 2.50391 5.72266 2.59766C5.63281 2.68359 5.625 2.72266 5.625 3.06641C5.625 3.375 5.61328 3.4375 5.56641 3.4375C5.53125 3.4375 5.46094 3.48047 5.41016 3.53516L5.3125 3.62891V5.56641V7.5H5H4.6875V6.36719C4.6875 5.70312 4.66797 5.15234 4.64453 5.03125C4.46094 4.13672 3.60547 3.4375 2.69531 3.4375H2.5V3.06641C2.5 2.72266 2.49219 2.68359 2.40234 2.59766C2.3125 2.50391 2.29297 2.5 1.71875 2.5C1.14453 2.5 1.125 2.50391 1.03516 2.59766C0.945312 2.68359 0.9375 2.72266 0.9375 3.06641C0.9375 3.375 0.925781 3.4375 0.878906 3.4375C0.84375 3.4375 0.773438 3.48047 0.722656 3.53516L0.625 3.62891V5.56641V7.5H0.410156C0.230469 7.5 0.175781 7.51562 0.0976562 7.59766C0 7.69141 0 7.69922 0 8.4375C0 9.17578 0 9.18359 0.0976562 9.27734L0.191406 9.375H10H19.8086L19.9023 9.27734C20 9.18359 20 9.17578 20 8.4375C20 7.69922 20 7.69141 19.9023 7.59766C19.8242 7.51562 19.7695 7.5 19.5898 7.5H19.375V6.88672C19.375 6.34766 19.3672 6.25391 19.293 6.10547L19.2109 5.9375L19.293 5.76953C19.3672 5.62109 19.375 5.52734 19.375 5C19.375 4.47266 19.3672 4.37891 19.293 4.23047L19.2109 4.0625L19.2969 3.88672C19.375 3.72656 19.3789 3.66406 19.3672 3.07031L19.3555 2.42969L19.2383 2.26172C19.168 2.16016 19.043 2.05469 18.9258 1.99609L18.7344 1.89453H16.1289C13.5547 1.89453 13.5195 1.89453 13.4141 1.97656C13.1797 2.14844 13.1445 2.23828 13.1484 2.62891C13.1562 3.03516 13.1562 3.10156 13.1562 3.59375C13.1562 3.78516 13.1562 3.99609 13.1562 4.0625C13.1562 4.125 13.1562 4.33594 13.1562 4.53125C13.1562 4.72266 13.1562 4.93359 13.1562 5C13.1562 5.0625 13.1562 5.27344 13.1562 5.46875C13.1562 5.66016 13.1562 5.87109 13.1562 5.9375C13.1562 6 13.1523 6.20703 13.1523 6.39453C13.1523 6.58594 13.1562 6.78125 13.1602 6.83594C13.1641 6.89062 13.1562 7.0625 13.1406 7.21484L13.1172 7.5H12.8086H12.5V5.41016V3.31641L12.4023 3.22266C12.3516 3.16797 12.2812 3.125 12.2461 3.125C12.1953 3.125 12.1875 3.04688 12.1875 2.59766C12.1875 2.08594 12.1836 2.0625 12.0898 1.97266C11.9961 1.875 11.9883 1.875 11.25 1.875C10.5117 1.875 10.5039 1.875 10.4102 1.97266ZM11.5625 2.8125V3.125H11.25H10.9375V2.8125V2.5H11.25H11.5625V2.8125ZM18.6641 2.5625C18.7461 2.61719 18.75 2.64844 18.75 3.125C18.75 3.60156 18.7461 3.63281 18.6641 3.6875C18.5859 3.74219 18.2852 3.75 16.1641 3.75H13.75V3.59375V3.4375H15.8398H17.9336L18.0273 3.33984C18.1562 3.21484 18.1562 3.03516 18.0273 2.91016L17.9336 2.8125H15.8398H13.75V2.65625V2.5H16.1641C18.2852 2.5 18.5859 2.50781 18.6641 2.5625ZM1.875 3.28125V3.4375H1.71875H1.5625V3.28125V3.125H1.71875H1.875V3.28125ZM6.5625 3.28125V3.4375H6.40625H6.25V3.28125V3.125H6.40625H6.5625V3.28125ZM11.875 5.625V7.5H11.25H10.625V5.625V3.75H11.25H11.875V5.625ZM3.28906 4.21094C3.58984 4.35938 3.79688 4.57031 3.94141 4.87891L4.04297 5.09766L4.05469 6.29688L4.06641 7.5H2.66016H1.25V5.77734V4.05859L2.14062 4.07031L3.03125 4.08203L3.28906 4.21094ZM7.97656 4.21094C8.27734 4.35938 8.48438 4.57031 8.62891 4.87891L8.73047 5.09766L8.74219 6.29688L8.75391 7.5H7.34766H5.9375V5.77734V4.05859L6.82812 4.07031L7.71875 4.08203L7.97656 4.21094ZM18.6641 4.4375C18.7461 4.49219 18.75 4.52344 18.75 5C18.75 5.47656 18.7461 5.50781 18.6641 5.5625C18.5859 5.61719 18.2852 5.625 16.1641 5.625H13.75V5.46875V5.3125H15.8398H17.9336L18.0273 5.21484C18.1562 5.08984 18.1562 4.91016 18.0273 4.78516L17.9336 4.6875H15.8398H13.75V4.53125V4.375H16.1641C18.2852 4.375 18.5859 4.38281 18.6641 4.4375ZM18.6641 6.3125C18.7461 6.36719 18.75 6.39844 18.75 6.875C18.75 7.35156 18.7461 7.38281 18.6641 7.4375C18.5859 7.49219 18.2852 7.5 16.1641 7.5H13.75V7.34375V7.1875H15.8398H17.9336L18.0273 7.08984C18.1562 6.96484 18.1562 6.78516 18.0273 6.66016L17.9336 6.5625H15.8398H13.75V6.40625V6.25H16.1641C18.2852 6.25 18.5859 6.25781 18.6641 6.3125ZM19.375 8.4375V8.75H10H0.625V8.4375V8.125H10H19.375V8.4375Z" fill="currentColor"/>
<path d="M1.97656 4.46491L1.875 4.56648V5.31257C1.875 6.31648 1.80859 6.25007 2.8125 6.25007H3.55859L3.66015 6.14851C3.7539 6.05476 3.75781 6.03132 3.73828 5.78913C3.70312 5.44538 3.5039 5.03132 3.25781 4.80866C3.01562 4.5821 2.65234 4.41804 2.33203 4.38679C2.09375 4.36726 2.07031 4.37116 1.97656 4.46491ZM2.83594 5.28913C3.125 5.5821 3.11719 5.62507 2.77344 5.62507H2.5V5.35163C2.5 5.00788 2.54297 5.00007 2.83594 5.28913Z" fill="currentColor"/>
<path d="M6.66406 4.46491L6.5625 4.56648V5.31257C6.5625 6.31648 6.49609 6.25007 7.5 6.25007H8.24609L8.34765 6.14851C8.4414 6.05476 8.44531 6.03132 8.42578 5.78913C8.39062 5.44538 8.1914 5.03132 7.94531 4.80866C7.70312 4.5821 7.33984 4.41804 7.01953 4.38679C6.78125 4.36726 6.75781 4.37116 6.66406 4.46491ZM7.52344 5.28913C7.8125 5.5821 7.80469 5.62507 7.46094 5.62507H7.1875V5.35163C7.1875 5.00788 7.23047 5.00007 7.52344 5.28913Z" fill="currentColor"/>
<path d="M11.9727 10.0977L11.875 10.1914V15V19.8086L11.9727 19.9023L12.0664 20H15.9375H19.8086L19.9023 19.9023L20 19.8086V15V10.1914L19.9023 10.0977L19.8086 10H15.9375H12.0664L11.9727 10.0977ZM19.375 15V19.375H15.9375H12.5V15V10.625H15.9375H19.375V15Z" fill="currentColor"/>
<path d="M13.3281 10.9805C13.1445 11.0352 12.9023 11.293 12.8477 11.4922C12.7578 11.8398 12.8945 12.2031 13.1914 12.3867L13.3398 12.4805H14.8477H16.3516L16.5117 12.375C16.7539 12.2148 16.8555 12.0234 16.8555 11.7187C16.8555 11.4141 16.7539 11.2227 16.5117 11.0625L16.3516 10.957L14.9062 10.9492C14.0586 10.9453 13.4023 10.957 13.3281 10.9805ZM16.2266 11.6484C16.2578 11.6992 16.2578 11.7383 16.2266 11.7852C16.1875 11.8516 16.0703 11.8555 14.8633 11.8672C13.5039 11.875 13.4375 11.8711 13.4375 11.7227C13.4375 11.5664 13.4805 11.5625 14.8594 11.5703C16.0703 11.582 16.1875 11.5859 16.2266 11.6484Z" fill="currentColor"/>
<path d="M17.8125 10.9883C17.6211 11.0508 17.293 11.3867 17.2344 11.5859C17.125 11.9531 17.2031 12.2461 17.4805 12.5195C17.875 12.918 18.375 12.918 18.7695 12.5195C19.1523 12.1406 19.1641 11.6523 18.8008 11.25C18.5469 10.9688 18.1836 10.8711 17.8125 10.9883ZM18.3398 11.6602C18.5352 11.8516 18.3984 12.1875 18.125 12.1875C17.9648 12.1875 17.8125 12.0352 17.8125 11.875C17.8125 11.7148 17.9648 11.5625 18.125 11.5625C18.1992 11.5625 18.2812 11.5977 18.3398 11.6602Z" fill="currentColor"/>
<path d="M15.4492 13.1641C14.8828 13.2695 14.3906 13.5313 13.9609 13.9609C13.6094 14.3125 13.4023 14.6445 13.25 15.1094C13.1641 15.3711 13.1484 15.4766 13.1523 15.9375C13.1523 16.4023 13.1641 16.5 13.2539 16.7773C13.4023 17.2266 13.6094 17.5547 13.9648 17.9102C14.3203 18.2656 14.6484 18.4727 15.0977 18.6211C15.375 18.7109 15.4727 18.7227 15.9375 18.7227C16.4023 18.7227 16.5 18.7109 16.7773 18.6211C17.2266 18.4727 17.5547 18.2656 17.9102 17.9102C18.2656 17.5547 18.4727 17.2266 18.6211 16.7773C18.7109 16.5 18.7227 16.4023 18.7227 15.9375C18.7227 15.4727 18.7109 15.375 18.6211 15.0977C18.4727 14.6484 18.2656 14.3203 17.9102 13.9648C17.3672 13.418 16.8008 13.1719 16.0547 13.1445C15.8281 13.1367 15.5586 13.1445 15.4492 13.1641ZM16.3516 13.793C17.1016 13.9258 17.7695 14.5313 18.0312 15.3125C18.1406 15.6367 18.1328 16.2656 18.0156 16.6094C17.7812 17.2891 17.2656 17.793 16.5625 18.0313C16.2656 18.1328 15.6094 18.1328 15.3125 18.0313C14.2539 17.6758 13.625 16.6875 13.7812 15.6211C13.8828 14.918 14.332 14.3047 14.9727 13.9883C15.4336 13.7617 15.8516 13.7031 16.3516 13.793Z" fill="currentColor"/>
<path d="M15.4727 14.1248C14.4844 14.3904 13.8711 15.4177 14.1211 16.3865C14.3828 17.3865 15.4062 18.0076 16.3867 17.7537C17.3867 17.492 18.0078 16.4685 17.7539 15.4959C17.4922 14.4841 16.4531 13.8591 15.4727 14.1248ZM16.5273 14.8474C16.7891 14.988 16.9102 15.113 17.0625 15.406C17.1484 15.574 17.1641 15.656 17.1641 15.9373C17.168 16.242 17.1562 16.2888 17.0352 16.5154C16.8008 16.9451 16.4492 17.1599 15.9766 17.1638C15.6953 17.1677 15.3125 17.0701 15.3125 16.9959C15.3125 16.9802 15.4531 16.8123 15.625 16.6248C15.9375 16.281 15.9844 16.1795 15.9141 15.9959C15.8789 15.906 15.6758 15.8123 15.5742 15.8396C15.5273 15.8513 15.3437 16.0154 15.168 16.2029L14.8477 16.5427L14.7773 16.3865C14.6719 16.1443 14.6836 15.6599 14.8047 15.4099C14.9687 15.0779 15.2852 14.8162 15.6445 14.7224C15.8867 14.656 16.2734 14.7146 16.5273 14.8474Z" fill="currentColor"/>
<path d="M16.1055 15.1837C15.8633 15.4493 15.8281 15.6251 15.9883 15.7735C16.1445 15.922 16.2734 15.8868 16.5313 15.6329C16.7188 15.4415 16.7578 15.3829 16.7578 15.2657C16.7578 15.0899 16.625 14.961 16.4453 14.961C16.3359 14.961 16.2813 14.9962 16.1055 15.1837Z" fill="currentColor"/>
<path d="M7.85937 12.8789C7.78906 12.9141 7.69922 12.9805 7.66016 13.0312C7.58594 13.125 7.57812 13.125 6.85938 13.125C5.875 13.125 5.9375 13.0586 5.9375 14.0625C5.9375 14.8008 5.9375 14.8086 6.03516 14.9023C6.08594 14.957 6.15625 15 6.19141 15C6.24219 15 6.25 15.2617 6.25 17.4023V19.8086L6.34766 19.9023L6.44141 20H8.75H11.0586L11.1523 19.9023L11.25 19.8086V17.4023C11.25 15.2617 11.2578 15 11.3086 15C11.3437 15 11.4141 14.957 11.4648 14.9023C11.5625 14.8086 11.5625 14.8008 11.5625 14.0625C11.5625 13.3242 11.5625 13.3164 11.4648 13.2227C11.375 13.1289 11.3555 13.125 10.7969 13.125C10.2422 13.125 10.2227 13.1211 10.1523 13.0312C9.99609 12.832 9.88672 12.8125 8.89844 12.8125C8.14062 12.8125 7.96875 12.8242 7.85937 12.8789ZM9.6875 15V16.5625H8.90625H8.125V15V13.4375H8.90625H9.6875V15ZM7.50781 15.2695C7.51953 16.7383 7.52344 16.7969 7.60156 16.8984C7.64453 16.957 7.73047 17.043 7.78906 17.0859C7.89062 17.1641 7.94531 17.168 8.90625 17.168C9.86719 17.168 9.92187 17.1641 10.0234 17.0859C10.2891 16.8906 10.293 16.8789 10.3047 15.8945L10.3164 15H10.4727H10.625V17.1875V19.375H8.75H6.875V17.1875C6.875 15.2422 6.88281 15 6.93359 15C7.03906 15 7.1875 14.8164 7.1875 14.6875C7.1875 14.4883 7.03906 14.375 6.77734 14.375H6.5625V14.0625V13.75H7.03125H7.49609L7.50781 15.2695ZM10.9375 14.0625V14.375H10.625H10.3125V14.0625V13.75H10.625H10.9375V14.0625Z" fill="currentColor"/>
<path d="M0.0976562 13.2227C0 13.3164 0 13.3242 0 14.0625C0 14.8008 0 14.8086 0.0976562 14.9023C0.148438 14.957 0.21875 15 0.253906 15C0.304688 15 0.3125 15.2617 0.3125 17.4023V19.8086L0.410156 19.9023L0.503906 20H2.8125H5.12109L5.21484 19.9023L5.3125 19.8086V17.4023C5.3125 15.2617 5.32031 15 5.37109 15C5.40625 15 5.47656 14.957 5.52734 14.9023C5.625 14.8086 5.625 14.8008 5.625 14.0625C5.625 13.3242 5.625 13.3164 5.52734 13.2227L5.43359 13.125H2.8125H0.191406L0.0976562 13.2227ZM5 14.0625V14.375H4.00391H3.00391L2.91016 14.4727C2.84766 14.5312 2.8125 14.6133 2.8125 14.6875C2.8125 14.7617 2.84766 14.8438 2.91016 14.9023C3.00391 15 3.00391 15 3.84766 15H4.6875V17.1875V19.375H2.8125H0.9375V17.1875V15H1.46484C1.97656 15 2 14.9961 2.08984 14.9023C2.21875 14.7773 2.21875 14.5977 2.08984 14.4727C1.99609 14.375 1.98438 14.375 1.30859 14.375H0.625V14.0625V13.75H2.8125H5V14.0625Z" fill="currentColor"/>
</g>
<defs>
<clipPath id="clip0_613_24">
<rect width="20" height="20" fill="currentColor"/>
</clipPath>
</defs>
</svg>
