<svg width="20" height="20" viewBox="0 0 20 20" fill="none" xmlns="http://www.w3.org/2000/svg">
<g clip-path="url(#clip0_614_69)">
<path d="M3.00781 0.0429211C2.37891 0.164015 1.83984 0.722609 1.71875 1.37105C1.69141 1.51167 1.68359 4.42183 1.6875 9.76558L1.69922 17.9492L1.78516 18.1093C1.90625 18.3398 2.14844 18.539 2.38672 18.6093C2.5 18.6445 2.61719 18.6718 2.64453 18.6718C2.68359 18.6718 2.69531 18.7929 2.69531 19.2148C2.69531 19.5156 2.70703 19.789 2.71875 19.8242C2.78906 20.0078 2.48828 20 10.0391 20H17.1172L17.2305 19.8867L17.3437 19.7734V19.2265V18.6835L17.5586 18.6367C17.8398 18.5742 18.0742 18.3906 18.2227 18.125L18.3398 17.9101L18.3516 9.82417C18.3555 4.93745 18.3477 1.63276 18.3242 1.47261C18.2266 0.753859 17.6797 0.167921 16.9961 0.0390148C16.7344 -0.0117664 3.26172 -0.00786018 3.00781 0.0429211ZM16.9766 0.722609C17.2344 0.796827 17.4687 1.00386 17.582 1.25776C17.6719 1.46089 17.6758 1.49214 17.6875 2.72261L17.6992 3.98433H10.0234H2.34375V2.75386C2.34375 1.62495 2.35156 1.51167 2.42187 1.31636C2.51562 1.06245 2.73437 0.843702 2.99219 0.74214C3.17969 0.667921 3.36719 0.667921 9.98437 0.664015C15.8711 0.664015 16.8086 0.671827 16.9766 0.722609ZM17.6875 11.1328C17.6953 15.6757 17.6875 17.6406 17.6562 17.7421C17.5742 18.0312 18.2227 18.0078 9.96484 18L2.54297 17.9882L2.45312 17.8984L2.36328 17.8085L2.35156 11.2773C2.34766 7.68745 2.35156 4.72261 2.36328 4.69526C2.375 4.6562 3.92969 4.64839 10.0273 4.6562L17.6758 4.66792L17.6875 11.1328ZM16.6797 19.0039V19.3359H10.0195H3.35937V19.0039V18.6718H10.0195H16.6797V19.0039Z" fill="currentcolor"/>
<path d="M3.20312 1.37891C3.03125 1.46484 3.00781 1.57031 3.00781 2.33594C3.00781 3.05859 3.02344 3.16797 3.16016 3.26953C3.20703 3.30469 3.74219 3.31641 5.35547 3.32031H7.48828L7.58203 3.21875C7.67188 3.12109 7.67578 3.09766 7.6875 2.42969C7.69531 1.99219 7.6875 1.68359 7.65625 1.59375C7.57812 1.32031 7.63281 1.32812 5.34375 1.32812C3.78516 1.32812 3.27734 1.33984 3.20312 1.37891ZM7.02344 2.33203L7.03516 2.65625H5.35156H3.67188V2.32422V1.99219L5.34375 2L7.01172 2.01172L7.02344 2.33203Z" fill="currentcolor"/>
<path d="M9.12109 1.36303C8.85156 1.42943 8.57422 1.64428 8.44922 1.88646C8.35156 2.07787 8.33594 2.46459 8.41797 2.68334C8.57812 3.10131 8.96094 3.34349 9.41406 3.31224C9.69922 3.28881 9.85547 3.2224 10.0352 3.04271C10.3086 2.76928 10.4023 2.41381 10.293 2.04662C10.1484 1.55053 9.62109 1.24193 9.12109 1.36303ZM9.58984 2.10912C9.77344 2.29271 9.61328 2.65599 9.34765 2.65599C8.97656 2.65599 8.90625 2.15209 9.25781 2.01928C9.34765 1.98412 9.5039 2.02709 9.58984 2.10912Z" fill="currentcolor"/>
<path d="M11.6875 1.40236C10.8633 1.68751 10.793 2.83205 11.5703 3.21876C12.2383 3.5508 13.0078 3.06251 13.0078 2.30861C13.0078 1.91798 12.6875 1.50392 12.3008 1.39064C12.0391 1.31251 11.9414 1.31251 11.6875 1.40236ZM12.2578 2.13283C12.375 2.26564 12.3672 2.4258 12.2422 2.5547C11.9844 2.81251 11.5469 2.50392 11.7227 2.19142C11.8437 1.97658 12.0937 1.94923 12.2578 2.13283Z" fill="currentcolor"/>
<path d="M13.8672 2.04297C13.6641 2.14453 13.6328 2.39062 13.7969 2.56641C13.875 2.64844 13.9141 2.65625 14.3438 2.65625C14.7852 2.65625 14.8125 2.65234 14.9023 2.55859C15.0742 2.39062 15.0156 2.12109 14.7891 2.03125C14.6406 1.97656 13.9883 1.98438 13.8672 2.04297Z" fill="currentcolor"/>
<path d="M15.8516 2.05469C15.6641 2.15234 15.6406 2.42188 15.8047 2.56641C15.8945 2.64844 15.9414 2.65625 16.3437 2.65625C16.7305 2.65625 16.8008 2.64453 16.8906 2.57422C16.9648 2.51562 16.9922 2.45703 16.9922 2.36328C16.9922 2.17969 16.9609 2.11328 16.832 2.05078C16.6797 1.96875 15.9961 1.97266 15.8516 2.05469Z" fill="currentcolor"/>
<path d="M9.1289 6.0741C7.78515 6.30848 6.58594 7.04285 5.76562 8.12488C5.0625 9.05848 4.6914 10.16 4.6875 11.328C4.6875 13.5819 6.12109 15.6093 8.25 16.3593C10.1562 17.035 12.3164 16.5468 13.75 15.1171C14.4805 14.3905 14.9297 13.6132 15.1758 12.6327C15.5156 11.3046 15.293 9.7616 14.5977 8.61316C13.8203 7.33582 12.5586 6.43348 11.0937 6.11316C10.6914 6.02332 9.53906 5.99988 9.1289 6.0741ZM10.8047 6.73816C13.4961 7.21082 15.2187 9.89832 14.5117 12.5311C13.9648 14.578 12.1445 15.9804 10.0391 15.9843C9.48437 15.9843 9.17969 15.9413 8.6914 15.8007C6.46094 15.1522 5.03906 12.8905 5.41015 10.5858C5.72656 8.64051 7.25781 7.09363 9.21484 6.74207C9.62109 6.66785 10.3828 6.66785 10.8047 6.73816Z" fill="currentcolor"/>
<path d="M9.5 7.03517C7.61719 7.26564 6.12109 8.66798 5.75781 10.543C5.67969 10.9453 5.67969 11.6992 5.75781 12.125C5.95703 13.1719 6.55859 14.1524 7.39844 14.7813C9.5664 16.4063 12.6289 15.6992 13.8594 13.2891C14.4062 12.2188 14.4883 10.9883 14.082 9.85939C13.5742 8.43751 12.375 7.39845 10.8789 7.09376C10.5117 7.01954 9.85156 6.98829 9.5 7.03517ZM10.418 7.69923C11.9062 7.86329 13.1094 8.88283 13.5391 10.3399C13.6602 10.7617 13.707 11.4453 13.6367 11.8555L13.5898 12.1289L13.0742 12.332C12.4414 12.586 12.1484 12.6563 11.7148 12.6563C11.2383 12.6563 11.0312 12.6055 10.4922 12.3672C9.92969 12.1172 9.83984 12.0899 9.4414 12.0313C8.88281 11.9492 7.72265 12.1016 6.86328 12.3672C6.69531 12.418 6.55078 12.461 6.54297 12.461C6.52344 12.461 6.45703 12.2227 6.40625 11.9492C6.34375 11.6367 6.35547 10.9531 6.42578 10.6016C6.69922 9.27736 7.64844 8.23439 8.94531 7.83595C9.48437 7.66798 9.84765 7.63283 10.418 7.69923ZM9.69531 12.7578C9.80859 12.793 10.0195 12.8789 10.1641 12.9531C10.6523 13.1992 10.9883 13.2891 11.4922 13.3125C12.1133 13.3399 12.6328 13.25 13.1406 13.0274L13.293 12.9649L13.1836 13.1524C12.8516 13.7266 12.2578 14.2969 11.6914 14.586C10.2422 15.3164 8.53906 15.0391 7.39844 13.8828C7.15234 13.6328 6.82422 13.1836 6.82812 13.1016C6.83594 13.0039 7.89062 12.7774 8.78906 12.6797C9.01953 12.6524 9.47656 12.6953 9.69531 12.7578Z" fill="currentcolor"/>
</g>
<defs>
<clipPath id="clip0_614_69">
<rect width="20" height="20" fill="currentcolor"/>
</clipPath>
</defs>
</svg>
