<svg width="20" height="20" viewBox="0 0 20 20" fill="none" xmlns="http://www.w3.org/2000/svg">
<path d="M4.53906 0.0429688C3.93359 0.160156 3.41016 0.734375 3.31641 1.37891C3.26953 1.69922 3.27344 16.1133 3.32031 16.4375C3.39844 16.9844 3.73047 17.4414 4.21875 17.6719L4.47266 17.793L6.55078 17.8047L8.62891 17.8164L8.64062 18.8125L8.65234 19.8125L8.76172 19.9062C8.90234 20.0273 9.06641 20.0273 9.20703 19.9062L9.31641 19.8125L9.32812 18.8125L9.33984 17.8125H10H10.6602L10.6719 18.8125L10.6836 19.8125L10.793 19.9062C10.9336 20.0273 11.0977 20.0273 11.2383 19.9062L11.3477 19.8125L11.3594 18.8125L11.3711 17.8164L13.4492 17.8047L15.5273 17.793L15.7812 17.6719C16.2695 17.4414 16.6016 16.9844 16.6797 16.4375C16.7305 16.1094 16.7305 1.69922 16.6797 1.37109C16.6055 0.835938 16.2617 0.386719 15.75 0.144531L15.4883 0.0195312L10.0977 0.0117188C7.13281 0.0117188 4.63281 0.0234375 4.53906 0.0429688ZM15.4883 0.796875C15.7148 0.902344 15.8281 1.01562 15.9258 1.23047C15.9922 1.37891 15.9961 1.76172 16.0078 8.80859C16.0117 13.9258 16.0039 16.293 15.9766 16.4297C15.9258 16.668 15.7344 16.9141 15.4922 17.043L15.332 17.1289H10H4.66797L4.50781 17.043C4.26562 16.9141 4.07422 16.668 4.02344 16.4297C3.99609 16.293 3.98828 13.9258 3.99219 8.80859C4.00391 1.76172 4.00781 1.37891 4.07422 1.23047C4.17187 1.01562 4.28516 0.902344 4.51172 0.796875L4.70703 0.703125H10H15.293L15.4883 0.796875Z" fill="currentColor"/>
<path d="M6.06641 2.63672C6 2.66406 5.92578 2.72266 5.90234 2.76953C5.87109 2.82422 5.85938 4.03906 5.85938 6.76953V10.6953L5.98047 10.7969L6.10156 10.8984H10H13.8984L14.0195 10.7969L14.1406 10.6953V6.76953C14.1406 4.03516 14.1289 2.82422 14.0977 2.76562C13.9961 2.57422 14.0586 2.57812 9.99219 2.57812C6.85156 2.58203 6.17188 2.58984 6.06641 2.63672ZM13.4375 6.73828V10.1953H10H6.5625V6.73828V3.28125H10H13.4375V6.73828Z" fill="currentColor"/>
<path d="M8.91797 3.9139C8.79297 4.05452 8.78906 4.10921 8.8711 4.4764C8.97656 4.94515 8.96094 5.37483 8.82813 5.64437C8.77735 5.74983 8.57813 6.00374 8.39063 6.20296C8.00391 6.61702 7.84375 6.89827 7.75 7.34358C7.65625 7.79671 7.71875 8.20687 8 8.9139C8.10156 9.1678 8.36719 9.25765 8.5625 9.1014C8.71875 8.9803 8.71875 8.8514 8.5625 8.43733C8.44922 8.12874 8.42578 8.01546 8.42578 7.75374C8.42578 7.28108 8.51563 7.08187 8.96485 6.6014C9.375 6.1639 9.54688 5.86312 9.625 5.43733L9.67188 5.17562L9.77735 5.3514C10.0391 5.80062 10.1836 6.26546 10.2227 6.80452C10.25 7.19124 10.2773 7.25374 10.4531 7.32796C10.668 7.4178 10.8125 7.33577 11.0234 6.98812C11.1211 6.82796 11.2227 6.63265 11.25 6.55062C11.2734 6.47249 11.3086 6.40608 11.3281 6.40608C11.3789 6.40608 11.5156 6.79671 11.5625 7.07015C11.6367 7.49202 11.5508 7.98421 11.3086 8.53108C11.1445 8.90218 11.1992 9.13655 11.4648 9.20296C11.6563 9.24983 11.7852 9.15608 11.9297 8.84749C12.4766 7.69515 12.3906 6.5389 11.6914 5.67562C11.418 5.33968 11.1992 5.15609 11.0391 5.12874C10.9219 5.10921 10.8828 5.12484 10.7813 5.2264C10.7188 5.2928 10.6641 5.38655 10.6641 5.43733C10.6602 5.49983 10.6211 5.44515 10.5273 5.26155C10.2539 4.72249 9.90235 4.28109 9.51953 3.99593C9.2461 3.79671 9.05078 3.76937 8.91797 3.9139Z" fill="currentColor"/>
<path d="M9.65625 11.7227C8.81641 11.8477 8.08985 12.4609 7.8125 13.2813C7.69531 13.625 7.66797 14.1523 7.75 14.5C7.90235 15.1563 8.40625 15.793 8.98438 16.0625C9.36719 16.2422 9.59375 16.293 10 16.293C10.6523 16.293 11.1445 16.0898 11.6055 15.6289C12.0703 15.1641 12.3047 14.625 12.3047 14.0039C12.3047 12.6055 11.0391 11.5156 9.65625 11.7227ZM10.5781 12.5078C11.125 12.7109 11.5391 13.2617 11.5898 13.8594C11.6758 14.8945 10.7734 15.7422 9.75781 15.582C8.6875 15.4141 8.09375 14.2656 8.57422 13.293C8.94141 12.5508 9.78906 12.2188 10.5781 12.5078Z" fill="currentColor"/>
<path d="M9.77734 13.1013C9.67187 13.1912 9.66797 13.2146 9.65625 13.5935C9.64062 14.0506 9.65625 14.1482 9.77344 14.2576C9.94922 14.4217 10.2773 14.3201 10.3359 14.0818C10.3477 14.031 10.3516 13.8084 10.3437 13.5935C10.332 13.2146 10.3281 13.1912 10.2227 13.1013C10.1602 13.0506 10.0625 13.0076 10 13.0076C9.9375 13.0076 9.83984 13.0506 9.77734 13.1013Z" fill="currentColor"/>
</svg>
